<ttFont>
          <CharString index="0">
            rmoveto
            -31 -18 -20 -30 -27 hvcurveto
            -119 -132 21 -24 148 73 rlineto
            61 30 22 19 34 vvcurveto
            27 -24 23 -33 vhcurveto
            endchar
          </CharString>
          <CharString index="1">
            -97 callsubr
            27 -31 -62 callgsubr
            rlinecurve
            return
          </CharString>
          <CharString index="2">
            -92 callsubr
            -335 vlineto
            -92 59 -55 85 86 48 20 54 52 vhcurveto
            -7 callgsubr
            return
          </CharString>
          <CharString index="3">
            rmoveto
            -42 34 -34 42 42 34 34 42 42 -34 34 -42 -42 -34 -34 -42 vhcurveto
            230 hmoveto
            -42 34 -34 42 42 34 34 42 42 -34 34 -42 -42 -34 -34 -42 vhcurveto
            endchar
          </CharString>
          <CharString index="4">
            169 -50 callgsubr
            68 hlineto
            -187 -620 rlineto
            -50 -40 169 40 -58 hlineto
            36 123 rlineto
            272 hlineto
            37 -123 rlineto
            -58 -40 258 40 -50 hlineto
            -199 660 rlineto
            -238 hlineto
            113 -83 rmoveto
            123 -409 rlineto
            -244 hlineto
            return
          </CharString>
          <CharString index="5">
            485 1 callgsubr
            -450 hlineto
            -110 -80 -52 -76 -74 -70 52 110 vhcurveto
            450 60 40 -270 -40 60 -418 vlineto
            -202 131 -55 131 130 128 55 201 vhcurveto
            419 60 40 -190 vlineto
            return
          </CharString>
          <CharString index="6">
            65 250 rmoveto
            -146 104 -119 161 161 104 119 146 146 -104 119 -161 -161 -104 -119 -146 vhcurveto
            155 hmoveto
            123 34 100 77 77 34 -100 -123 -123 -34 -100 -77 -77 -34 100 123 vhcurveto
            return
          </CharString>
          <CharString index="7">
            419 -132 rmoveto
            36 22 -19 -28 -18 -9 -21 -20 -24 hvcurveto
            24 -23 rlineto
            41 45 32 50 62 vvcurveto
            75 -55 33 -92 vhcurveto
            -185 hlineto
            -36 -22 15 35 24 17 25 18 25 hvcurveto
            -19 35 42 -10 48 hhcurveto
            143 92 95 115 59 -25 53 -43 39 hvcurveto
            30 29 24 41 12 46 -39 10 rcurveline
            -11 -42 -22 -36 -26 -24 rrcurveto
            22 -37 -46 13 -52 hhcurveto
            -143 -92 -95 -115 -66 29 -59 52 -38 hvcurveto
            -38 -43 -36 -48 -60 vvcurveto
            -85 55 -38 92 vhcurveto
            return
          </CharString>
          <CharString index="8">
            -56 51 -7 -48 vvcurveto
            -29 -14 -26 -30 -35 vhcurveto
            22 -22 rlineto
            69 62 36 79 66 vvcurveto
            53 -30 30 -37 vhcurveto
            return
          </CharString>
          <CharString index="9">
            rmoveto
            -125 68 44 -37 54 hhcurveto
            54 44 37 125 68 hvcurveto
            -45 29 rlineto
            -32 -23 -41 -58 -57 hhcurveto
            -59 -40 58 32 -23 hvcurveto
            endchar
          </CharString>
          <CharString index="10">
            35 -45 26 -93 callsubr
            return
          </CharString>
          <CharString index="11">
            454 rmoveto
            -106 callsubr
            return
          </CharString>
          <CharString index="12">
            28 -435 rlineto
            -154 10 50 -86 153 hhcurveto
            90 67 44 68 46 hvcurveto
            -73 29 56 -39 104 hhcurveto
            193 84 219 210 194 -71 88 -35 15 hvcurveto
            3 -7 -8 1 -7 hhcurveto
            -11 -9 -2 -3 -10 hvcurveto
            -104 -35 6 -37 rlineto
            38 hlineto
            55 43 -7 -58 26 hvcurveto
            32 -71 4 -61 -51 vvcurveto
            -165 -64 -162 -119 17 callgsubr
            return
          </CharString>
          <CharString index="13">
            331 -15 rmoveto
            92 72 51 68 42 hvcurveto
            -28 18 rlineto
            -36 -30 -52 -39 -71 hhcurveto
            -94 -42 91 112 117 42 96 94 24 21 -4 -8 19 hvcurveto
            -34 -10 -24 -31 -36 vvcurveto
            -21 callgsubr
            95 -117 46 -75 -161 -104 -119 -146 return
          </CharString>
          <CharString index="14">
            -49 -68 -62 -28 -38 -37 vhcurveto
            return
          </CharString>
          <CharString index="15">
            274 -96 callsubr
            return
          </CharString>
          <CharString index="16">
            -52 vvcurveto
            -69 52 -26 57 46 48 22 36 30 vhcurveto
            -17 29 rlineto
            -18 -19 -25 -10 -23 hhcurveto
            -31 -27 18 39 32 8 28 return
          </CharString>
          <CharString index="17">
            -21 callgsubr
            44 -36 36 -44 -44 -36 -36 -44 vhcurveto
            return
          </CharString>
          <CharString index="18">
            -56 17 39 -16 58 hhcurveto
            65 60 32 41 45 hvcurveto
            -61 callsubr
            -24 -14 10 35 -10 hvcurveto
            -30 100 -12 38 -24 33 -48 16 rlinecurve
            100 30 66 64 102 vvcurveto
            172 -144 47 -189 vhcurveto
            -220 hlineto
            220 -40 rmoveto
            101 82 -61 -118 -117 -82 -61 -101 hvcurveto
            -10 357 hlineto
            return
          </CharString>
          <CharString index="19">
            rmoveto
            -98 -62 -100 -123 -121 62 -99 98 101 62 99 121 123 -62 100 -101 hvcurveto
            1 -37 rmoveto
            45 19 -82 -104 -101 -19 -82 -45 -44 -19 82 101 104 19 82 44 hvcurveto
            return
          </CharString>
          <CharString index="20">
            27 668 rmoveto
            18 22 30 18 36 9 -83 callgsubr
            -68 -62 -28 -38 -37 vhcurveto
            return
          </CharString>
          <CharString index="21">
            48 -6 callsubr
            51 vhcurveto
            -1 -47 -5 -61 -24 -61 41 -12 rcurveline
            35 71 14 66 4 47 47 5 37 9 30 12 rrcurveto
            -281 vlineto
            -107 callgsubr
            347 vlineto
            return
          </CharString>
          <CharString index="22">
            rmoveto
            -72 57 -45 72 71 58 45 72 71 -58 46 -71 -72 -57 -46 -71 vhcurveto
            84 hmoveto
            60 20 22 25 24 20 -22 -60 -61 -20 -23 -24 -25 -20 23 61 vhcurveto
            endchar
          </CharString>
          <CharString index="23">
            15 -13 9 -18 -21 vvcurveto
            -27 -13 -32 -31 -36 vhcurveto
            27 -25 rlineto
            78 67 42 76 72 vvcurveto
            59 -34 34 -43 vhcurveto
            return
          </CharString>
          <CharString index="24">
            60 -50 callgsubr
            70 -620 -70 -40 290 40 -70 620 70 40 -290 hlineto
            return
          </CharString>
          <CharString index="25">
            60 hmoveto
            190 40 -60 552 hlineto
            301 -592 rlineto
            159 660 60 40 -190 -40 60 -523 hlineto
            -286 563 rlineto
            -234 31 callsubr
            hlineto
            return
          </CharString>
          <CharString index="26">
            -4 -12 -3 -10 -10 vvcurveto
            -85 112 -40 75 140 104 61 154 vhcurveto
            340 -285 vlineto
            5 -333 rmoveto
            50 43 10 16 37 hvcurveto
            -91 vlineto
            -76 -38 -34 -56 -91 -12 72 81 vhcurveto
            31 vlineto
            -6 21 23 -3 23 hhcurveto
            return
          </CharString>
          <CharString index="27">
            48 31 12 18 23 vvcurveto
            24 -21 16 -25 -27 -13 -16 -42 -22 vhcurveto
            -25 -48 rlineto
            15 -20 -31 7 -25 hhcurveto
            -72 -57 -46 -71 hvcurveto
            84 hmoveto
            60 20 22 25 24 20 -22 -60 -61 -20 -23 -24 -25 -20 23 61 vhcurveto
            endchar
          </CharString>
          <CharString index="28">
            350 273 rmoveto
            135 -206 hlineto
            -10 -24 -26 -6 -28 hhcurveto
            -138 -64 134 169 168 58 146 129 hvcurveto
            return
          </CharString>
          <CharString index="29">
            35 26 0 42 hvcurveto
            -27 158 rlineto
            -39 hlineto
            return
          </CharString>
          <CharString index="30">
            5 8 7 2 8 hhcurveto
            19 9 -15 -24 hvcurveto
            -15 vlineto
            endchar
          </CharString>
          <CharString index="31">
            -40 -33 -37 -37 -91 callsubr
            54 54 hvcurveto
            return
          </CharString>
          <CharString index="32">
            21 24 10 17 24 vvcurveto
            43 -72 callsubr
            -20 9 -20 15 -23 vhcurveto
            -30 -61 -34 -65 -66 -107 rrcurveto
            return
          </CharString>
          <CharString index="33">
            135 hmoveto
            350 40 -100 210 hlineto
            170 410 rlineto
            47 40 -151 hlineto
            -90 -392 -158 392 rlineto
            -198 -40 48 hlineto
            182 -410 rlineto
            -210 -100 vlineto
            return
          </CharString>
          <CharString index="34">
            -82 -34 -28 -50 -36 -42 17 20 -23 vhcurveto
            -22 -31 rlineto
            -38 37 62 -28 68 hhcurveto
            142 48 82 96 return
          </CharString>
          <CharString index="35">
            -34 34 -43 -43 -34 -34 -43 return
          </CharString>
          <CharString index="36">
            40 -229 -21 235 17 callsubr
            hintmask 11011100
            -92 callsubr
            -717 150 235 vlineto
            82 1 47 20 51 53 rrcurveto
            -7 callgsubr
            hintmask 11101100
            389 -150 -353 vlineto
            -64 -55 -37 -115 vhcurveto
            endchar
          </CharString>
          <CharString index="37">
            39 hlineto
            27 168 rlineto
            42 -26 0 -35 vhcurveto
            -468 hlineto
            -89 callgsubr
            10 return
          </CharString>
          <CharString index="38">
            39 callsubr
            42 -21 206 -13 callgsubr
            hintmask 11000100
            -84 callgsubr
            hintmask 11001000
            -75 callsubr
            hintmask 00110000
            return
          </CharString>
          <CharString index="39">
            44 445 rmoveto
            11 26 26 4 28 hhcurveto
            -460 150 357 vlineto
            61 return
          </CharString>
          <CharString index="40">
            rmoveto
            60 40 -305 -40 95 -528 hlineto
            -69 -34 -31 -50 -48 -29 38 39 18 1 22 3 26 vhcurveto
            9 62 -36 11 -60 -116 29 callsubr
            95 -46 76 134 100 58 147 vhcurveto
            return
          </CharString>
          <CharString index="41">
            -34 callsubr
            -40 62 hlineto
            28 -435 1 -18 1 -18 3 -16 rlinecurve
            -66 -33 -49 -44 -66 hhcurveto
            return
          </CharString>
          <CharString index="42">
            49 24 -32 -31 -30 -23 -30 -41 -4 -7 1 1 -4 hvcurveto
            11 8 7 12 15 vvcurveto
            return
          </CharString>
          <CharString index="43">
            84 53 -48 -49 -12 -1 -16 -3 -18 hvcurveto
            return
          </CharString>
          <CharString index="44">
            -20 -69 callgsubr
            return
          </CharString>
          <CharString index="45">
            43 34 34 43 43 -34 34 -43 return
          </CharString>
          <CharString index="46">
            -18 -14 callgsubr
            -1 callgsubr
            return
          </CharString>
          <CharString index="47">
            1 437 rmoveto
            92 25 76 56 56 25 -76 -92 -92 -25 -76 -56 -56 -25 76 92 vhcurveto
            return
          </CharString>
          <CharString index="48">
            rmoveto
            -106 callsubr
            -562 vlineto
            -73 callsubr
            hvcurveto
            -155 757 rmoveto
            -90 callsubr
            endchar
          </CharString>
          <CharString index="49">
            -393 -148 -21 308 -20 hstemhm
            60 6 callgsubr
            hintmask 11100000
            60 62 rmoveto
            -15 callsubr
            hintmask 11010000
            -84 callsubr
            hintmask 11100000
            30 callsubr
          </CharString>
          <CharString index="50">
            rmoveto
            95 171 -24 21 -144 -138 rlineto
            -18 -17 -10 -17 -24 vvcurveto
            -24 10 -17 18 -17 vhcurveto
            144 -138 24 21 -95 171 rlineto
            return
          </CharString>
          <CharString index="51">
            vlineto
            -71 callgsubr
            return
          </CharString>
          <CharString index="52">
            -56 17 39 -16 58 hhcurveto
            65 60 32 41 45 hvcurveto
            -61 callsubr
            -24 -14 10 35 -10 hvcurveto
            -42 140 rlineto
            54 -16 -41 43 -100 hhcurveto
            -65 hlineto
            290 325 rlineto
            55 40 -159 hlineto
            -213 -345 rlineto
            305 60 40 -270 vlineto
            return
          </CharString>
          <CharString index="53">
            -40 callgsubr
            -40 return
          </CharString>
          <CharString index="54">
            -11 0 40 123 45 452 40 return
          </CharString>
          <CharString index="55">
            0 40 620 -9 callgsubr
            return
          </CharString>
          <CharString index="56">
            hstemhm
            65 155 return
          </CharString>
          <CharString index="57">
            48 -26 25 -36 -39 vvcurveto
            -63 -49 -43 -80 -84 -53 48 49 vhcurveto
            return
          </CharString>
          <CharString index="58">
            -323 -21 290 -20 return
          </CharString>
          <CharString index="59">
            -76 callsubr
            66 66 -61 callsubr
            hintmask 11010110
            -28 -19 22 36 hvcurveto
            return
          </CharString>
          <CharString index="60">
            rmoveto
            -88 294 88 vlineto
            endchar
          </CharString>
          <CharString index="61">
            700 rmoveto
            -40 hlineto
            -390 -700 rlineto
            40 hlineto
            return
          </CharString>
          <CharString index="62">
            500 rmoveto
            -150 -56 hlineto
            return
          </CharString>
          <CharString index="63">
            -15 13 -9 18 21 vvcurveto
            27 13 32 31 36 vhcurveto
            -27 25 rlineto
            -78 -67 -42 -76 -72 vvcurveto
            -59 34 -34 43 vhcurveto
            return
          </CharString>
          <CharString index="64">
            hintmask 0000000000000000
            return
          </CharString>
          <CharString index="65">
            hhcurveto
            161 84 119 146 146 -74 119 -161 -66 -49 -31 -48 -32 hvcurveto
            227 -186 rmoveto
            -123 -35 -85 -78 -79 -40 85 123 123 40 85 79 78 35 -85 -123 vhcurveto
            endchar
          </CharString>
          <CharString index="66">
            -43 34 -34 43 return
          </CharString>
          <CharString index="67">
            -44 36 -36 44 return
          </CharString>
          <CharString index="68">
            -15 -30 callgsubr
            return
          </CharString>
          <CharString index="69">
            680 1 callgsubr
            40 -270 -40 60 -342 -250 342 60 40 -270 -40 22 callsubr
            233 250 -233 -3 callgsubr
            hlineto
            return
          </CharString>
          <CharString index="70">
            -20 hstemhm
            101 152 -138 156 222 152 294 58 return
          </CharString>
          <CharString index="71">
            -15 -31 callgsubr
            return
          </CharString>
          <CharString index="72">
            0 40 233 42 callsubr
            return
          </CharString>
          <CharString index="73">
            -35 535 rlineto
            -211 return
          </CharString>
          <CharString index="74">
            150 hintmask 00000000
            return
          </CharString>
          <CharString index="75">
            17 83 30 103 38 vvcurveto
            32 -25 34 -46 -46 -25 -34 -32 -38 30 -103 17 -83 vhcurveto
            return
          </CharString>
          <CharString index="76">
            -265 32 -32 110 45 40 return
          </CharString>
          <CharString index="77">
            -43 -34 -34 -43 vhcurveto
            return
          </CharString>
          <CharString index="78">
            hstemhm
            95 150 300 70 hintmask 00000000
            return
          </CharString>
          <CharString index="79">
            rlineto
            -76 callsubr
            return
          </CharString>
          <CharString index="80">
            134 -83 83 return
          </CharString>
          <CharString index="81">
            33 -237 47 175 66 222 45 350 47 return
          </CharString>
          <CharString index="82">
            rmoveto
            165 135 135 165 165 135 -135 -165 -165 -135 -135 -165 -165 -135 135 165 vhcurveto
            return
          </CharString>
          <CharString index="83">
            61 454 -20 35 -20 return
          </CharString>
          <CharString index="84">
            -70 -15 62 414 54 return
          </CharString>
          <CharString index="85">
            hstemhm
            56 83 -83 123 226 120 -100 100 return
          </CharString>
          <CharString index="86">
            hintmask 00000000
            hintmask 11001100
            return
          </CharString>
          <CharString index="87">
            -1 callgsubr
            -24 return
          </CharString>
          <CharString index="88">
            -30 callsubr
            endchar
          </CharString>
          <CharString index="89">
            597 -45 callsubr
            return
          </CharString>
          <CharString index="90">
            -37 -35 callsubr
            return
          </CharString>
          <CharString index="91">
            101 -12 callsubr
            return
          </CharString>
          <CharString index="92">
            -24 10 -21 17 -14 vhcurveto
            return
          </CharString>
          <CharString index="93">
            -61 callsubr
            -28 -19 22 36 hvcurveto
            334 113 41 -113 -5 callgsubr
            return
          </CharString>
          <CharString index="94">
            -100 620 16 callsubr
            return
          </CharString>
          <CharString index="95">
            -15 -2 callsubr
            return
          </CharString>
          <CharString index="96">
            50 155 return
          </CharString>
          <CharString index="97">
            -20 85 -68 callgsubr
            hstemhm
            return
          </CharString>
          <CharString index="98">
            hhcurveto
            65 50 32 41 45 hvcurveto
            return
          </CharString>
          <CharString index="99">
            vstem
            81 529 rmoveto
            -103 73 -85 114 115 72 85 103 102 -72 84 -115 -114 -73 -84 -102 vhcurveto
            return
          </CharString>
          <CharString index="100">
            rmoveto
            -380 160 rlineto
            -60 vlineto
            309 -130 -309 -130 rlineto
            -60 vlineto
            380 160 rlineto
            endchar
          </CharString>
          <CharString index="101">
            -72 callsubr
            -43 34 -34 return
          </CharString>
          <CharString index="102">
            39 445 rmoveto
            82 -313 hlineto
            return
          </CharString>
          <CharString index="103">
            -40 callsubr
            44 36 return
          </CharString>
          <CharString index="104">
            -43 -34 -34 -43 hvcurveto
            return
          </CharString>
          <CharString index="105">
            47 636 47 return
          </CharString>
          <CharString index="106">
            380 -160 rlineto
            60 vlineto
            -309 130 309 130 rlineto
            60 vlineto
            -380 -160 rlineto
            endchar
          </CharString>
          <CharString index="107">
            155 hintmask 00000000
            return
          </CharString>
          <CharString index="108">
            33 9 25 31 37 vvcurveto
            43 -36 37 -44 -44 -36 -36 -44 -94 113 -47 109 161 104 return
          </CharString>
          <CharString index="109">
            -20 -51 callsubr
            return
          </CharString>
          <CharString index="110">
            152 78 152 return
          </CharString>
          <CharString index="111">
            131 10 callgsubr
            return
          </CharString>
          <CharString index="112">
            360 vmoveto
            -41 callsubr
            -62 callsubr
            -19 callsubr
          </CharString>
          <CharString index="113">
            -268 31 callgsubr
            return
          </CharString>
          <CharString index="114">
            380 60 -380 hlineto
            return
          </CharString>
          <CharString index="115">
            40 hstemhm
            -19 callgsubr
            return
          </CharString>
          <CharString index="116">
            99 -25 99 -46 callgsubr
            -77 44 203 150 -128 44 -43 callsubr
            return
          </CharString>
          <CharString index="117">
            hstemhm
            -19 callgsubr
            193 -33 callsubr
            return
          </CharString>
          <CharString index="118">
            28 -15 68 -53 40 223 40 357 40 return
          </CharString>
          <CharString index="119">
            rmoveto
            -3 -90 -12 -129 -81 -75 rrcurveto
            -38 vlineto
            return
          </CharString>
          <CharString index="120">
            73 38 23 85 vhcurveto
            6 23 rlineto
            17 -39 -43 10 -40 hhcurveto
            -93 -59 -41 -83 hvcurveto
            return
          </CharString>
          <CharString index="121">
            66 225 143 -43 43 hstemhm
            69 106 88 93 hintmask 00000000
            hintmask 11011000
            306 return
          </CharString>
          <CharString index="122">
            -83 59 -41 93 40 43 10 17 39 vhcurveto
            -6 23 rlineto
            -85 -38 23 73 hvcurveto
            return
          </CharString>
          <CharString index="123">
            10 hlineto
            84 27 -9 -62 13 hvcurveto
            return
          </CharString>
          <CharString index="124">
            61 454 -20 35 -63 callsubr
            return
          </CharString>
          <CharString index="125">
            40 80 -21 116 -21 111 -20 hstemhm
            return
          </CharString>
          <CharString index="126">
            71 59 76 109 122 vvcurveto
            endchar
          </CharString>
          <CharString index="127">
            21 callsubr
            -36 -32 -55 -39 -76 hhcurveto
            return
          </CharString>
          <CharString index="128">
            97 76 51 68 43 hvcurveto
            -28 18 rlineto
            return
          </CharString>
          <CharString index="129">
            60 -620 -3 callgsubr
            return
          </CharString>
          <CharString index="130">
            117 -21 392 -20 hstem
            return
          </CharString>
          <CharString index="131">
            21 -21 700 -20 hstem
            return
          </CharString>
          <CharString index="132">
            -40 -265 140 130 81 285 154 -10 -20 return
          </CharString>
          <CharString index="133">
            18 callsubr
            -19 callgsubr
            return
          </CharString>
          <CharString index="134">
            66 -30 -21 273 45 350 47 36 callsubr
            return
          </CharString>
          <CharString index="135">
            -16 callsubr
            65 -21 return
          </CharString>
          <CharString index="136">
            rlineto
            -7 -14 -4 -13 -12 vvcurveto
            -62 return
          </CharString>
          <CharString index="137">
            -3 callsubr
            endchar
          </CharString>
          <CharString index="138">
            -40 -40 callgsubr
            return
          </CharString>
          <CharString index="139">
            64 55 37 48 -35 callgsubr
            return
          </CharString>
          <CharString index="140">
            237 -15 62 133 39 39 47 146 64 return
          </CharString>
          <CharString index="141">
            hintmask 00000000
            hintmask 11001000
            return
          </CharString>
          <CharString index="142">
            128 hintmask 00000000
            return
          </CharString>
          <CharString index="143">
            hstemhm
            -11 callsubr
            return
          </CharString>
          <CharString index="144">
            -53 callsubr
            80 -21 return
          </CharString>
          <CharString index="145">
            27 -15 -12 callgsubr
            61 250 -20 return
          </CharString>
          <CharString index="146">
            -193 -15 62 511 -20 return
          </CharString>
          <CharString index="147">
            36 callgsubr
            84 -20 hstemhm
            return
          </CharString>
          <CharString index="148">
            hstemhm
            131 150 return
          </CharString>
          <CharString index="149">
            45 342 40 return
          </CharString>
          <CharString index="150">
            160 hstem
            131 160 vstem
            131 return
          </CharString>
          <CharString index="151">
            -131 341 41 293 40 hstem
            81 return
          </CharString>
        <CharString name=".notdef">
          -367 endchar
        </CharString>
        <CharString name="A">
          -53 callsubr
          hstem
          -103 callsubr
          endchar
        </CharString>
        <CharString name="AE">
          245 -17 callgsubr
          412 -8 callgsubr
          -67 callgsubr
          endchar
        </CharString>
        <CharString name="AEacute">
          245 -35 callsubr
          80 -21 206 -20 hstemhm
          412 -33 callsubr
          hintmask 11100100
          -67 callgsubr
          hintmask 00011000
          413 647 -107 callsubr
        </CharString>
        <CharString name="Aacute">
          37 callsubr
          206 -20 hstemhm
          34 callgsubr
          -103 callsubr
          hintmask 00011000
          247 757 -107 callsubr
        </CharString>
        <CharString name="Abreve">
          -53 callsubr
          69 101 90 -20 hstemhm
          34 callgsubr
          -103 callsubr
          hintmask 00011000
          1 723 -98 callsubr
        </CharString>
        <CharString name="Acircumflex">
          37 callsubr
          116 -21 111 -20 hstemhm
          34 callgsubr
          -103 callsubr
          hintmask 00011100
          151 646 -106 callgsubr
          endchar
        </CharString>
        <CharString name="Adieresis">
          -53 callsubr
          94 152 hstemhm
          128 3 callsubr
          34 callgsubr
          -103 callsubr
          hintmask 00011100
          -33 662 -104 callsubr
        </CharString>
        <CharString name="Agrave">
          37 callsubr
          206 -20 hstemhm
          34 callgsubr
          -103 callsubr
          hintmask 00011000
          78 757 -99 callgsubr
        </CharString>
        <CharString name="Amacron">
          -53 callsubr
          112 88 hstemhm
          34 callgsubr
          -103 callsubr
          hintmask 00010000
          20 692 -47 callsubr
        </CharString>
        <CharString name="Aogonek">
          -11 -238 59 200 -21 700 -20 hstem
          447 91 vstem
          560 hmoveto
          -26 -21 rlineto
          -40 -32 -47 -38 -91 callsubr
          54 54 hvcurveto
          8 8 rlineto
          48 40 -50 hlineto
          -199 660 rlineto
          -238 -40 68 hlineto
          -187 -620 rlineto
          -50 -40 169 40 -58 hlineto
          36 123 rlineto
          272 hlineto
          37 -123 rlineto
          -58 -40 hlineto
          -116 617 rmoveto
          123 -409 rlineto
          -244 hlineto
          endchar
        </CharString>
        <CharString name="Aring">
          -53 callsubr
          53 36 callgsubr
          hstemhm
          179 84 89 85 34 callgsubr
          -103 callsubr
          hintmask 00011110
          18 662 -85 callsubr
        </CharString>
        <CharString name="Aringacute">
          -53 callsubr
          53 40 callsubr
          195 84 89 85 -85 165 -43 callsubr
          hintmask 1110000000000000
          -103 callsubr
          hintmask 0001111100000000
          34 662 -43 callgsubr
          hintmask 0001111010000000
          -80 callsubr
        </CharString>
        <CharString name="Atilde">
          -53 callsubr
          89 99 -25 99 hstemhm
          183 44 225 44 34 callgsubr
          -103 callsubr
          hintmask 00001110
          327 601 -87 callgsubr
          hintmask 00010110
          -96 callgsubr
          hintmask 00001110
          -77 callsubr
        </CharString>
        <CharString name="B">
          41 0 40 273 38 309 8 callsubr
          193 150 -125 125 -125 0 callsubr
          hintmask 11110010
          -65 callgsubr
          270 hlineto
          193 120 56 123 86 -68 48 -117 18 hvcurveto
          7 vlineto
          hintmask 11110100
          94 24 61 51 97 vvcurveto
          145 -135 45 -178 vhcurveto
          -240 hlineto
          260 -387 rmoveto
          92 76 -47 -89 -90 -76 -47 -92 hvcurveto
          -50 273 hlineto
          29 347 rmoveto
          hintmask 11111000
          90 74 -52 -98 -104 -74 -55 -90 hvcurveto
          -29 309 hlineto
          endchar
        </CharString>
        <CharString name="C">
          25 callgsubr
          hstem
          -11 callsubr
          314 94 vstem
          -94 callgsubr
          endchar
        </CharString>
        <CharString name="Cacute">
          25 callgsubr
          -55 callgsubr
          50 155 314 94 -21 callsubr
          -94 callgsubr
          hintmask 00110000
          62 297 -107 callsubr
        </CharString>
        <CharString name="Ccaron">
          25 callgsubr
          -55 callgsubr
          50 155 314 94 -21 callsubr
          -94 callgsubr
          hintmask 00110000
          -11 202 -102 callgsubr
        </CharString>
        <CharString name="Ccedilla">
          -17 -31 callsubr
          55 66 -51 -20 688 47 36 callsubr
          25 82 61 87 59 94 -43 callsubr
          hintmask 1010111111000000
          382 668 rmoveto
          -64 callsubr
          -9 -62 36 -11 60 116 -72 callgsubr
          -216 -116 -164 -202 -183 105 -152 161 -25 vhcurveto
          -38 -82 22 -17 rlineto
          -65 callsubr
          hintmask 0110111111000000
          -78 callgsubr
          31 63 rlineto
          hintmask 1011011111000000
          -1 6 7 0 7 hhcurveto
          136 70 78 86 54 hvcurveto
          -35 25 rlineto
          -55 -38 -56 -68 -107 hhcurveto
          -123 -61 134 169 168 55 146 122 hvcurveto
          endchar
        </CharString>
        <CharString name="Ccircumflex">
          25 callgsubr
          65 -21 116 -21 111 -20 36 callsubr
          314 94 hintmask 00000000
          hintmask 11000110
          -94 callgsubr
          hintmask 00111000
          -3 186 -106 callgsubr
          endchar
        </CharString>
        <CharString name="Cdotaccent">
          25 callgsubr
          75 160 36 callsubr
          90 160 64 94 hintmask 00000000
          hintmask 11010100
          -94 callgsubr
          hintmask 00101000
          -87 202 rmoveto
          -90 callsubr
          endchar
        </CharString>
        <CharString name="D">
          115 -54 callgsubr
          hstem
          150 150 287 155 vstem
          -44 callgsubr
          endchar
        </CharString>
        <CharString name="Dcaron">
          115 -52 callsubr
          150 150 287 155 -21 callsubr
          -44 callgsubr
          hintmask 00110000
          87 210 -102 callgsubr
        </CharString>
        <CharString name="Dcroat">
          115 -17 callgsubr
          150 150 287 155 vstem
          70 273 rmoveto
          80 -233 -80 -40 270 hlineto
          242 160 146 204 205 -160 145 -242 hvcurveto
          -270 -40 80 -342 -80 hlineto
          270 342 rmoveto
          -36 callgsubr
          233 150 45 -150 342 hlineto
          endchar
        </CharString>
        <CharString name="Delta">
          -32 callgsubr
        </CharString>
        <CharString name="E">
          -37 28 callgsubr
          vstem
          -103 callgsubr
          endchar
        </CharString>
        <CharString name="Eacute">
          -17 callsubr
          80 -21 206 -20 hstemhm
          130 -33 callsubr
          hintmask 11100100
          -103 callgsubr
          hintmask 00011000
          -130 765 -107 callsubr
        </CharString>
        <CharString name="Ebreve">
          -17 callsubr
          69 101 90 -20 hstemhm
          130 -33 callsubr
          hintmask 11100100
          -103 callgsubr
          hintmask 00011000
          -345 731 -98 callsubr
        </CharString>
        <CharString name="Ecaron">
          -17 callsubr
          80 -21 206 -20 hstemhm
          130 -33 callsubr
          hintmask 11100100
          -103 callgsubr
          hintmask 00011000
          -183 670 -102 callgsubr
        </CharString>
        <CharString name="Ecircumflex">
          -37 9 callgsubr
          hintmask 00000000
          hintmask 11100010
          -103 callgsubr
          hintmask 00011100
          -175 654 -106 callgsubr
          endchar
        </CharString>
        <CharString name="Edieresis">
          -17 callsubr
          94 152 hstemhm
          124 152 -146 150 74 152 hintmask 00000000
          hintmask 11100100
          -103 callgsubr
          hintmask 00011010
          -390 670 -104 callsubr
        </CharString>
        <CharString name="Edotaccent">
          -17 callsubr
          90 160 hstemhm
          -19 callgsubr
          -25 160 hintmask 00000000
          hintmask 11101000
          -103 callgsubr
          hintmask 00010100
          -259 10 callgsubr
          endchar
        </CharString>
        <CharString name="Egrave">
          -17 callsubr
          80 -21 206 -20 hstemhm
          130 -33 callsubr
          hintmask 11100100
          -103 callgsubr
          hintmask 00011000
          -268 765 -99 callgsubr
        </CharString>
        <CharString name="Emacron">
          -17 callsubr
          112 88 hstemhm
          130 -33 callsubr
          hintmask 11101000
          -103 callgsubr
          hintmask 00010000
          -326 700 -47 callsubr
        </CharString>
        <CharString name="Eng">
          103 -265 60 205 42 callgsubr
          120 70 329 131 -70 70 hintmask 00000000
          hintmask 11111000
          60 hmoveto
          190 40 -60 552 hlineto
          302 -592 rlineto
          15 -30 12 -40 -36 vvcurveto
          -53 -25 -46 -78 -36 -42 17 20 -23 vhcurveto
          -22 -31 rlineto
          -38 37 62 -28 68 hhcurveto
          142 48 82 96 hvcurveto
          747 60 40 -190 -40 vlineto
          hintmask 11110100
          60 -523 hlineto
          -286 563 rlineto
          -234 31 callsubr
          hlineto
          endchar
        </CharString>
        <CharString name="Eogonek">
          -37 -238 59 179 40 18 -20 235 45 342 8 callsubr
          67 91 hintmask 00000000
          hintmask 10111110
          494 111 rmoveto
          hintmask 11011110
          -62 -14 -26 -9 -84 hhcurveto
          -90 233 230 45 -230 342 70 hlineto
          84 27 -9 -62 13 hvcurveto
          20 -99 rlineto
          39 hlineto
          27 168 rlineto
          42 -26 0 -35 vhcurveto
          -429 -33 callgsubr
          379 hlineto
          -25 -21 -28 callsubr
          8 8 rlineto
          11 hlineto
          -78 callsubr
          endchar
        </CharString>
        <CharString name="Eth">
          115 0 40 174 53 6 42 callsubr
          15 -20 hstemhm
          150 150 287 0 callsubr
          hintmask 11101110
          70 273 rmoveto
          80 -233 -80 -40 270 hlineto
          242 160 146 204 hvcurveto
          hintmask 11110110
          205 -160 145 -242 vhcurveto
          -270 -40 80 -342 -80 hlineto
          270 342 rmoveto
          -36 callgsubr
          233 150 45 -150 342 hlineto
          endchar
        </CharString>
        <CharString name="Euro">
          -17 -15 66 188 45 95 45 70 160 14 47 hstem
          95 155 199 160 vstem
          437 668 rmoveto
          27 25 -6 -10 21 hvcurveto
          -36 -8 -25 -32 -38 vvcurveto
          -43 37 -37 43 45 35 36 44 82 -103 59 -99 -184 -101 -125 -166 -22 vhcurveto
          -65 -45 60 -30 hlineto
          -22 1 -22 3 -21 vhcurveto
          -64 -45 72 hlineto
          -147 32 100 -107 151 hhcurveto
          121 61 63 71 48 hvcurveto
          -35 25 rlineto
          -42 -32 -47 -51 -92 hhcurveto
          -90 -48 77 111 -18 hvcurveto
          197 45 -203 hlineto
          -2 22 0 24 24 vvcurveto
          25 205 45 -203 vlineto
          136 11 47 108 127 hhcurveto
          endchar
        </CharString>
        <CharString name="F">
          -97 28 callgsubr
          vstem
          494 490 rmoveto
          39 hlineto
          27 168 rlineto
          42 -26 0 -35 vhcurveto
          -429 -33 callgsubr
          320 40 -110 233 210 45 -210 342 70 hlineto
          84 27 -9 -62 13 hvcurveto
          endchar
        </CharString>
        <CharString name="G">
          -26 callsubr
          36 callsubr
          -1 84 197 150 -106 94 hintmask 00000000
          hintmask 11111010
          -79 callsubr
          hintmask 11111001
          -64 callsubr
          -5 -37 36 -12 56 92 -72 callgsubr
          -223 -119 -164 -202 -156 78 -133 117 -52 vhcurveto
          -34 -88 rlineto
          hintmask 11110110
          -81 callsubr
          endchar
        </CharString>
        <CharString name="G.alt">
          33 -15 27 callsubr
          280 150 -106 94 hintmask 00000000
          hintmask 10111100
          -79 callsubr
          hintmask 10111010
          -64 callsubr
          -5 -37 36 -12 56 92 -72 callgsubr
          -223 -119 -164 -202 -201 131 -163 174 80 62 24 40 47 vhcurveto
          hintmask 01111100
          36 -49 rlineto
          55 318 -285 hlineto
          endchar
        </CharString>
        <CharString name="Gbreve">
          -26 callsubr
          54 101 90 19 callgsubr
          hintmask 1111001010000000
          -79 callsubr
          hintmask 1111001001000000
          -64 callsubr
          -5 -37 36 -12 56 92 -72 callgsubr
          -223 -119 -164 -202 -156 78 -133 117 -52 vhcurveto
          -34 -88 rlineto
          hintmask 1111000110000000
          -81 callsubr
          hintmask 0000110000000000
          -141 946 -98 callsubr
        </CharString>
        <CharString name="Gcircumflex">
          -26 callsubr
          65 -21 116 -21 111 19 callgsubr
          hintmask 1111000101000000
          -79 callsubr
          hintmask 1111000100100000
          -64 callsubr
          -5 -37 36 -12 56 92 -72 callgsubr
          -223 -119 -164 -202 -156 78 -133 117 -52 vhcurveto
          -34 -88 rlineto
          hintmask 1111000011000000
          -81 callsubr
          hintmask 0000111000000000
          29 869 -106 callgsubr
          endchar
        </CharString>
        <CharString name="Gdotaccent">
          -26 callsubr
          75 160 36 callsubr
          -1 84 12 160 25 150 -106 94 -43 callsubr
          hintmask 1111010010000000
          -79 callsubr
          hintmask 1111010001000000
          -64 callsubr
          -5 -37 36 -12 56 92 -72 callgsubr
          -223 -119 -164 -202 -156 78 -133 117 -52 vhcurveto
          -34 -88 rlineto
          hintmask 1111001010000000
          -81 callsubr
          hintmask 0000100100000000
          -55 885 rmoveto
          -90 callsubr
          endchar
        </CharString>
        <CharString name="H">
          143 28 callgsubr
          250 -8 callgsubr
          -38 callsubr
          endchar
        </CharString>
        <CharString name="Hbar">
          143 21 -21 500 -20 220 -20 hstem
          -19 callgsubr
          250 -8 callgsubr
          25 455 rmoveto
          105 -415 -3 callgsubr
          233 250 -233 -3 callgsubr
          415 95 45 -95 160 60 40 -270 -40 60 -160 -250 160 60 40 -270 -40 60 -160 -105 hlineto
          255 -182 rmoveto
          137 250 -137 vlineto
          endchar
        </CharString>
        <CharString name="Hcircumflex">
          143 9 callgsubr
          250 -33 callsubr
          hintmask 11100011
          -38 callsubr
          hintmask 00011100
          -271 814 -106 callgsubr
          endchar
        </CharString>
        <CharString name="I">
          -54 callgsubr
          hstem
          -19 callgsubr
          vstem
          -83 callsubr
          endchar
        </CharString>
        <CharString name="IJ">
          278 -15 47 -32 40 620 8 callsubr
          140 94 161 -33 callsubr
          hintmask 01110000
          -83 callsubr
          hintmask 10101100
          765 -40 -67 callsubr
          endchar
        </CharString>
        <CharString name="Iacute">
          -52 callsubr
          130 150 34 callsubr
          -83 callsubr
          hintmask 00110000
          234 265 -107 callsubr
        </CharString>
        <CharString name="Ibreve">
          -54 callgsubr
          69 101 90 -20 hstemhm
          130 150 34 callsubr
          -83 callsubr
          hintmask 00110000
          -21 231 -98 callsubr
        </CharString>
        <CharString name="Icircumflex">
          0 40 620 26 callsubr
          hintmask 00000000
          hintmask 11000100
          -83 callsubr
          hintmask 00111000
          149 154 -106 callgsubr
          endchar
        </CharString>
        <CharString name="Idieresis">
          -54 callgsubr
          94 152 hstemhm
          4 152 -26 150 -46 152 34 callsubr
          -83 callsubr
          hintmask 00110100
          -56 170 -104 callsubr
        </CharString>
        <CharString name="Idotaccent">
          -54 callgsubr
          90 160 hstemhm
          125 160 -155 150 34 callsubr
          -83 callsubr
          hintmask 00110000
          65 170 rmoveto
          -90 callsubr
          endchar
        </CharString>
        <CharString name="Igrave">
          -52 callsubr
          130 150 34 callsubr
          -83 callsubr
          hintmask 00110000
          76 265 -99 callgsubr
        </CharString>
        <CharString name="Imacron">
          -54 callgsubr
          112 88 hstemhm
          130 -33 callsubr
          hintmask 11010000
          -83 callsubr
          hintmask 00100000
          -2 200 -47 callsubr
        </CharString>
        <CharString name="Iogonek">
          -238 59 179 42 callgsubr
          100 91 -61 -33 callsubr
          hintmask 11110000
          213 hmoveto
          -26 -21 rlineto
          -40 -32 -47 -38 -91 callsubr
          54 54 hvcurveto
          8 8 rlineto
          89 40 hlineto
          hintmask 11101000
          -70 620 70 40 -290 -40 70 -620 -70 -40 hlineto
          endchar
        </CharString>
        <CharString name="Itilde">
          -54 callgsubr
          89 99 -25 99 hstemhm
          49 44 37 150 38 44 hintmask 00000000
          hintmask 11000100
          -83 callsubr
          hintmask 00011010
          294 109 -87 callgsubr
          hintmask 00101010
          -96 callgsubr
          hintmask 00011010
          -77 callsubr
        </CharString>
        <CharString name="J">
          -132 -15 47 628 40 hstem
          10 94 161 -8 callgsubr
          415 660 -67 callsubr
          endchar
        </CharString>
        <CharString name="Jcircumflex">
          -132 -15 47 628 18 callsubr
          10 94 161 -33 callsubr
          hintmask 11000110
          415 660 -67 callsubr
          hintmask 00111000
          -88 664 -106 callgsubr
          endchar
        </CharString>
        <CharString name="K">
          18 -15 68 -53 40 263 32 325 8 callsubr
          hintmask 00000000
          hintmask 01111000
          70 660 rmoveto
          22 callsubr
          263 hlineto
          55 -3 16 -13 11 -36 59 -194 rcurveline
          hintmask 10111000
          -55 callsubr
          endchar
        </CharString>
        <CharString name="L">
          -97 -54 callgsubr
          hstem
          -19 callgsubr
          vstem
          -82 callgsubr
          endchar
        </CharString>
        <CharString name="Lacute">
          -97 -52 callsubr
          130 150 34 callsubr
          -82 callgsubr
          hintmask 00110000
          213 265 -107 callsubr
        </CharString>
        <CharString name="Lcaron">
          -97 0 40 481 -21 160 40 90 -20 hstemhm
          -19 callgsubr
          106 -27 callsubr
          hintmask 00000000
          hintmask 10101000
          -82 callgsubr
          hintmask 01010100
          316 23 rmoveto
          hintmask 01010010
          -99 callsubr
          hintmask 01010100
          -58 callgsubr
        </CharString>
        <CharString name="Ldot">
          -97 0 40 295 154 171 8 callsubr
          74 154 hintmask 00000000
          hintmask 10110000
          -82 callgsubr
          hintmask 01001000
          284 -288 -2 callgsubr
          -62 callsubr
          -19 callsubr
        </CharString>
        <CharString name="Lslash">
          -97 0 40 274 -21 203 -20 184 40 hstem
          -19 callgsubr
          vstem
          53 293 rmoveto
          77 39 rlineto
          -292 -60 -40 429 -56 callsubr
          -20 -99 rlineto
          -62 -13 -27 -9 -84 hhcurveto
          -70 368 hlineto
          97 50 -19 38 -78 -40 rlineto
          204 60 40 -270 -40 60 -280 vlineto
          -96 -49 rlineto
          endchar
        </CharString>
        <CharString name="M">
          241 -54 callgsubr
          hstem
          97 57 497 149 vstem
          48 -50 callgsubr
          67 hlineto
          -35 -620 rlineto
          -60 -40 178 40 -58 hlineto
          28 494 163 -534 rlineto
          151 hlineto
          154 535 31 -495 rlineto
          -57 -40 268 40 -60 hlineto
          -36 620 rlineto
          68 40 -227 hlineto
          -172 -599 -182 599 rlineto
          -221 hlineto
          endchar
        </CharString>
        <CharString name="N">
          103 -54 callgsubr
          hstem
          120 70 390 70 vstem
          -82 callsubr
          endchar
        </CharString>
        <CharString name="Nacute">
          103 -52 callsubr
          120 70 390 70 -21 callsubr
          -82 callsubr
          hintmask 00110000
          444 925 -107 callsubr
        </CharString>
        <CharString name="Ncaron">
          103 24 callgsubr
          132 -21 95 -20 hstemhm
          120 70 390 70 hintmask 00000000
          hintmask 11000110
          -82 callsubr
          hintmask 00111000
          337 830 -102 callgsubr
        </CharString>
        <CharString name="Ntilde">
          103 -54 callgsubr
          89 99 -25 99 hstemhm
          120 70 51 44 225 44 26 70 hintmask 00000000
          hintmask 11001001
          -82 callsubr
          hintmask 00010110
          486 769 -88 callgsubr
        </CharString>
        <CharString name="O">
          -16 callsubr
          hstem
          -39 callgsubr
          vstem
          -104 callgsubr
          endchar
        </CharString>
        <CharString name="OE">
          306 -17 callgsubr
          -11 callsubr
          268 -8 callgsubr
          623 273 rmoveto
          230 45 -230 342 70 hlineto
          84 27 -9 -62 13 hvcurveto
          20 -99 rlineto
          39 hlineto
          27 168 rlineto
          42 -26 0 -35 vhcurveto
          -429 hlineto
          -243 -120 -157 -194 -193 120 -156 243 hvcurveto
          449 hlineto
          -78 callsubr
          -20 -89 rlineto
          -62 -14 -26 -9 -84 hhcurveto
          -90 hlineto
          -210 hmoveto
          -143 -65 144 165 167 65 144 143 hvcurveto
          -11 callgsubr
          hlineto
          endchar
        </CharString>
        <CharString name="Oacute">
          28 callsubr
          206 -20 hstemhm
          -39 callgsubr
          -21 callsubr
          -104 callgsubr
          hintmask 00110000
          69 297 -107 callsubr
        </CharString>
        <CharString name="Obreve">
          -16 callsubr
          54 101 90 -20 hstemhm
          -39 callgsubr
          -21 callsubr
          -104 callgsubr
          hintmask 00110000
          -166 263 -98 callsubr
        </CharString>
        <CharString name="Ocircumflex">
          28 callsubr
          116 -21 111 -20 hstemhm
          -39 callgsubr
          hintmask 00000000
          hintmask 11000110
          -104 callgsubr
          hintmask 00111000
          4 186 -106 callgsubr
          endchar
        </CharString>
        <CharString name="Odieresis">
          -16 callsubr
          79 152 36 callsubr
          -12 3 callsubr
          -12 0 callsubr
          hintmask 11010010
          -104 callgsubr
          hintmask 00101100
          -191 202 -104 callsubr
        </CharString>
        <CharString name="Ograve">
          28 callsubr
          206 -20 hstemhm
          -39 callgsubr
          -21 callsubr
          -104 callgsubr
          hintmask 00110000
          -89 297 -99 callgsubr
        </CharString>
        <CharString name="Ohungarumlaut">
          28 callsubr
          206 -20 hstemhm
          -39 callgsubr
          -21 callsubr
          -104 callgsubr
          hintmask 00110000
          -154 114 -91 callgsubr
        </CharString>
        <CharString name="Omacron">
          -16 callsubr
          97 88 hstemhm
          -39 callgsubr
          hintmask 00000000
          hintmask 11011000
          -104 callgsubr
          hintmask 00100000
          -147 232 -47 callsubr
        </CharString>
        <CharString name="Omega">
          -81 callgsubr
        </CharString>
        <CharString name="Oslash">
          101 -59 -21 65 -2 callsubr
          64 -76 callgsubr
          endchar
        </CharString>
        <CharString name="Oslashacute">
          101 -59 -21 86 -21 730 -20 105 -21 186 -76 callgsubr
          99 297 -107 callsubr
        </CharString>
        <CharString name="Otilde">
          -16 callsubr
          74 99 -25 99 36 callsubr
          22 44 225 44 23 0 callsubr
          hintmask 11001001
          -104 callgsubr
          hintmask 00010110
          148 141 -88 callgsubr
        </CharString>
        <CharString name="P">
          -9 0 40 200 40 380 40 hstem
          -19 callgsubr
          193 -8 callgsubr
          -65 callgsubr
          290 40 -80 200 10 hlineto
          189 144 49 181 181 -144 49 -189 hvcurveto
          -220 hlineto
          220 -40 rmoveto
          101 82 -65 -125 -125 -82 -65 -101 hvcurveto
          -10 380 hlineto
          endchar
        </CharString>
        <CharString name="Q">
          101 -197 68 322 68 407 47 hstem
          -39 callgsubr
          vstem
          383 715 rmoveto
          -222 -111 -164 -202 -194 103 -157 205 -12 hvcurveto
          7 -36 rlineto
          -92 17 47 -55 85 hhcurveto
          65 42 42 41 37 hvcurveto
          -27 24 rlineto
          -20 -22 -22 -19 -26 hhcurveto
          -35 -19 22 36 -6 hvcurveto
          -13 70 rlineto
          153 43 77 140 167 vvcurveto
          202 -111 164 -224 vhcurveto
          1 -47 rmoveto
          121 58 -152 -167 -116 -29 -109 -59 -55 hvcurveto
          -8 45 rlineto
          92 -17 -42 55 -75 hhcurveto
          -47 -37 -19 -26 -31 hvcurveto
          -9 41 -4 45 47 vvcurveto
          167 57 152 122 vhcurveto
          -110 -475 rmoveto
          28 23 -22 -36 6 hvcurveto
          18 -99 -57 16 -40 52 -23 71 rlinecurve
          12 16 15 6 14 hhcurveto
          endchar
        </CharString>
        <CharString name="R">
          11 callsubr
          10 callsubr
          hintmask 01111100
          -65 callgsubr
          290 40 -80 223 hlineto
          65 -1 17 -13 12 -38 47 -154 rcurveline
          hintmask 10111100
          -89 callsubr
          endchar
        </CharString>
        <CharString name="Racute">
          11 callsubr
          80 -21 206 -20 10 callsubr
          hintmask 01110011
          -65 callgsubr
          290 40 -80 223 hlineto
          65 -1 17 -13 12 -38 47 -154 rcurveline
          hintmask 10110011
          -89 callsubr
          hintmask 00001100
          136 305 -107 callsubr
        </CharString>
        <CharString name="Rcaron">
          11 callsubr
          80 -21 206 -20 10 callsubr
          hintmask 01110011
          -65 callgsubr
          290 40 -80 223 hlineto
          65 -1 17 -13 12 -38 47 -154 rcurveline
          hintmask 10110011
          -89 callsubr
          hintmask 00001100
          63 210 -102 callgsubr
        </CharString>
        <CharString name="S">
          -97 -12 callsubr
          -22 callsubr
          hintmask 00000000
          hintmask 11010100
          -95 callgsubr
          hintmask 11101000
          -50 callsubr
          endchar
        </CharString>
        <CharString name="Sacute">
          -97 -12 callsubr
          65 -21 206 -20 -22 callsubr
          hintmask 00000000
          hintmask 11000101
          -95 callgsubr
          hintmask 11001010
          -50 callsubr
          hintmask 00110000
          228 836 -107 callsubr
        </CharString>
        <CharString name="Scaron">
          -97 -12 callsubr
          65 -21 206 -20 -22 callsubr
          hintmask 00000000
          hintmask 11000101
          -95 callgsubr
          hintmask 11001010
          -50 callsubr
          hintmask 00110000
          142 741 -102 callgsubr
        </CharString>
        <CharString name="Scedilla">
          -97 -31 callsubr
          55 47 -32 -20 688 47 hstemhm
          56 83 -83 123 -12 82 61 87 8 120 -100 100 -43 callsubr
          hintmask 1010110101100000
          139 213 rmoveto
          -35 11 -48 -92 rlineto
          -7 -14 -4 -13 -12 vvcurveto
          -58 111 -42 96 -7 vhcurveto
          -37 -79 22 -17 rlineto
          49 24 -32 -31 -30 -23 -30 -41 -4 -7 1 1 -4 hvcurveto
          hintmask 0110111011100000
          11 8 7 12 15 vvcurveto
          -78 callgsubr
          hintmask 1011010101010000
          30 62 rlineto
          132 2 112 58 130 vvcurveto
          88 -57 66 -88 46 vhcurveto
          -127 67 rlineto
          -55 29 -19 49 43 vvcurveto
          47 31 58 85 62 68 -33 -64 vhcurveto
          -84 vlineto
          35 -11 48 92 rlineto
          7 14 4 13 12 vvcurveto
          62 -124 46 -100 -171 -68 -102 -98 -79 35 -68 93 -50 vhcurveto
          148 -79 rlineto
          hintmask 1010111011100000
          48 -26 25 -36 -39 vvcurveto
          hintmask 1011011011100000
          -63 -49 -43 -80 -84 -53 48 49 vhcurveto
          endchar
        </CharString>
        <CharString name="Scircumflex">
          -97 -12 callsubr
          65 -21 116 -21 111 -20 -22 callsubr
          -43 callsubr
          hintmask 1100001010000000
          -95 callgsubr
          hintmask 1100010100000000
          -50 callsubr
          hintmask 0011100000000000
          160 725 -106 callgsubr
          endchar
        </CharString>
        <CharString name="T">
          -47 -54 callgsubr
          hstem
          235 -8 callgsubr
          -75 callgsubr
          350 40 -13 callsubr
          endchar
        </CharString>
        <CharString name="Tbar">
          -47 0 40 207 -21 76 45 -43 -20 376 40 hstem
          235 -8 callgsubr
          123 302 rmoveto
          112 -262 -100 -40 350 40 -100 262 113 45 -113 313 16 callsubr
          20 -99 rlineto
          -70 callsubr
          -313 -112 hlineto
          endchar
        </CharString>
        <CharString name="Tcaron">
          -47 24 callgsubr
          132 -21 95 -20 hstemhm
          235 -33 callsubr
          hintmask 11000100
          -75 callgsubr
          350 40 -13 callsubr
          hintmask 00111000
          -213 281 -102 callgsubr
        </CharString>
        <CharString name="Thorn">
          6 0 40 90 40 360 40 90 40 hstem
          -19 callgsubr
          193 -8 callgsubr
          70 660 rmoveto
          22 callsubr
          90 10 hlineto
          189 144 47 173 173 -144 47 -189 hvcurveto
          -10 90 60 40 -270 hlineto
          220 -170 rmoveto
          101 82 -62 -118 -118 -82 -62 -101 hvcurveto
          -10 360 hlineto
          endchar
        </CharString>
        <CharString name="U">
          8 callgsubr
          hstem
          95 150 300 70 vstem
          -102 callsubr
          endchar
        </CharString>
        <CharString name="Uacute">
          33 -15 63 612 40 80 -21 206 -20 -29 callsubr
          hintmask 11001100
          -102 callsubr
          hintmask 00110000
          -61 265 -107 callsubr
        </CharString>
        <CharString name="Ubreve">
          8 callgsubr
          69 101 90 -20 -29 callsubr
          hintmask 11001100
          -102 callsubr
          hintmask 00110000
          -261 231 -98 callsubr
        </CharString>
        <CharString name="Ucircumflex">
          33 -15 63 612 40 80 -21 116 -21 111 -20 -29 callsubr
          hintmask 11000110
          -102 callsubr
          hintmask 00111000
          -111 154 -106 callgsubr
          endchar
        </CharString>
        <CharString name="Udieresis">
          8 callgsubr
          94 152 hstemhm
          95 150 -81 3 callsubr
          -1 70 hintmask 00000000
          hintmask 11010010
          -102 callsubr
          hintmask 00101100
          -321 170 -104 callsubr
        </CharString>
        <CharString name="Ugrave">
          33 -15 63 612 40 80 -21 206 -20 -29 callsubr
          hintmask 11001100
          -102 callsubr
          hintmask 00110000
          -204 265 -99 callgsubr
        </CharString>
        <CharString name="Uhungarumlaut">
          33 -15 63 612 40 80 -21 206 -20 -29 callsubr
          hintmask 11001100
          -102 callsubr
          hintmask 00110000
          -269 82 -91 callgsubr
        </CharString>
        <CharString name="Umacron">
          8 callgsubr
          112 88 -29 callsubr
          hintmask 11011000
          -102 callsubr
          hintmask 00100000
          -242 200 -47 callsubr
        </CharString>
        <CharString name="Uogonek">
          33 41 callgsubr
          63 -48 -20 680 40 hstemhm
          95 150 28 91 181 70 hintmask 00000000
          hintmask 10111110
          485 1 callgsubr
          -450 hlineto
          hintmask 11011110
          -110 -80 -52 -76 -74 -70 52 110 vhcurveto
          450 60 40 -270 -40 60 -418 vlineto
          -202 131 -55 131 vhcurveto
          10 hlineto
          -7 -6 rlineto
          -40 -32 -47 -38 -91 callsubr
          52 53 hvcurveto
          104 17 87 67 166 vvcurveto
          419 60 40 -190 vlineto
          endchar
        </CharString>
        <CharString name="Uring">
          8 callgsubr
          53 36 callgsubr
          hstemhm
          95 150 16 84 89 85 26 70 hintmask 00000000
          hintmask 11001001
          -102 callsubr
          hintmask 00110110
          -224 170 -85 callsubr
        </CharString>
        <CharString name="Utilde">
          8 callgsubr
          89 99 -25 99 hstemhm
          95 150 -12 44 225 44 -1 70 hintmask 00000000
          hintmask 11001001
          -102 callsubr
          hintmask 00010110
          53 109 -88 callgsubr
        </CharString>
        <CharString name="V">
          18 39 callgsubr
          hstemhm
          100 153 -138 156 296 58 hintmask 00000000
          hintmask 11010100
          7 callgsubr
          hintmask 10101100
          28 -435 rlineto
          -154 10 50 -86 153 hhcurveto
          207 90 219 210 194 -71 88 -35 15 hvcurveto
          3 -7 -8 1 -7 hhcurveto
          -10 -10 -2 -3 -10 hvcurveto
          -104 -35 6 -37 rlineto
          38 hlineto
          55 43 -7 -58 26 hvcurveto
          32 -71 4 -61 -51 vvcurveto
          -165 -70 -162 -133 17 callgsubr
          hintmask 11010100
          -34 callsubr
          hlineto
          endchar
        </CharString>
        <CharString name="W">
          390 -15 78 597 40 15 -37 callsubr
          hintmask 00000000
          hintmask 11010110
          7 callgsubr
          hintmask 10101110
          -95 callsubr
          hintmask 11010110
          -66 callsubr
          hintmask 11001110
          -20 callgsubr
          hvcurveto
          -34 callsubr
          hlineto
          endchar
        </CharString>
        <CharString name="Wacute">
          390 -15 78 597 40 15 -20 85 -21 206 -37 callsubr
          -43 callsubr
          hintmask 1100010110000000
          7 callgsubr
          hintmask 1010001110000000
          -95 callsubr
          hintmask 1100010110000000
          -66 callsubr
          hintmask 1100001110000000
          -20 callgsubr
          hvcurveto
          -34 callsubr
          hlineto
          hintmask 0001100000000000
          592 265 -107 callsubr
        </CharString>
        <CharString name="Wcircumflex">
          390 39 callgsubr
          85 -21 116 -21 111 -37 callsubr
          -43 callsubr
          hintmask 1100001011000000
          7 callgsubr
          hintmask 1010000111000000
          -95 callsubr
          hintmask 1100001011000000
          -66 callsubr
          hintmask 1100000111000000
          -20 callgsubr
          hvcurveto
          -34 callsubr
          hlineto
          hintmask 0001110000000000
          517 154 -106 callgsubr
          endchar
        </CharString>
        <CharString name="Wdieresis">
          390 39 callgsubr
          99 152 hstemhm
          101 152 -138 156 56 152 14 152 -88 152 230 58 -43 callsubr
          hintmask 1100100101000000
          7 callgsubr
          hintmask 1010010101000000
          -95 callsubr
          hintmask 1100100101000000
          -66 callsubr
          hintmask 1100010101000000
          -20 callgsubr
          hvcurveto
          -34 callsubr
          hlineto
          hintmask 0001001010000000
          302 170 -104 callsubr
        </CharString>
        <CharString name="Wgrave">
          390 -15 78 597 40 15 -20 85 -21 206 -37 callsubr
          -43 callsubr
          hintmask 1100010110000000
          7 callgsubr
          hintmask 1010001110000000
          -95 callsubr
          hintmask 1100010110000000
          -66 callsubr
          hintmask 1100001110000000
          -20 callgsubr
          hvcurveto
          -34 callsubr
          hlineto
          hintmask 0001100000000000
          434 265 -99 callgsubr
        </CharString>
        <CharString name="X">
          29 -15 68 -32 -21 660 40 hstemhm
          hintmask 00000000
          hintmask 10100000
          414 57 rmoveto
          -57 30 43 -15 59 hhcurveto
          65 55 32 41 35 hvcurveto
          -22 24 rlineto
          -20 -20 -25 -9 -18 -10 callgsubr
          10 35 -18 hvcurveto
          -150 285 187 277 rlineto
          50 40 -154 hlineto
          -117 -252 -132 252 rlineto
          -199 -40 53 hlineto
          177 -339 -190 -281 rlineto
          -50 hlineto
          hintmask 01100000
          -40 154 vlineto
          119 258 rlineto
          endchar
        </CharString>
        <CharString name="Y">
          -60 -54 callgsubr
          hstem
          235 -8 callgsubr
          -74 callsubr
          endchar
        </CharString>
        <CharString name="Yacute">
          -60 -52 callsubr
          235 150 34 callsubr
          -74 callsubr
          hintmask 00110000
          271 925 -107 callsubr
        </CharString>
        <CharString name="Ycircumflex">
          -60 0 40 620 18 callsubr
          235 -33 callsubr
          hintmask 11000100
          -74 callsubr
          hintmask 00111000
          182 814 -106 callgsubr
          endchar
        </CharString>
        <CharString name="Ydieresis">
          -13 -54 callgsubr
          94 152 hstemhm
          146 152 -62 150 -10 152 hintmask 00000000
          hintmask 11101000
          136 hmoveto
          350 40 -100 207 hlineto
          203 413 rlineto
          47 40 -151 hlineto
          -127 -377 -144 377 rlineto
          -200 -40 50 hlineto
          172 -410 rlineto
          -210 -100 vlineto
          hintmask 11110100
          240 830 rmoveto
          -42 34 -34 42 42 34 34 42 42 -34 34 -42 -42 -34 -34 -42 vhcurveto
          -230 hmoveto
          -42 34 -34 42 42 34 34 42 42 -34 34 -42 -42 -34 -34 -42 vhcurveto
          endchar
        </CharString>
        <CharString name="Ygrave">
          -60 -52 callsubr
          235 150 34 callsubr
          -74 callsubr
          hintmask 00110000
          99 925 -99 callgsubr
        </CharString>
        <CharString name="Z">
          -77 -54 callgsubr
          hstem
          -86 callgsubr
          endchar
        </CharString>
        <CharString name="Zacute">
          -77 -52 callsubr
          hintmask 00000000
          hintmask 11000000
          -86 callgsubr
          hintmask 00110000
          -70 765 -107 callsubr
        </CharString>
        <CharString name="Zcaron">
          -77 -52 callsubr
          hintmask 00000000
          hintmask 11000000
          -86 callgsubr
          hintmask 00110000
          -183 670 -102 callgsubr
        </CharString>
        <CharString name="Zdotaccent">
          -77 -54 callgsubr
          90 160 hstemhm
          245 160 hintmask 00000000
          hintmask 11000000
          -86 callgsubr
          hintmask 00110000
          -249 10 callgsubr
          endchar
        </CharString>
        <CharString name="a">
          43 -39 callsubr
          -6 callgsubr
          hintmask 11011000
          -18 callsubr
          hintmask 10111000
          -101 callgsubr
          hintmask 11011000
          -93 callgsubr
          endchar
        </CharString>
        <CharString name="aacute">
          28 -39 callsubr
          -55 callgsubr
          50 155 232 145 hintmask 00000000
          hintmask 11000110
          582 -45 callsubr
          hintmask 10100110
          -101 callgsubr
          hintmask 11000110
          -93 callgsubr
          hintmask 00011000
          249 515 -107 callsubr
        </CharString>
        <CharString name="abreve">
          43 -39 callsubr
          54 101 90 -20 -6 callgsubr
          hintmask 11000110
          -18 callsubr
          hintmask 10100110
          -101 callgsubr
          hintmask 11000110
          -93 callgsubr
          hintmask 00011000
          -31 481 -98 callsubr
        </CharString>
        <CharString name="acircumflex">
          43 -39 callsubr
          65 -21 206 -20 -6 callgsubr
          hintmask 11000110
          -18 callsubr
          hintmask 10100110
          -101 callgsubr
          hintmask 11000110
          -93 callgsubr
          hintmask 00011000
          119 404 -106 callgsubr
          endchar
        </CharString>
        <CharString name="acute">
          -296 580 3 callgsubr
          287 765 -107 callsubr
        </CharString>
        <CharString name="acute.case">
          -296 780 3 callgsubr
          287 965 -107 callsubr
        </CharString>
        <CharString name="adieresis">
          28 -39 callsubr
          79 152 36 callsubr
          -49 3 callsubr
          -101 145 hintmask 00000000
          hintmask 11001001
          582 -45 callsubr
          hintmask 10101001
          -101 callgsubr
          hintmask 11001001
          -93 callgsubr
          hintmask 00010110
          -49 420 -104 callsubr
        </CharString>
        <CharString name="ae">
          33 callsubr
          hstem
          55 145 190 137 43 callgsubr
          vstem
          -80 callgsubr
          endchar
        </CharString>
        <CharString name="aeacute">
          33 callsubr
          -55 callgsubr
          55 145 190 137 43 callgsubr
          -43 callsubr
          hintmask 1111001110000000
          -80 callgsubr
          hintmask 0000110000000000
          281 713 -107 callsubr
        </CharString>
        <CharString name="agrave">
          43 -39 callsubr
          65 -21 206 -20 -6 callgsubr
          hintmask 11000110
          -18 callsubr
          hintmask 10100110
          -101 callgsubr
          hintmask 11000110
          -93 callgsubr
          hintmask 00011000
          44 515 -99 callgsubr
        </CharString>
        <CharString name="amacron">
          43 -39 callsubr
          97 88 -6 callgsubr
          hintmask 11001100
          -18 callsubr
          hintmask 10101100
          -101 callgsubr
          hintmask 11001100
          -93 callgsubr
          hintmask 00010000
          -12 450 -47 callsubr
        </CharString>
        <CharString name="ampersand">
          -30 -15 71 228 45 339 47 hstemhm
          30 138 -20 128 196 94 hintmask 00000000
          hintmask 11110100
          30 143 rmoveto
          -87 53 -71 94 74 55 54 74 20 vhcurveto
          -116 54 41 -12 56 hhcurveto
          65 60 32 41 45 hvcurveto
          -61 callsubr
          -24 -21 12 33 -16 hvcurveto
          -91 186 rlineto
          146 45 -168 hlineto
          hintmask 11101100
          -78 157 -33 57 50 vvcurveto
          34 25 41 71 47 53 -33 -64 vhcurveto
          -84 vlineto
          35 -11 48 92 rlineto
          7 14 4 13 12 vvcurveto
          62 -107 46 -87 -147 -77 -57 -113 -64 27 -64 44 -88 vhcurveto
          -12 hlineto
          hintmask 11110100
          -117 -60 -82 -104 hvcurveto
          138 30 rmoveto
          64 21 47 49 vhcurveto
          4 hlineto
          56 -113 rlineto
          -63 -1 -21 -52 -48 hhcurveto
          -42 -18 53 64 hvcurveto
          endchar
        </CharString>
        <CharString name="aogonek">
          43 41 callgsubr
          57 16 -20 420 42 -42 57 30 callgsubr
          -86 91 hintmask 00000000
          hintmask 11010110
          -18 callsubr
          hintmask 11001110
          44 -30 -45 27 -62 hhcurveto
          -161 -84 -49 callgsubr
          74 -119 161 70 51 34 55 32 hvcurveto
          -57 14 37 -32 66 hhcurveto
          9 9 1 1 9 hvcurveto
          -9 -8 rlineto
          hintmask 10110101
          -48 callsubr
          -93 callgsubr
          endchar
        </CharString>
        <CharString name="apple">
          296 -114 101 -89 89 -76 92 3 -21 30 -21 83 40 243 57 76 93 -86 -20 29 77 -77 99 hstemhm
          120 100 -88 88 -76 91 77 74 -74 127 85 128 -75 75 75 93 -76 76 -76 88 hintmask 000000000000000000000000
          hintmask 001001110001001010100000
          576 -89 rmoveto
          1 3 4 0 3 8 7 -1 8 hhcurveto
          26 2 19 10 17 hvcurveto
          15 8 21 1 13 9 13 9 5 22 12 12 10 10 16 1 9 11 11 13 -1 24 8 14 rrcurveto
          10 17 24 1 28 10 -2 11 11 vvcurveto
          25 22 3 3 20 vhcurveto
          hintmask 100011110001001010001000
          14 -11 15 15 13 11 12 14 22 -24 14 25 vvcurveto
          hintmask 100011110001001010100000
          8 1 8 9 vvcurveto
          28 -25 3 -11 18 vhcurveto
          -6 10 5 22 -6 10 -11 19 -26 4 -14 13 -12 12 2 18 -13 9 -14 10 -16 -3 -15 8 rrcurveto
          10 -19 -2 26 -27 -10 -10 -3 -8 hhcurveto
          hintmask 100011101010011010100000
          -24 -7 25 -26 -14 -17 -12 -14 -13 -18 12 -13 -22 -8 -23 -25 -9 -9 2 -8 hhcurveto
          -25 -1 -7 -28 -17 -9 -16 -8 -22 2 -13 -11 -11 -10 -4 -21 -10 -10 -11 -11 -21 0 -8 -13 -7 -11 3 -21 -7 -11 rrcurveto
          -10 -17 -25 -6 -25 -8 1 -9 -8 vvcurveto
          hintmask 100011110001001010100000
          -19 -25 -21 -21 vvcurveto
          hintmask 100011110000101010100000
          -15 12 -10 -17 vvcurveto
          hintmask 001001110001001010100000
          -15 -12 -15 -14 -21 25 -15 -19 -8 -3 -8 -9 vvcurveto
          -26 26 -11 8 -12 vhcurveto
          11 -18 -7 -11 11 -18 10 -16 16 3 13 -11 13 -11 -1 -24 18 -11 16 -10 7 9 23 -12 rrcurveto
          -7 13 12 -29 26 7 9 2 8 hhcurveto
          hintmask 100011110001001010100000
          24 11 -25 20 hhcurveto
          hintmask 010011110001001010100000
          15 15 12 16 15 16 -10 15 hhcurveto
          hintmask 001001110001001010100000
          17 13 18 5 18 hvcurveto
          -26 92 rmoveto
          hintmask 100011110001001010100000
          -3 -13 -10 -13 -12 -11 -11 7 -11 hhcurveto
          hintmask 000101110001001010100000
          -12 -12 -9 -12 hhcurveto
          hintmask 001001110000011010100000
          2 -14 -7 16 -19 -5 -5 -1 -5 hhcurveto
          -19 -7 21 5 -11 hvcurveto
          -17 9 -5 -8 -11 8 -13 8 1 18 -10 8 -9 8 -12 -2 -7 11 -8 13 5 9 -8 13 rrcurveto
          -5 9 -20 7 19 5 2 6 5 vvcurveto
          hintmask 100011110001001010100000
          15 -17 11 15 11 8 11 11 12 -8 7 11 16 17 14 16 5 -1 6 5 vvcurveto
          19 19 4 7 13 vhcurveto
          5 8 -2 15 5 8 7 9 14 0 8 8 8 8 2 15 9 7 9 8 16 -2 11 6 rrcurveto
          6 13 4 21 19 6 5 -1 6 hhcurveto
          hintmask 100011101101001010100000
          19 7 17 16 10 12 -9 10 10 12 9 11 19 3 -18 19 hhcurveto
          hintmask 100011110001001010100000
          6 7 2 7 hhcurveto
          20 1 -19 -7 13 hvcurveto
          12 -7 11 4 10 -8 10 -7 -2 -13 9 -8 10 -10 19 -3 8 -13 4 -8 -3 -15 4 -8 rrcurveto
          8 -14 18 -1 -21 -6 -1 -6 -5 vvcurveto
          hintmask 100011110001001010010000
          -18 18 -11 -16 -9 -8 -10 -9 -11 8 -11 -10 vvcurveto
          -3 -14 -15 -3 -19 vvcurveto
          hintmask 001001110001000110100000
          -6 1 -7 -7 vvcurveto
          -24 -16 3 -8 -14 vhcurveto
          -6 -11 0 -17 -7 -10 -7 -8 -12 0 -7 -8 -8 -8 -4 -15 -10 -7 -9 -7 -16 -1 -10 -6 rrcurveto
          -5 -12 -1 -16 -20 -5 -5 1 -5 hhcurveto
          -3 -3 0 -1 -3 hvcurveto
          -68 414 rmoveto
          -94 -76 -76 -94 -94 76 -76 94 94 76 76 94 94 -76 76 -94 hvcurveto
          42 -125 rmoveto
          -175 -85 175 vlineto
          hintmask 100011110001001001100000
          -53 68 191 -68 hlineto
          endchar
        </CharString>
        <CharString name="approxequal">
          -107 201 61 -23 58 104 61 -23 58 hstemhm
          hintmask 00000000
          hintmask 10100000
          90 420 rmoveto
          -14 26 26 -5 27 hhcurveto
          hintmask 10010000
          -27 callgsubr
          hintmask 10100000
          12 callgsubr
          -260 vmoveto
          -14 26 26 -5 27 hhcurveto
          hintmask 01100000
          -27 callgsubr
          hintmask 10100000
          12 callgsubr
          endchar
        </CharString>
        <CharString name="aring">
          43 -39 callsubr
          38 36 callgsubr
          -51 callsubr
          -4 84 89 85 -22 145 -43 callsubr
          hintmask 1100010010000000
          -18 callsubr
          hintmask 1010010010000000
          -101 callgsubr
          hintmask 1100010010000000
          -93 callgsubr
          hintmask 0001101100000000
          -4 420 -85 callsubr
        </CharString>
        <CharString name="aringacute">
          43 -39 callsubr
          38 40 callsubr
          65 155 2 84 89 85 -85 165 -108 145 -43 callsubr
          hintmask 1100001000100000
          -18 callsubr
          hintmask 1010001000100000
          -101 callgsubr
          hintmask 1100001000100000
          -93 callgsubr
          hintmask 0001110110000000
          2 420 -43 callgsubr
          hintmask 0001110101000000
          -80 callsubr
        </CharString>
        <CharString name="asciicircum">
          -107 461 -21 260 -20 hstem
          245 700 rmoveto
          -150 -260 rlineto
          65 hlineto
          120 209 120 -209 rlineto
          65 hlineto
          -150 260 rlineto
          endchar
        </CharString>
        <CharString name="asciitilde">
          -107 301 61 -23 58 hstemhm
          hintmask 00000000
          hintmask 10000000
          90 320 rmoveto
          -14 26 26 -5 27 hhcurveto
          hintmask 01000000
          -27 callgsubr
          hintmask 10000000
          12 callgsubr
          endchar
        </CharString>
        <CharString name="asterisk">
          -90 326 -21 197 -20 21 138 124 -20 hstem
          220 138 vstem
          358 691 rmoveto
          36 -24 38 -45 -45 -24 -38 -36 -22 23 -54 19 -53 vhcurveto
          -8 -5 rlineto
          47 -62 -39 37 -32 hhcurveto
          -32 -39 -21 -48 -48 43 -21 47 26 36 2 1 35 hvcurveto
          3 -9 rlineto
          -76 -53 -48 -20 -52 vvcurveto
          -31 26 -36 41 66 4 57 103 31 vhcurveto
          9 hlineto
          -106 32 5 -54 66 hhcurveto
          40 26 36 31 52 -51 21 -75 52 hvcurveto
          3 8 rlineto
          -1 35 35 -2 28 hhcurveto
          46 44 22 49 46 -39 22 -31 -32 -41 -39 -46 -62 hvcurveto
          -7 5 rlineto
          19 53 24 55 22 vvcurveto
          endchar
        </CharString>
        <CharString name="at">
          387 -198 51 144 61 -36 62 331 61 169 51 hstemhm
          80 51 155 143 168 143 183 51 -43 callsubr
          hintmask 1101111110000000
          728 -92 rmoveto
          -35 -59 -68 -20 -74 hhcurveto
          -218 -178 178 218 218 178 178 218 218 178 -178 -218 -130 -69 -61 -51 -39 -24 30 55 hvcurveto
          322 -108 vlineto
          -24 -35 rlineto
          26 -23 -40 20 -49 hhcurveto
          -137 -73 -103 -123 hvcurveto
          hintmask 1011111110000000
          -124 64 -104 119 58 43 23 48 35 vhcurveto
          10 hlineto
          hintmask 1101111110000000
          -62 16 61 -34 66 hhcurveto
          100 116 77 175 245 -202 202 -245 -245 -202 -202 -245 -245 202 -202 245 81 77 23 39 66 hvcurveto
          -322 386 rmoveto
          97 26 68 61 30 36 -17 -30 15 vhcurveto
          -229 vlineto
          hintmask 1011111110000000
          -34 -15 -33 -21 -33 hhcurveto
          -61 -26 69 97 hvcurveto
          endchar
        </CharString>
        <CharString name="atilde">
          28 -39 callsubr
          74 99 -25 99 36 callsubr
          -14 44 202 145 -122 44 -43 callsubr
          hintmask 1100010100000000
          582 -45 callsubr
          hintmask 1010010100000000
          -101 callgsubr
          hintmask 1100010100000000
          -93 callgsubr
          hintmask 0000101010000000
          291 359 -87 callgsubr
          hintmask 0001001010000000
          -96 callgsubr
          hintmask 0000101010000000
          -77 callsubr
        </CharString>
        <CharString name="b">
          41 -15 57 -42 42 416 57 250 -16 callgsubr
          227 0 callsubr
          hintmask 01111100
          261 704 rmoveto
          -106 callsubr
          -717 150 56 vlineto
          hintmask 10111100
          -44 30 45 -27 62 -42 callsubr
        </CharString>
        <CharString name="backslash">
          24 callsubr
          290 hmoveto
          90 hlineto
          -260 700 rlineto
          -90 hlineto
          endchar
        </CharString>
        <CharString name="bar">
          15 callgsubr
          -900 110 hlineto
          endchar
        </CharString>
        <CharString name="barra">
          -197 273 45 hstem
          45 273 rmoveto
          380 45 -380 hlineto
          endchar
        </CharString>
        <CharString name="braceleft">
          38 callgsubr
          128 145 -116 116 cntrmask 11100000
          hintmask 00000000
          hintmask 11110000
          195 350 rmoveto
          45 13 33 53 70 vvcurveto
          118 vlineto
          13 callsubr
          hintmask 11101000
          -66 29 -72 -65 vvcurveto
          -55 -59 -1 -48 -1 vhcurveto
          -32 vlineto
          48 -1 59 -1 -55 vvcurveto
          hintmask 11110000
          -65 -29 -72 -66 vvcurveto
          15 callsubr
          118 vlineto
          70 -33 53 -45 13 vhcurveto
          endchar
        </CharString>
        <CharString name="braceright">
          38 callgsubr
          159 116 -116 145 cntrmask 11100000
          hintmask 00000000
          hintmask 11101000
          237 350 rmoveto
          -45 -13 -33 -53 -70 vvcurveto
          -118 vlineto
          26 callgsubr
          hintmask 11110000
          93 59 41 83 hvcurveto
          66 -29 72 65 vvcurveto
          55 59 1 48 1 vhcurveto
          32 vlineto
          hintmask 11101000
          -48 1 -59 1 55 65 29 72 66 vvcurveto
          16 callgsubr
          -118 vlineto
          -70 33 -53 45 -13 vhcurveto
          endchar
        </CharString>
        <CharString name="bracketleft">
          -233 -50 50 700 50 hstem
          130 145 vstem
          275 604 rmoveto
          13 callsubr
          -552 vlineto
          15 callsubr
          endchar
        </CharString>
        <CharString name="bracketright">
          -233 -50 50 700 50 hstem
          159 145 vstem
          159 96 rmoveto
          26 callgsubr
          93 59 41 83 hvcurveto
          552 vlineto
          16 callgsubr
          endchar
        </CharString>
        <CharString name="breve">
          -275 569 101 90 -20 hstem
          30 731 -98 callsubr
        </CharString>
        <CharString name="breve.case">
          -275 769 101 90 -20 hstem
          30 931 -98 callsubr
        </CharString>
        <CharString name="brokenbar">
          15 callgsubr
          -326 110 hlineto
          -248 vmoveto
          -110 -326 110 hlineto
          endchar
        </CharString>
        <CharString name="bullet">
          -369 276 178 hstem
          60 178 vstem
          60 365 rmoveto
          -49 40 -40 49 49 40 40 49 49 -40 40 -49 -49 -40 -40 -49 vhcurveto
          endchar
        </CharString>
        <CharString name="c">
          -105 -15 62 416 52 hstem
          65 155 142 160 vstem
          -94 callsubr
          -146 104 -119 162 vhcurveto
          endchar
        </CharString>
        <CharString name="cacute">
          -105 -15 62 416 52 22 callgsubr
          142 160 -21 callsubr
          -94 callsubr
          -146 104 -119 162 vhcurveto
          hintmask 00110000
          69 780 -107 callsubr
        </CharString>
        <CharString name="caron">
          -275 580 3 callgsubr
          192 670 -102 callgsubr
        </CharString>
        <CharString name="caron.case">
          -275 780 -21 132 -21 95 -20 hstem
          192 870 -102 callgsubr
        </CharString>
        <CharString name="ccaron">
          -105 -15 62 416 52 22 callgsubr
          142 160 -21 callsubr
          -94 callsubr
          -146 104 -119 162 vhcurveto
          hintmask 00110000
          -4 685 -102 callgsubr
        </CharString>
        <CharString name="ccedilla">
          -105 -31 callsubr
          55 62 -47 -20 483 52 -51 callsubr
          -24 82 61 87 -64 160 -43 callsubr
          hintmask 1011011001000000
          -94 callsubr
          -131 83 -110 134 -20 vhcurveto
          -38 -82 22 -17 rlineto
          hintmask 1010110110000000
          -65 callsubr
          hintmask 0110110110000000
          -78 callgsubr
          31 63 rlineto
          hintmask 1011011001000000
          -1 6 7 0 7 hhcurveto
          endchar
        </CharString>
        <CharString name="ccircumflex">
          -105 -15 62 416 52 22 callgsubr
          142 160 -21 callsubr
          -94 callsubr
          -146 104 -119 162 vhcurveto
          hintmask 00110000
          -16 669 -106 callgsubr
          endchar
        </CharString>
        <CharString name="cdotaccent">
          -105 -15 62 416 52 75 160 -51 callsubr
          31 160 -49 160 hintmask 00000000
          hintmask 11010100
          -94 callsubr
          -146 104 -119 162 vhcurveto
          hintmask 00101000
          -80 685 rmoveto
          -90 callsubr
          endchar
        </CharString>
        <CharString name="cedilla">
          -337 -31 callsubr
          70 -20 hstemhm
          70 82 61 87 hintmask 00000000
          hintmask 10111100
          192 hmoveto
          -30 hlineto
          -44 -93 22 -17 rlineto
          -65 callsubr
          hintmask 01111100
          -78 callgsubr
          endchar
        </CharString>
        <CharString name="cent">
          -17 -79 -21 185 62 416 52 185 -20 hstem
          89 155 79 30 49 144 vstem
          353 85 rmoveto
          92 74 51 68 42 hvcurveto
          -28 18 rlineto
          -36 -30 -52 -39 -71 hhcurveto
          -10 -9 1 2 -8 hvcurveto
          410 vlineto
          2 8 9 1 10 hhcurveto
          30 26 -7 -12 22 hvcurveto
          -33 -7 -23 -29 -34 vvcurveto
          -40 32 -32 40 40 32 32 40 94 -117 47 -76 vhcurveto
          185 -30 -187 vlineto
          -143 -14 -91 -113 -136 vvcurveto
          -136 90 -113 144 -15 vhcurveto
          -186 30 vlineto
          -109 450 rmoveto
          90 25 77 54 31 vhcurveto
          -387 vlineto
          -54 29 -25 74 86 vvcurveto
          endchar
        </CharString>
        <CharString name="circumflex">
          -275 580 3 callgsubr
          200 654 -106 callgsubr
          endchar
        </CharString>
        <CharString name="circumflex.case">
          -275 780 -21 116 -21 111 -20 hstem
          200 854 -106 callgsubr
          endchar
        </CharString>
        <CharString name="colon">
          -393 -15 154 206 154 hstemhm
          60 154 hintmask 00000000
          hintmask 10100000
          60 -47 callgsubr
          hintmask 01100000
          5 callsubr
        </CharString>
        <CharString name="comma">
          -58 callsubr
        </CharString>
        <CharString name="commaaccent">
          -367 -49 callsubr
          hstemhm
          83 -27 callsubr
          34 callgsubr
          83 -121 rmoveto
          hintmask 11010000
          -99 callsubr
          hintmask 11100000
          -58 callgsubr
        </CharString>
        <CharString name="copyright">
          145 131 38 80 51 352 40 77 38 hstem
          68 38 107 104 389 38 vstem
          415 652 rmoveto
          46 29 -25 -26 -7 0 -8 -2 -10 hvcurveto
          -5 -44 29 -9 38 73 rlineto
          4 9 3 9 8 vvcurveto
          39 -80 31 -62 -131 -71 -100 -123 -121 77 -99 115 83 44 50 54 34 vhcurveto
          -29 21 rlineto
          -33 -23 -33 -41 -62 hhcurveto
          -68 -34 76 96 97 30 83 68 hvcurveto
          -309 -183 -25 callsubr
          -38 hmoveto
          -26 callgsubr
        </CharString>
        <CharString name="currency">
          -17 110 -21 54 72 268 72 56 -20 hstem
          119 72 268 72 vstem
          112 89 rmoveto
          91 91 rlineto
          -24 33 41 -13 48 hhcurveto
          48 41 14 23 33 hvcurveto
          91 -91 48 48 -91 91 rlineto
          23 34 13 42 46 vvcurveto
          45 -13 42 -24 34 vhcurveto
          92 92 -48 48 -92 -92 rlineto
          22 -33 -41 14 -47 hhcurveto
          -48 -41 -14 -22 -32 hvcurveto
          -92 92 -48 -48 92 -92 rlineto
          -24 -34 -13 -42 -45 vvcurveto
          -45 13 -42 23 -35 vhcurveto
          -91 -91 rlineto
          127 213 rmoveto
          73 53 60 81 82 52 -60 -73 -74 -52 -61 -82 -81 -53 61 74 vhcurveto
          endchar
        </CharString>
        <CharString name="d">
          43 -15 57 416 57 250 44 callgsubr
          -70 callgsubr
          endchar
        </CharString>
        <CharString name="dagger">
          -86 -61 -21 516 142 189 -20 hstemhm
          219 96 -96 143 -96 49 hintmask 00000000
          hintmask 11100100
          14 callgsubr
          38 62 29 17 65 hvcurveto
          hintmask 11101000
          -18 -201 -25 -201 -93 vvcurveto
          -33 26 -34 45 46 26 34 33 93 -26 201 -17 201 vhcurveto
          -17 64 63 -29 38 23 callgsubr
          hvcurveto
          hintmask 11110000
          -39 -64 -30 -17 -66 hvcurveto
          hintmask 11101000
          27 callgsubr
          vhcurveto
          hintmask 11100100
          -39 30 -64 17 -66 vhcurveto
          endchar
        </CharString>
        <CharString name="daggerdbl">
          -86 -61 -21 189 142 185 142 189 -20 hstem
          219 143 vstem
          14 callgsubr
          37 59 27 17 62 hvcurveto
          -29 -137 29 -136 rlineto
          17 -62 -59 27 -37 hhcurveto
          -32 -35 -25 -46 -46 35 -25 32 39 64 30 17 66 hvcurveto
          -17 -66 -30 -64 -39 vvcurveto
          -33 26 -34 45 46 26 34 33 39 -30 64 -17 66 vhcurveto
          -17 66 64 -30 39 23 callgsubr
          -37 -59 -27 -17 -62 hvcurveto
          29 136 -29 137 rlineto
          -17 62 59 -27 37 23 callgsubr
          -39 -64 -30 -17 -66 hvcurveto
          27 callgsubr
          -39 30 -64 17 -66 vhcurveto
          endchar
        </CharString>
        <CharString name="dcaron">
          43 -15 57 416 57 6 -21 265 -20 45 -20 30 callgsubr
          65 -27 callsubr
          -43 callsubr
          hintmask 1101011000000000
          -70 callgsubr
          hintmask 0010100100000000
          442 473 rmoveto
          hintmask 0010100010000000
          -99 callsubr
          hintmask 0010100100000000
          -58 callgsubr
        </CharString>
        <CharString name="dcroat">
          43 -15 57 416 57 53 45 152 44 callgsubr
          330 568 rmoveto
          117 -124 hlineto
          44 -30 -45 27 -62 hhcurveto
          -161 -84 -49 callgsubr
          74 -119 161 70 51 34 55 32 hvcurveto
          -57 14 37 -32 66 -9 callsubr
          -23 -14 callgsubr
          -21 -60 callgsubr
          -28 -19 22 36 hvcurveto
          457 113 45 -113 91 vlineto
          -106 callsubr
          -104 -117 vlineto
          -110 -363 -92 callgsubr
          endchar
        </CharString>
        <CharString name="degree">
          44 callsubr
          87 202 85 -8 callsubr
          87 hmoveto
          81 30 65 71 71 30 -65 -81 -81 -30 -66 -71 -71 -30 66 81 vhcurveto
          endchar
        </CharString>
        <CharString name="dieresis">
          -177 594 152 hstem
          54 3 callsubr
          vstem
          54 670 -104 callsubr
        </CharString>
        <CharString name="dieresis.case">
          -177 -15 68 697 -20 hstemhm
          hintmask 00000000
          hintmask 11000000
          54 870 -104 callsubr
        </CharString>
        <CharString name="divide">
          -107 117 123 80 60 80 123 hstemhm
          218 123 hintmask 00000000
          hintmask 01000000
          90 320 rmoveto
          7 callsubr
          hintmask 00110000
          128 142 rmoveto
          18 callgsubr
          hintmask 10010000
          -343 vmoveto
          18 callgsubr
          endchar
        </CharString>
        <CharString name="dollar">
          -17 -79 -21 86 46 470 -20 186 47 85 -20 hstemhm
          84 144 -131 131 72 30 68 144 -96 120 -43 callsubr
          hintmask 1111101110000000
          330 800 rmoveto
          -30 -87 hlineto
          -145 -13 -58 -94 -91 vvcurveto
          -79 35 -68 93 -50 vhcurveto
          75 -40 rlineto
          -246 vlineto
          -67 3 -43 15 -29 24 rrcurveto
          37 2 30 30 40 vvcurveto
          39 -32 33 -40 vhcurveto
          hintmask 1111110101000000
          -40 -32 -32 -40 -103 111 -52 105 -5 hvcurveto
          -86 30 85 vlineto
          128 4 108 58 128 vvcurveto
          88 -57 66 -88 46 vhcurveto
          -91 48 rlineto
          245 vlineto
          53 37 -10 -15 29 hvcurveto
          hintmask 1111110110000000
          -30 -9 -21 -27 -33 vvcurveto
          -39 32 -33 40 40 32 32 40 94 -115 47 -97 vhcurveto
          43 -476 rmoveto
          hintmask 1111110101000000
          48 -26 25 -36 -39 vvcurveto
          -60 -44 -41 -72 -5 vhcurveto
          230 vlineto
          -110 301 rmoveto
          39 22 48 58 14 vhcurveto
          -225 vlineto
          -6 3 rlineto
          -55 29 -19 49 43 vvcurveto
          endchar
        </CharString>
        <CharString name="dotaccent">
          -268 590 160 hstem
          131 160 vstem
          4 callsubr
          endchar
        </CharString>
        <CharString name="dotaccent.case">
          -268 790 43 callsubr
          870 rmoveto
          -90 callsubr
          endchar
        </CharString>
        <CharString name="dotlessi">
          6 callsubr
          hstem
          136 -8 callgsubr
          52 418 -100 callgsubr
          endchar
        </CharString>
        <CharString name="e">
          -23 callsubr
          hstem
          65 155 43 callgsubr
          vstem
          -105 callgsubr
          endchar
        </CharString>
        <CharString name="eacute">
          -23 callsubr
          22 callgsubr
          190 128 -21 callsubr
          -105 callgsubr
          hintmask 00110000
          131 534 -107 callsubr
        </CharString>
        <CharString name="ebreve">
          -23 callsubr
          54 101 90 2 callsubr
          190 128 -21 callsubr
          -105 callgsubr
          hintmask 00110000
          -112 500 -98 callsubr
        </CharString>
        <CharString name="ecaron">
          -23 callsubr
          22 callgsubr
          190 128 -21 callsubr
          -105 callgsubr
          hintmask 00110000
          50 439 -102 callgsubr
        </CharString>
        <CharString name="ecircumflex">
          -23 callsubr
          22 callgsubr
          190 128 -21 callsubr
          -105 callgsubr
          hintmask 00110000
          38 423 -106 callgsubr
          endchar
        </CharString>
        <CharString name="edieresis">
          -23 callsubr
          79 152 -51 callsubr
          -113 3 callsubr
          -79 35 callsubr
          hintmask 11010010
          -105 callgsubr
          hintmask 00101100
          -167 439 -104 callsubr
        </CharString>
        <CharString name="edotaccent">
          -23 callsubr
          75 160 -51 callsubr
          28 160 2 35 callsubr
          hintmask 11010100
          -105 callgsubr
          hintmask 00101000
          -26 439 rmoveto
          -90 callsubr
          endchar
        </CharString>
        <CharString name="egrave">
          -23 callsubr
          22 callgsubr
          190 128 -21 callsubr
          -105 callgsubr
          hintmask 00110000
          -25 534 -99 callgsubr
        </CharString>
        <CharString name="eight">
          -67 -15 42 646 42 hstemhm
          39 150 -130 130 222 130 -130 -33 callsubr
          hintmask 11011000
          541 530 rmoveto
          137 -134 48 -107 -116 -125 -52 -133 -76 54 -66 76 -33 vhcurveto
          hintmask 11100100
          -88 -32 -62 -68 -75 vvcurveto
          -143 143 -52 118 128 133 57 138 75 -62 68 -89 32 vhcurveto
          hintmask 11101000
          76 33 55 66 76 vvcurveto
          -130 -360 rmoveto
          -78 -41 -65 -70 -69 -42 64 79 73 32 55 59 27 vhcurveto
          87 -27 44 -55 -73 vvcurveto
          -5 370 rmoveto
          -78 -26 -60 -60 -21 vhcurveto
          -89 21 -37 60 78 vvcurveto
          65 34 68 72 72 34 -70 -63 vhcurveto
          endchar
        </CharString>
        <CharString name="eightinferior">
          -227 -179 37 369 37 hstemhm
          58 101 -89 89 119 89 -89 101 hintmask 00000000
          hintmask 11011000
          367 149 rmoveto
          84 -83 31 -66 -71 -77 -33 -82 -45 29 -36 40 -22 vhcurveto
          hintmask 11100100
          -46 -21 -35 -40 -43 vvcurveto
          -88 88 -33 72 79 82 36 85 43 -33 40 -47 21 vhcurveto
          hintmask 11101000
          39 22 29 37 44 vvcurveto
          -89 -213 rmoveto
          -43 -22 -35 -38 -36 -23 35 43 40 17 30 30 16 vhcurveto
          47 -15 25 -31 -40 vvcurveto
          -2 218 rmoveto
          -42 -16 -33 -31 -12 vhcurveto
          -48 11 -20 33 43 vvcurveto
          36 19 37 38 39 19 -38 -35 vhcurveto
          endchar
        </CharString>
        <CharString name="ellipsis">
          155 -15 154 hstem
          60 154 120 154 120 154 cntrmask 01110000
          60 -47 callgsubr
          274 hmoveto
          -41 callsubr
          -62 callsubr
          -30 callsubr
          274 hmoveto
          -41 callsubr
          -62 callsubr
          -19 callsubr
        </CharString>
        <CharString name="emacron">
          -23 callsubr
          97 88 -51 callsubr
          190 35 callsubr
          hintmask 11011000
          -105 callgsubr
          hintmask 00100000
          -93 469 -47 callsubr
        </CharString>
        <CharString name="emdash">
          333 315 60 hstem
          315 vmoveto
          1000 60 -1000 hlineto
          endchar
        </CharString>
        <CharString name="endash">
          -167 315 60 hstem
          315 vmoveto
          500 60 -500 hlineto
          endchar
        </CharString>
        <CharString name="eng">
          40 -265 60 226 -21 454 46 -46 61 -69 callgsubr
          hintmask 11011100
          594 368 rmoveto
          92 -59 55 -85 -81 -47 -18 -47 -50 vhcurveto
          hintmask 11101100
          -56 callgsubr
          14 -37 rlineto
          11 26 26 4 28 hhcurveto
          -460 150 357 vlineto
          61 56 36 47 36 31 -21 -44 vhcurveto
          -484 vlineto
          -73 callsubr
          hvcurveto
          endchar
        </CharString>
        <CharString name="eogonek">
          -70 41 callgsubr
          62 11 -20 423 54 -51 callsubr
          66 91 33 35 callsubr
          hintmask 10111110
          274 231 rmoveto
          2 -24 rlineto
          -5 21 20 -2 19 hhcurveto
          128 74 91 84 72 -65 68 -123 -186 -99 -119 -146 hvcurveto
          hintmask 11011110
          -136 96 -129 165 17 17 2 3 16 vhcurveto
          -13 -11 -28 callsubr
          60 60 17 16 14 17 12 19 rlinecurve
          -28 18 rlineto
          -36 -32 -55 -39 -76 hhcurveto
          -88 -43 91 112 144 66 67 47 54 23 -39 -46 -62 -43 -75 -93 -8 hvcurveto
          endchar
        </CharString>
        <CharString name="equal">
          -107 220 60 140 60 hstem
          90 220 rmoveto
          7 callsubr
          140 vmoveto
          7 callsubr
          endchar
        </CharString>
        <CharString name="eslash">
          -308 314 -21 203 -20 hstem
          27 293 rmoveto
          324 165 -19 38 -324 -165 rlineto
          endchar
        </CharString>
        <CharString name="estimated">
          179 -14 20 632 20 hstem
          69 130 450 128 vstem
          207 106 rmoveto
          -4 7 -4 5 8 vvcurveto
          184 vlineto
          3 1 1 3 vhcurveto
          574 8 hlineto
          186 -159 150 -195 -197 -157 -150 -186 -186 157 -150 197 115 100 52 80 67 vhcurveto
          -52 hlineto
          -68 -56 -81 -44 -91 hhcurveto
          -87 -76 37 63 -55 hvcurveto
          -4 226 rmoveto
          -3 -1 2 4 hvcurveto
          180 vlineto
          8 4 7 4 7 vhcurveto
          60 56 75 38 87 hhcurveto
          83 75 -35 -59 56 hvcurveto
          7 -7 3 -7 -8 vvcurveto
          -184 vlineto
          -4 -2 -2 -4 vhcurveto
          endchar
        </CharString>
        <CharString name="eth">
          6 -15 42 411 47 83 -21 168 50 -15 -20 hstemhm
          70 145 232 143 hintmask 00000000
          hintmask 11101110
          274 547 rmoveto
          124 63 26 -51 15 -65 9 -63 rlinecurve
          -10 -4 rlineto
          41 -30 -42 17 -56 hhcurveto
          -136 -104 -92 -158 -138 100 -112 155 166 99 111 197 140 -33 134 -69 89 hvcurveto
          110 56 -19 38 -120 -61 rlineto
          hintmask 11110110
          47 -49 -62 29 -77 hhcurveto
          -62 -55 -18 -26 -46 hvcurveto
          25 -74 rlineto
          36 38 45 22 54 hhcurveto
          44 34 -23 -36 27 hvcurveto
          -120 -61 rlineto
          -40 -350 rmoveto
          111 34 92 77 84 37 -92 -111 -115 -37 -93 -84 -77 -34 93 115 vhcurveto
          endchar
        </CharString>
        <CharString name="exclam">
          -309 -15 154 576 -20 hstem
          102 154 vstem
          102 -47 callgsubr
          104 141 rmoveto
          19 171 33 189 78 vvcurveto
          36 -28 38 -51 -51 -28 -38 -36 -78 33 -189 19 -171 vhcurveto
          endchar
        </CharString>
        <CharString name="exclamdown">
          -309 -215 20 556 154 hstem
          102 154 vstem
          102 438 -2 callgsubr
          -62 callsubr
          -30 callsubr
          50 -141 rmoveto
          -19 -171 -33 -189 -78 vvcurveto
          -36 28 -38 51 51 28 38 36 78 -33 189 -19 171 vhcurveto
          endchar
        </CharString>
        <CharString name="f">
          -243 -111 -21 577 41 219 60 hstem
          121 -8 callgsubr
          39 445 rmoveto
          82 -577 150 577 113 41 -113 109 hlineto
          -41 callgsubr
          -101 -82 vlineto
          endchar
        </CharString>
        <CharString name="fi">
          156 -111 -21 117 68 392 41 -41 70 75 160 -45 60 hstemhm
          121 150 289 -33 callsubr
          hintmask 11101011
          271 -132 rmoveto
          577 83 vlineto
          105 65 13 9 36 hvcurveto
          -335 vlineto
          -107 callgsubr
          323 vlineto
          hintmask 11011011
          65 -45 16 -49 vhcurveto
          hintmask 11100111
          -68 -37 -29 -157 hhcurveto
          -83 109 hlineto
          -41 callgsubr
          -101 -82 -41 82 -577 vlineto
          434 802 rmoveto
          hintmask 11101011
          -90 callsubr
          endchar
        </CharString>
        <CharString name="five">
          -67 -15 52 326 52 203 82 hstemhm
          61 160 -112 57 227 0 callsubr
          hintmask 11101100
          121 700 rmoveto
          -23 -336 25 -29 rlineto
          17 25 35 11 44 hhcurveto
          115 51 -82 -81 -80 -51 -83 -115 -24 -22 4 8 -18 hvcurveto
          hintmask 11110100
          1 callsubr
          97 118 119 -112 96 -174 -28 -40 -7 -13 -36 vhcurveto
          16 223 rlineto
          136 hlineto
          84 35 -20 -62 13 hvcurveto
          9 -46 rlineto
          39 hlineto
          27 168 rlineto
          42 -26 0 -35 vhcurveto
          endchar
        </CharString>
        <CharString name="fiveinferior">
          -227 -179 42 -42 143 80 43 108 60 hstemhm
          69 106 -78 42 126 103 hintmask 00000000
          hintmask 10111010
          104 255 rmoveto
          -13 -207 19 -21 rlineto
          9 16 21 8 25 hhcurveto
          64 29 -45 -45 -44 -29 -47 -64 -6 -8 1 1 -6 hvcurveto
          15 10 8 16 20 vvcurveto
          hintmask 01111010
          27 -24 26 -29 -29 -24 -25 -28 -60 69 -30 68 98 64 60 73 73 -68 60 -107 vhcurveto
          hintmask 10110110
          -15 -20 -3 -6 -19 hvcurveto
          3 41 1 35 3 41 rrcurveto
          75 hlineto
          46 19 -11 -33 7 hvcurveto
          7 -32 rlineto
          33 hlineto
          16 104 rlineto
          32 -17 0 -24 vhcurveto
          endchar
        </CharString>
        <CharString name="fl">
          131 -111 -21 117 68 652 60 hstem
          121 150 264 -8 callgsubr
          39 445 rmoveto
          82 -577 150 577 113 41 -113 109 hlineto
          82 34 28 50 36 37 -17 -20 23 vhcurveto
          24 26 28 15 32 8 -83 callgsubr
          -54 -49 -17 -26 -37 vhcurveto
          26 -37 -50 17 -53 hhcurveto
          -142 -48 -82 -96 hvcurveto
          -101 -82 vlineto
          endchar
        </CharString>
        <CharString name="florin">
          -68 -265 60 514 45 140 160 14 47 hstemhm
          157 150 -120 150 82 160 hintmask 00000000
          hintmask 11110110
          68 309 rmoveto
          97 hlineto
          9 -135 13 -135 -134 vvcurveto
          -73 callsubr
          132 -13 132 -9 132 hvcurveto
          173 45 -176 hlineto
          hintmask 11111010
          -3 57 -2 57 57 vvcurveto
          96 42 47 68 26 23 -6 -9 18 vhcurveto
          -38 -7 -27 -32 -40 vvcurveto
          -43 37 -37 43 45 35 36 44 vhcurveto
          3 vlineto
          80 -3 -102 58 -97 hhcurveto
          -163 -57 -92 -106 -55 2 -54 3 -54 hvcurveto
          -94 hlineto
          endchar
        </CharString>
        <CharString name="four">
          -67 0 40 119 50 306 -20 205 -20 hstemhm
          179 170 -25 -33 callsubr
          hintmask 11111000
          179 700 rmoveto
          -5 -148 -20 -213 -137 -130 rrcurveto
          -50 vlineto
          hintmask 11110100
          307 -119 -130 -40 400 40 -120 119 60 50 -60 306 -44 hlineto
          -14 -46 -36 -35 -56 -24 rrcurveto
          -201 -244 vlineto
          hintmask 11111000
          121 95 148 191 205 vvcurveto
          endchar
        </CharString>
        <CharString name="fourinferior">
          -227 -170 35 58 42 290 -20 hstemhm
          141 112 -27 101 hintmask 00000000
          hintmask 11110000
          141 255 12 callsubr
          hintmask 11101000
          -52 callgsubr
          hintmask 11110000
          19 callsubr
        </CharString>
        <CharString name="fraction">
          -197 24 callsubr
          450 -46 callsubr
          endchar
        </CharString>
        <CharString name="g">
          -47 -244 -21 133 132 95 42 336 42 67 -18 callgsubr
          hintmask 1111110010000000
          -100 callsubr
          hintmask 1111101100000000
          -60 callsubr
          endchar
        </CharString>
        <CharString name="gbreve">
          -38 callgsubr
          54 101 -88 -20 198 -18 callgsubr
          hintmask 1111010100100000
          -100 callsubr
          hintmask 1111010011000000
          -60 callsubr
          hintmask 0000101000000000
          -81 426 -98 callsubr
        </CharString>
        <CharString name="gcircumflex">
          -38 callgsubr
          65 -21 23 -20 203 -18 callgsubr
          hintmask 1111010100100000
          -100 callsubr
          hintmask 1111010011000000
          -60 callsubr
          hintmask 0000101000000000
          89 349 -106 callgsubr
          endchar
        </CharString>
        <CharString name="gdotaccent">
          21 callgsubr
          28 160 hstemhm
          80 75 -75 155 5 160 -3 148 -68 68 -43 callsubr
          hintmask 1111101000100000
          -100 callsubr
          hintmask 1111100101000000
          -60 callsubr
          hintmask 0000010010000000
          5 365 rmoveto
          -90 callsubr
          endchar
        </CharString>
        <CharString name="germandbls">
          -12 -15 52 -16 -21 445 41 179 50 hstemhm
          121 150 68 71 9 133 -62 -33 callsubr
          hintmask 01111110
          552 597 rmoveto
          63 -48 55 -147 -148 -88 -82 -144 vhcurveto
          -3 -82 -41 82 -445 150 499 vlineto
          120 37 46 48 39 24 -29 -39 vhcurveto
          -82 -80 -46 -80 vvcurveto
          hintmask 10111101
          -122 151 -31 -115 vvcurveto
          -49 -27 -35 -59 -27 -34 8 16 -28 vhcurveto
          -18 -31 rlineto
          -31 42 51 -14 62 hhcurveto
          124 64 55 100 hvcurveto
          147 -230 6 97 vvcurveto
          hintmask 10111110
          68 142 32 107 vvcurveto
          endchar
        </CharString>
        <CharString name="grave">
          -296 580 3 callgsubr
          84 765 -99 callgsubr
        </CharString>
        <CharString name="grave.case">
          -296 780 3 callgsubr
          84 965 -99 callgsubr
        </CharString>
        <CharString name="greater">
          -107 181 -21 380 -20 hstem
          470 380 -7 callsubr
        </CharString>
        <CharString name="greaterequal">
          0 callgsubr
          380 320 -7 callsubr
        </CharString>
        <CharString name="guillemotleft">
          -181 23 callsubr
          131 296 -57 callsubr
          200 8 -57 callsubr
          endchar
        </CharString>
        <CharString name="guillemotright">
          -181 23 callsubr
          355 288 -57 callgsubr
          -200 -8 -57 callgsubr
          endchar
        </CharString>
        <CharString name="guilsinglleft">
          -381 23 callsubr
          131 296 -57 callsubr
          endchar
        </CharString>
        <CharString name="guilsinglright">
          -381 23 callsubr
          155 288 -57 callgsubr
          endchar
        </CharString>
        <CharString name="h">
          38 callsubr
          hstemhm
          111 150 170 -33 callsubr
          hintmask 01111100
          261 704 rmoveto
          -106 callsubr
          -717 150 353 vlineto
          32 callsubr
          hintmask 10111100
          -29 callgsubr
          endchar
        </CharString>
        <CharString name="hbar">
          27 -15 68 -32 -21 408 102 -56 61 43 -21 31 45 2 -20 70 -20 120 -16 callgsubr
          170 150 -43 callsubr
          hintmask 0110110111100000
          1 568 rmoveto
          110 -568 150 353 hlineto
          hintmask 1001101111100000
          32 callsubr
          -29 callgsubr
          hintmask 0110110111100000
          121 120 45 -120 91 vlineto
          -106 callsubr
          -104 -110 vlineto
          endchar
        </CharString>
        <CharString name="hcircumflex">
          38 callsubr
          65 -21 206 -16 callgsubr
          170 -33 callsubr
          hintmask 01110011
          261 704 rmoveto
          -106 callsubr
          -717 150 353 vlineto
          32 callsubr
          hintmask 10110011
          -29 callgsubr
          hintmask 00001100
          -72 437 -106 callgsubr
          endchar
        </CharString>
        <CharString name="hungarumlaut">
          -181 580 3 callgsubr
          72 582 -91 callgsubr
        </CharString>
        <CharString name="hungarumlaut.case">
          -181 780 3 callgsubr
          72 782 -91 callgsubr
        </CharString>
        <CharString name="hyphen">
          -267 252 60 hstem
          50 252 rmoveto
          300 60 -300 hlineto
          endchar
        </CharString>
        <CharString name="i">
          6 callsubr
          95 160 hstem
          136 -8 callgsubr
          4 callsubr
          -79 -252 -100 callgsubr
          endchar
        </CharString>
        <CharString name="iacute">
          -268 -15 68 462 -10 callsubr
          136 150 34 callsubr
          52 418 -100 callgsubr
          hintmask 00110000
          244 316 -107 callsubr
        </CharString>
        <CharString name="ibreve">
          6 callsubr
          74 101 90 -20 hstemhm
          136 150 34 callsubr
          52 418 -100 callgsubr
          hintmask 00110000
          8 282 -98 callsubr
        </CharString>
        <CharString name="icircumflex">
          -268 -15 68 462 -10 callsubr
          136 150 34 callsubr
          52 418 -100 callgsubr
          hintmask 00110000
          178 205 -106 callgsubr
          endchar
        </CharString>
        <CharString name="idieresis">
          6 callsubr
          99 152 hstemhm
          9 152 -25 150 -47 152 34 callsubr
          52 418 -100 callgsubr
          hintmask 00110100
          -16 221 -104 callsubr
        </CharString>
        <CharString name="igrave">
          -268 -15 68 462 -10 callsubr
          136 150 34 callsubr
          52 418 -100 callgsubr
          hintmask 00110000
          105 316 -99 callgsubr
        </CharString>
        <CharString name="ij">
          115 -265 60 190 68 462 -20 95 160 hstemhm
          136 150 253 -33 callsubr
          hintmask 01111000
          4 callsubr
          -79 -252 -100 callgsubr
          hintmask 10110100
          664 5 -59 callsubr
        </CharString>
        <CharString name="imacron">
          -421 31 callgsubr
          117 88 hstemhm
          136 -33 callsubr
          hintmask 11010000
          52 418 -100 callgsubr
          hintmask 00100000
          251 vmoveto
          -88 294 88 vlineto
          endchar
        </CharString>
        <CharString name="infinity">
          113 108 116 -94 -21 367 114 1 -20 hstemhm
          30 42 636 42 hintmask 00000000
          hintmask 10101100
          205 476 rmoveto
          78 50 -38 -88 31 hvcurveto
          -89 -31 -50 -37 -78 hhcurveto
          -65 -68 40 86 86 70 40 63 hvcurveto
          185 -207 rmoveto
          -94 33 66 -67 76 hhcurveto
          137 48 134 107 116 -52 125 -133 -76 -66 -66 -94 -33 hvcurveto
          hintmask 01011100
          94 -33 -66 67 -76 hhcurveto
          -137 -48 -134 -107 -116 52 -125 133 76 66 66 94 33 hvcurveto
          185 -46 rmoveto
          -78 -50 38 88 -31 hvcurveto
          89 31 50 37 78 hhcurveto
          65 68 -40 -86 -86 -70 -40 -63 hvcurveto
          endchar
        </CharString>
        <CharString name="integral">
          -203 -265 60 861 60 hstem
          157 -8 callgsubr
          307 546 rmoveto
          -41 callgsubr
          -633 vlineto
          -82 -34 -28 -50 -36 -37 17 20 -23 vhcurveto
          -27 -31 rlineto
          -38 37 62 -28 68 hhcurveto
          142 48 82 96 hvcurveto
          endchar
        </CharString>
        <CharString name="iogonek">
          -268 41 callgsubr
          68 5 -20 477 -20 95 160 hstemhm
          136 150 -86 91 hintmask 00000000
          hintmask 11011100
          52 418 -64 callgsubr
          -335 vlineto
          -48 callgsubr
          9 9 1 1 9 vhcurveto
          -9 -8 rlineto
          hintmask 10111010
          -76 callsubr
          66 66 -18 24 rlineto
          hintmask 11011100
          -20 -24 -1 callgsubr
          -28 -19 22 36 hvcurveto
          323 vlineto
          65 -45 16 -93 callsubr
          106 221 rmoveto
          -40 callsubr
          vhcurveto
          hintmask 11011010
          44 36 36 44 44 -36 36 -44 -44 -36 -36 -44 hvcurveto
          endchar
        </CharString>
        <CharString name="itilde">
          6 callsubr
          94 99 -25 99 hstemhm
          43 44 49 150 26 44 hintmask 00000000
          hintmask 11000100
          52 418 -100 callgsubr
          hintmask 00011010
          323 160 -87 callgsubr
          hintmask 00101010
          -96 callgsubr
          hintmask 00011010
          -77 callsubr
        </CharString>
        <CharString name="j">
          -284 -265 60 720 -20 95 160 hstem
          140 -8 callgsubr
          290 454 -59 callsubr
        </CharString>
        <CharString name="j.alt">
          -284 -265 60 720 -20 hstem
          140 -8 callgsubr
          290 -96 callsubr
          -562 vlineto
          -73 callsubr
          hvcurveto
          endchar
        </CharString>
        <CharString name="jcircumflex">
          -284 -265 60 720 -10 callsubr
          140 -33 callsubr
          hintmask 00110000
          196 654 -106 callgsubr
          hintmask 11001000
          102 -200 rmoveto
          -106 callsubr
          -562 vlineto
          -73 callsubr
          hvcurveto
          endchar
        </CharString>
        <CharString name="k">
          -20 -15 -12 callgsubr
          61 250 -16 callgsubr
          170 140 hintmask 00000000
          hintmask 01111100
          261 704 rmoveto
          -106 callsubr
          -717 150 310 vlineto
          90 40 54 63 36 31 -21 -44 -58 -53 -64 -75 -18 vhcurveto
          75 -192 rlineto
          hintmask 10111100
          -63 callgsubr
          -66 -17 -53 -41 vhcurveto
          endchar
        </CharString>
        <CharString name="kgreenlandic">
          -7 -36 callsubr
          -45 callgsubr
          140 hintmask 00000000
          hintmask 01011100
          124 500 rmoveto
          -30 -33 -5 -13 -31 hvcurveto
          14 -37 rlineto
          11 26 26 4 28 hhcurveto
          -460 150 205 vlineto
          153 2 42 96 69 hhcurveto
          31 26 -21 -44 -58 -53 -64 -75 -18 hvcurveto
          75 -192 rlineto
          hintmask 10011100
          -63 callgsubr
          -67 -26 -83 -41 vhcurveto
          hintmask 10101100
          69 -10 -64 25 -75 hhcurveto
          endchar
        </CharString>
        <CharString name="l">
          -293 -15 68 712 -20 hstem
          111 -8 callgsubr
          -87 callsubr
          endchar
        </CharString>
        <CharString name="lacute">
          -293 -15 68 712 -20 65 -21 206 -16 callgsubr
          34 callsubr
          -87 callsubr
          hintmask 00110000
          256 296 -107 callsubr
        </CharString>
        <CharString name="lcaron">
          -261 -15 68 468 -21 265 -20 45 -16 callgsubr
          66 -27 callsubr
          hintmask 00000000
          hintmask 10101000
          -87 callsubr
          hintmask 01010100
          327 24 rmoveto
          hintmask 01010010
          -99 callsubr
          hintmask 01010100
          -58 callgsubr
        </CharString>
        <CharString name="ldot">
          -192 -15 68 282 154 276 -16 callgsubr
          54 154 hintmask 00000000
          hintmask 10110000
          -87 callsubr
          hintmask 01001000
          315 5 callgsubr
        </CharString>
        <CharString name="less">
          -107 181 -21 380 -20 hstem
          90 320 rmoveto
          -1 callsubr
        </CharString>
        <CharString name="lessequal">
          0 callgsubr
          260 vmoveto
          -1 callsubr
        </CharString>
        <CharString name="logicalnot">
          -107 188 -21 153 60 hstem
          416 54 vstem
          90 320 rmoveto
          326 -153 54 213 -380 hlineto
          endchar
        </CharString>
        <CharString name="lozenge">
          -117 24 callsubr
          354 hmoveto
          181 390 -181 310 rlineto
          -158 hlineto
          -181 -390 181 -310 rlineto
          33 645 rmoveto
          204 -345 -112 -246 -204 346 rlineto
          endchar
        </CharString>
        <CharString name="lslash">
          -293 -15 68 261 -21 203 -20 289 -20 hstem
          111 -8 callgsubr
          34 293 rmoveto
          77 39 rlineto
          -200 vlineto
          -107 callgsubr
          297 vlineto
          97 50 -19 38 -78 -40 rlineto
          248 vlineto
          -106 callsubr
          -337 vlineto
          -96 -49 rlineto
          endchar
        </CharString>
        <CharString name="m">
          340 -36 callsubr
          -46 callgsubr
          160 150 160 150 cntrmask 00001110
          hintmask 00000000
          hintmask 01101110
          -68 callsubr
          53 36 44 34 29 -21 -44 vhcurveto
          -389 150 357 vlineto
          61 53 36 44 34 29 -22 callgsubr
          hintmask 10011110
          -90 callgsubr
          -83 -45 -21 -57 -52 vhcurveto
          50 -22 -48 28 -60 hhcurveto
          -77 -44 -18 -47 -47 hvcurveto
          hintmask 10101110
          31 -42 -38 19 -68 hhcurveto
          -30 -33 -5 -13 -31 hvcurveto
          endchar
        </CharString>
        <CharString name="macron">
          -177 612 88 hstem
          98 700 -47 callsubr
        </CharString>
        <CharString name="macron.case">
          -177 812 88 hstem
          98 900 -47 callsubr
        </CharString>
        <CharString name="minus">
          -107 320 60 hstem
          90 320 rmoveto
          7 callsubr
          endchar
        </CharString>
        <CharString name="mu">
          -71 callsubr
        </CharString>
        <CharString name="multiply">
          -107 196 -21 350 -20 hstem
          147 175 rmoveto
          133 133 133 -133 42 42 -133 133 133 133 -42 42 -133 -133 -133 133 -42 -42 133 -133 -133 -133 rlineto
          endchar
        </CharString>
        <CharString name="n">
          40 -36 callsubr
          -69 callgsubr
          hintmask 01011100
          -68 callsubr
          56 36 47 -35 callgsubr
          hintmask 10011100
          -90 callgsubr
          -81 -47 -18 -47 -50 vhcurveto
          hintmask 10101100
          -56 callgsubr
          endchar
        </CharString>
        <CharString name="nacute">
          40 -36 callsubr
          65 -21 206 -63 callsubr
          hintmask 01010011
          -68 callsubr
          56 36 47 -35 callgsubr
          hintmask 10010011
          -90 callgsubr
          -81 -47 -18 -47 -50 vhcurveto
          hintmask 10100011
          -56 callgsubr
          hintmask 00001100
          417 283 -107 callsubr
        </CharString>
        <CharString name="napostrophe">
          40 -36 callsubr
          6 -21 290 -20 hstemhm
          -50 -27 callsubr
          40 150 170 150 -43 callsubr
          hintmask 0101000011000000
          -68 callsubr
          56 36 47 -35 callgsubr
          hintmask 1001000011000000
          -90 callgsubr
          -81 -47 -18 -47 -50 vhcurveto
          hintmask 1010000011000000
          -56 callgsubr
          hintmask 0000111000000000
          -80 241 rmoveto
          hintmask 0000110100000000
          -99 callsubr
          hintmask 0000111000000000
          -58 callgsubr
        </CharString>
        <CharString name="nbspace">
          -367 endchar
        </CharString>
        <CharString name="ncaron">
          40 -36 callsubr
          65 -21 206 -63 callsubr
          hintmask 01010011
          -68 callsubr
          56 36 47 -35 callgsubr
          hintmask 10010011
          -90 callgsubr
          -81 -47 -18 -47 -50 vhcurveto
          hintmask 10100011
          -56 callgsubr
          hintmask 00001100
          327 188 -102 callgsubr
        </CharString>
        <CharString name="nine">
          -67 -15 40 250 51 348 41 hstemhm
          67 124 -124 160 184 133 hintmask 00000000
          hintmask 11101100
          227 136 rmoveto
          43 -37 37 -43 -45 -35 -36 -44 -94 90 -57 109 165 113 149 227 205 -67 149 -178 -152 -91 -102 -124 -131 90 -83 110 65 56 24 53 33 vhcurveto
          -14 1 -24 -14 vvcurveto
          -190 -56 -85 -90 -37 -31 10 24 -26 vhcurveto
          32 10 24 30 37 vvcurveto
          73 190 rmoveto
          hintmask 11110100
          -78 -31 79 94 98 37 77 71 75 35 -84 -103 -89 -37 -72 -72 hvcurveto
          endchar
        </CharString>
        <CharString name="nineinferior">
          -227 -179 36 -36 149 22 42 193 37 hstemhm
          75 85 -85 106 97 90 hintmask 00000000
          hintmask 01110110
          181 -83 rmoveto
          27 -24 26 -29 -29 -24 -25 -28 -60 56 -36 68 101 68 90 138 124 -41 91 -110 -93 -55 -63 -77 -81 56 -51 68 33 30 10 24 21 vhcurveto
          -5 1 -5 -3 vvcurveto
          hintmask 10110110
          -108 -31 -48 -49 -18 -15 2 9 -11 vhcurveto
          15 10 12 18 21 vvcurveto
          37 117 rmoveto
          hintmask 10111010
          -42 -16 44 52 55 20 42 37 41 18 -46 -58 -49 -19 -40 -39 hvcurveto
          endchar
        </CharString>
        <CharString name="notequal">
          -107 -59 -21 300 60 140 60 299 -20 hstem
          421 779 rmoveto
          -50 hlineto
          -81 -299 rlineto
          -200 -60 184 hlineto
          -38 -140 rlineto
          -146 -60 130 hlineto
          -81 -300 rlineto
          49 hlineto
          81 300 rlineto
          201 60 -185 hlineto
          38 140 rlineto
          147 60 -130 hlineto
          endchar
        </CharString>
        <CharString name="ntilde">
          40 -36 callsubr
          74 9 callsubr
          hintmask 0101001010000000
          -68 callsubr
          56 36 47 -35 callgsubr
          hintmask 1001001010000000
          -90 callgsubr
          -81 -47 -18 -47 -50 vhcurveto
          hintmask 1010001010000000
          -56 callgsubr
          hintmask 0000010101000000
          472 127 -87 callgsubr
          hintmask 0000100101000000
          -96 callgsubr
          hintmask 0000010101000000
          -77 callsubr
        </CharString>
        <CharString name="numbersign">
          75 21 -21 220 60 140 60 220 -20 hstem
          114 420 rmoveto
          129 hlineto
          -44 -140 rlineto
          -130 hlineto
          -19 -60 rlineto
          130 hlineto
          -69 -220 rlineto
          60 hlineto
          69 220 rlineto
          180 hlineto
          -69 -220 rlineto
          60 hlineto
          69 220 rlineto
          130 hlineto
          19 60 rlineto
          -130 hlineto
          44 140 rlineto
          130 hlineto
          19 60 rlineto
          -130 hlineto
          69 220 rlineto
          -60 hlineto
          -69 -220 rlineto
          -180 hlineto
          69 220 rlineto
          -60 hlineto
          -69 -220 rlineto
          -130 hlineto
          171 -60 rmoveto
          180 hlineto
          -44 -140 rlineto
          -180 hlineto
          endchar
        </CharString>
        <CharString name="o">
          -23 callgsubr
          hstem
          65 155 222 153 vstem
          -101 callsubr
          endchar
        </CharString>
        <CharString name="oacute">
          -23 callgsubr
          22 callgsubr
          222 153 -21 callsubr
          -101 callsubr
          hintmask 00110000
          217 515 -107 callsubr
        </CharString>
        <CharString name="obreve">
          -23 callgsubr
          54 101 90 -20 -4 callgsubr
          -21 callsubr
          -101 callsubr
          hintmask 00110000
          -56 481 -98 callsubr
        </CharString>
        <CharString name="ocircumflex">
          -23 callgsubr
          22 callgsubr
          222 153 -21 callsubr
          -101 callsubr
          hintmask 00110000
          114 404 -106 callgsubr
          endchar
        </CharString>
        <CharString name="odieresis">
          -23 callgsubr
          79 152 -51 callsubr
          -81 3 callsubr
          -79 153 hintmask 00000000
          hintmask 11010010
          -101 callsubr
          hintmask 00101100
          -81 420 -104 callsubr
        </CharString>
        <CharString name="oe">
          307 -15 42 -42 62 414 54 -42 42 -51 callsubr
          227 143 197 35 callsubr
          hintmask 10101110
          651 231 rmoveto
          2 -24 rlineto
          -5 21 20 -2 19 hhcurveto
          128 74 91 84 72 -65 68 -123 -91 -69 -28 -46 -48 hvcurveto
          46 -46 -65 28 -78 hhcurveto
          -161 -104 -49 callgsubr
          104 -119 161 78 64 27 46 46 hvcurveto
          -45 45 62 -28 78 hhcurveto
          21 callsubr
          hintmask 01101110
          -36 -32 -55 -39 -76 hhcurveto
          -89 -49 86 117 144 71 67 49 54 23 -39 -46 -62 -43 -75 -93 -8 hvcurveto
          -431 19 rmoveto
          hintmask 10011110
          123 34 100 77 79 37 -95 -128 -128 -37 -95 -79 -77 -34 100 123 vhcurveto
          endchar
        </CharString>
        <CharString name="ogonek">
          -334 -238 59 237 -20 hstem
          50 91 vstem
          269 58 rmoveto
          -46 hlineto
          -96 -79 -28 callsubr
          endchar
        </CharString>
        <CharString name="ogonek.001">
          -334 -238 59 179 -20 hstem
          50 91 vstem
          163 hmoveto
          -26 -21 rlineto
          -40 -32 -47 -38 -91 callsubr
          54 54 hvcurveto
          8 8 rlineto
          endchar
        </CharString>
        <CharString name="ograve">
          -23 callgsubr
          22 callgsubr
          222 153 -21 callsubr
          -101 callsubr
          hintmask 00110000
          41 515 -99 callgsubr
        </CharString>
        <CharString name="ohungarumlaut">
          -23 callgsubr
          22 callgsubr
          222 153 -21 callsubr
          -101 callsubr
          hintmask 00110000
          -44 332 -91 callgsubr
        </CharString>
        <CharString name="omacron">
          -23 callgsubr
          97 88 -4 callgsubr
          hintmask 00000000
          hintmask 11011000
          -101 callsubr
          hintmask 00100000
          -37 450 -47 callsubr
        </CharString>
        <CharString name="one">
          -195 0 40 498 40 122 -20 hstem
          192 -8 callgsubr
          298 700 rmoveto
          -70 -60 -112 -52 -126 hhcurveto
          -40 vlineto
          69 66 15 24 57 hvcurveto
          -537 -150 -40 430 40 -130 660 vlineto
          endchar
        </CharString>
        <CharString name="onehalf">
          377 0 66 -45 -21 275 35 -19 143 -43 43 266 -20 hstemhm
          183 101 368 106 88 93 -43 callsubr
          hintmask 0100010000000000
          732 -46 callsubr
          hintmask 0010011000000000
          -93 700 -59 callgsubr
          hintmask 1001000110000000
          605 -591 rmoveto
          -32 -7 -19 -11 -46 hhcurveto
          -82 hlineto
          96 94 rlineto
          46 45 62 59 55 vvcurveto
          62 -56 53 -88 -77 -66 -34 -56 -28 24 -25 29 28 25 26 27 19 -9 15 -13 9 vhcurveto
          hintmask 1000100110000000
          2 8 11 2 12 hhcurveto
          46 33 -39 -52 -38 -17 -46 -42 -42 hvcurveto
          -141 -143 rlineto
          -31 257 vlineto
          23 18 0 31 hvcurveto
          -17 105 rlineto
          -32 hlineto
          endchar
        </CharString>
        <CharString name="oneinferior">
          -304 -170 37 callgsubr
          255 -59 callgsubr
          endchar
        </CharString>
        <CharString name="onequarter">
          377 0 35 -14 -21 93 42 140 35 115 -20 295 -20 hstemhm
          183 101 440 112 -27 101 -43 callsubr
          hintmask 0100010000000000
          732 -46 callsubr
          hintmask 0001011000000000
          -93 700 -59 callgsubr
          hintmask 1010100100000000
          440 -275 12 callsubr
          hintmask 1010100010000000
          -52 callgsubr
          hintmask 1010100100000000
          19 callsubr
        </CharString>
        <CharString name="onesuperior">
          -304 331 37 callgsubr
          756 -59 callgsubr
          endchar
        </CharString>
        <CharString name="ordfeminine">
          -90 341 51 273 50 -9 -20 hstemhm
          81 119 146 111 hintmask 00000000
          hintmask 10111000
          457 706 rmoveto
          -94 hlineto
          -20 -28 rlineto
          hintmask 11011000
          24 -21 -30 13 -37 hhcurveto
          -114 -60 -84 -102 -103 53 -85 114 41 37 24 34 19 hvcurveto
          8 hlineto
          -40 10 30 -18 40 hhcurveto
          45 37 26 31 35 hvcurveto
          -19 24 rlineto
          -15 -18 -19 -7 -10 hhcurveto
          -16 -11 13 21 hvcurveto
          hintmask 10111000
          -257 95 rmoveto
          hintmask 11011000
          80 21 56 50 50 25 -56 -80 -80 -25 -57 -50 -50 -21 57 80 vhcurveto
          endchar
        </CharString>
        <CharString name="ordmasculine">
          44 callsubr
          118 140 116 -8 callsubr
          118 hmoveto
          81 21 65 49 49 21 -65 -81 -81 -21 -66 -49 -49 -21 66 81 vhcurveto
          endchar
        </CharString>
        <CharString name="oslash">
          -7 -160 -21 166 42 446 42 163 -20 hstem
          65 155 222 153 vstem
          471 678 rmoveto
          -50 hlineto
          -45 -167 rlineto
          2 -15 -15 2 -16 hhcurveto
          -161 -104 -119 -146 -116 65 -99 107 -35 hvcurveto
          -48 -181 rlineto
          49 hlineto
          46 170 rlineto
          -2 15 15 -2 16 hhcurveto
          161 104 119 146 115 -65 99 -108 36 hvcurveto
          20 -250 rmoveto
          -123 -34 -100 -77 -13 -11 3 5 -11 vhcurveto
          107 395 rlineto
          27 -41 12 -65 -74 vvcurveto
          -222 hmoveto
          123 34 100 77 12 10 -3 -4 10 vhcurveto
          -106 -394 rlineto
          -26 41 -11 64 73 vvcurveto
          endchar
        </CharString>
        <CharString name="oslashacute">
          -7 -83 -21 32 16 41 42 446 42 42 15 8 -21 42 -20 184 -20 -4 callgsubr
          -43 callsubr
          hintmask 1111101111000000
          471 572 rmoveto
          -50 hlineto
          -23 -65 rlineto
          5 -22 -22 3 -24 hhcurveto
          -161 -104 -119 -146 -109 57 -93 95 -41 hvcurveto
          -28 -79 rlineto
          49 hlineto
          23 65 rlineto
          -5 22 23 -3 24 hhcurveto
          161 104 119 146 108 -57 94 -96 41 hvcurveto
          -243 vmoveto
          -123 -34 -100 -77 -20 -17 6 12 -14 vhcurveto
          133 367 rlineto
          19 -41 10 -57 -64 vvcurveto
          -222 hmoveto
          123 34 100 77 18 17 -6 -11 13 vhcurveto
          -132 -366 rlineto
          -19 41 -8 56 63 vvcurveto
          189 515 rmoveto
          -31 -18 -20 -30 -27 hvcurveto
          -119 -132 rlineto
          hintmask 1111011111000000
          21 -24 148 73 rlineto
          61 30 22 19 34 vvcurveto
          27 -24 23 -33 vhcurveto
          endchar
        </CharString>
        <CharString name="otilde">
          -23 callgsubr
          74 99 -25 99 -51 callsubr
          -47 44 225 44 -44 153 hintmask 00000000
          hintmask 11001001
          -101 callsubr
          hintmask 00010110
          258 359 -88 callgsubr
        </CharString>
        <CharString name="p">
          54 29 callgsubr
          42 -42 57 -46 callgsubr
          227 0 callsubr
          hintmask 11011100
          44 445 rmoveto
          11 26 26 4 28 hhcurveto
          -710 150 312 vlineto
          -47 31 46 -30 60 hhcurveto
          161 84 119 146 146 -74 119 -161 -60 -45 -25 -41 -33 hvcurveto
          hintmask 11101100
          32 -42 -49 19 -68 hhcurveto
          -30 -33 -5 -13 -31 hvcurveto
          471 -232 rmoveto
          -123 -35 -85 -78 -79 -40 85 123 123 40 85 79 78 35 -85 -123 vhcurveto
          endchar
        </CharString>
        <CharString name="paragraph">
          -119 0 40 675 -20 hstem
          264 144 vstem
          108 hmoveto
          370 40 -70 471 hlineto
          112 -80 92 -124 -124 -80 -92 -112 -112 80 -92 124 vhcurveto
          60 -267 -156 hlineto
          endchar
        </CharString>
        <CharString name="parenleft">
          -253 -50 50 700 50 hstem
          60 145 vstem
          205 351 rmoveto
          214 69 127 124 34 vhcurveto
          23 vlineto
          -197 -141 -126 -272 -272 141 -126 197 hvcurveto
          23 vlineto
          -124 34 -69 127 214 vvcurveto
          endchar
        </CharString>
        <CharString name="parenright">
          -253 -50 50 700 50 hstem
          209 145 vstem
          209 351 rmoveto
          -214 -69 -127 -124 -34 vhcurveto
          -23 vlineto
          197 141 126 272 272 -141 126 -197 hvcurveto
          -23 vlineto
          124 -34 69 -127 -214 vvcurveto
          endchar
        </CharString>
        <CharString name="partialdiff">
          6 -15 42 411 47 230 50 hstemhm
          74 137 240 154 -125 125 hintmask 00000000
          hintmask 11110100
          74 186 rmoveto
          -115 75 -86 132 198 126 168 286 183 -72 143 -167 -60 -57 -18 -26 -48 vhcurveto
          14 -54 rlineto
          30 42 48 18 52 hhcurveto
          95 28 -115 -124 -15 0 -15 -1 -15 hvcurveto
          -10 -4 rlineto
          41 -22 -38 17 -54 hhcurveto
          -167 -114 -151 -148 hvcurveto
          288 252 rmoveto
          hintmask 11111000
          63 26 -54 -75 -145 -68 -137 -94 -55 -23 51 74 90 39 196 112 hvcurveto
          endchar
        </CharString>
        <CharString name="percent">
          377 -9 37 -7 -21 266 37 94 37 238 37 -9 -20 hstemhm
          90 98 127 98 218 98 127 98 -43 callsubr
          hintmask 0100010000000000
          737 -46 callsubr
          hintmask 0010101100000000
          -97 709 -88 callsubr
          hintmask 1001000011000000
          540 -238 -37 callgsubr
        </CharString>
        <CharString name="period">
          -393 -15 154 hstem
          60 154 vstem
          60 -47 callgsubr
          endchar
        </CharString>
        <CharString name="periodcentered">
          -393 215 154 hstem
          60 154 vstem
          60 292 -2 callgsubr
          -62 callsubr
          -19 callsubr
        </CharString>
        <CharString name="perthousand">
          732 -9 37 -7 -21 266 37 94 37 238 37 -9 -20 hstemhm
          90 98 127 98 218 98 127 98 32 98 127 98 -43 callsubr
          hintmask 0100010000000000
          737 -46 callsubr
          hintmask 0010101100000000
          -97 709 -88 callsubr
          hintmask 1001000011000000
          540 -238 -88 callsubr
          hintmask 1001000000110000
          354 37 -37 callgsubr
        </CharString>
        <CharString name="pi">
          40 -15 68 -32 -21 460 40 hstemhm
          144 150 150 -33 callsubr
          hintmask 01111000
          124 hmoveto
          150 hlineto
          37 460 rlineto
          66 hlineto
          36 31 -21 -44 hvcurveto
          -263 vlineto
          hintmask 10111000
          -107 callgsubr
          242 vlineto
          45 -14 36 -24 25 vhcurveto
          117 41 -217 hlineto
          -6 hlineto
          -390 -40 101 hlineto
          endchar
        </CharString>
        <CharString name="plus">
          -107 181 -28 callgsubr
          endchar
        </CharString>
        <CharString name="plusminus">
          -107 0 60 121 -28 callgsubr
          -380 vmoveto
          7 callsubr
          endchar
        </CharString>
        <CharString name="product">
          73 21 -21 660 40 hstem
          -19 callgsubr
          180 -8 callgsubr
          70 1 callgsubr
          -660 150 660 180 -660 150 660 60 40 -600 hlineto
          endchar
        </CharString>
        <CharString name="q">
          30 29 callgsubr
          42 -42 57 -51 callsubr
          227 -33 callsubr
          hintmask 11101100
          597 -250 rmoveto
          750 -150 -56 vlineto
          hintmask 11011100
          44 -30 -45 27 -62 hhcurveto
          -161 -84 -49 callgsubr
          74 -119 161 65 49 30 49 33 hvcurveto
          -314 vlineto
          -227 500 -92 callgsubr
          endchar
        </CharString>
        <CharString name="question">
          -140 -15 154 524 52 hstemhm
          50 160 -45 154 23 135 hintmask 00000000
          hintmask 11101000
          215 203 rmoveto
          54 hlineto
          14 116 rlineto
          121 27 73 84 100 vvcurveto
          102 -84 83 -131 -103 -109 -46 -95 -44 35 -36 45 43 37 37 43 38 -26 31 -35 9 vhcurveto
          7 16 19 4 22 hhcurveto
          94 42 -73 -70 -66 -30 -85 -114 -20 hvcurveto
          hintmask 11011000
          -33 5 callgsubr
        </CharString>
        <CharString name="questiondown">
          -140 -215 52 524 154 hstemhm
          50 135 23 154 -45 160 hintmask 00000000
          hintmask 11101000
          312 297 rmoveto
          -54 hlineto
          -14 -116 rlineto
          -121 -27 -73 -84 -100 vvcurveto
          -102 84 -83 131 103 109 46 95 44 -35 36 -45 -43 -37 -37 -43 -38 26 -31 35 -9 vhcurveto
          -7 -16 -19 -4 -22 hhcurveto
          -94 -42 73 70 66 30 85 114 20 hvcurveto
          hintmask 11110000
          33 287 rmoveto
          43 -6 callsubr
          43 43 34 34 43 vhcurveto
          endchar
        </CharString>
        <CharString name="quotedbl">
          -155 480 -21 290 -20 hstem
          85 142 58 142 vstem
          180 475 rmoveto
          -32 callsubr
          248 hmoveto
          -32 callsubr
          endchar
        </CharString>
        <CharString name="quotedblbase">
          -173 -148 -21 50 20 238 -20 49 40 callgsubr
          66 6 callgsubr
          hintmask 10100000
          280 62 rmoveto
          -15 callsubr
          hintmask 01010110
          -84 callsubr
          hintmask 01010101
          -3 callsubr
          -220 hmoveto
          -15 callsubr
          hintmask 01011010
          -84 callsubr
          hintmask 01010101
          30 callsubr
        </CharString>
        <CharString name="quotedblleft">
          -173 33 callgsubr
          66 103 -103 154 hintmask 00000000
          hintmask 11011000
          214 534 rmoveto
          24 -10 21 -17 14 vhcurveto
          hintmask 11101000
          -44 callsubr
          hintmask 11010100
          43 34 34 43 hvcurveto
          220 hmoveto
          24 -10 21 -17 14 vhcurveto
          hintmask 11101000
          -44 callsubr
          hintmask 11100100
          43 34 34 43 hvcurveto
          endchar
        </CharString>
        <CharString name="quotedblright">
          -173 -148 -21 308 -20 388 20 267 40 callgsubr
          66 6 callgsubr
          hintmask 11000000
          280 688 rmoveto
          -15 callsubr
          hintmask 00110110
          -84 callsubr
          hintmask 00110101
          -3 callsubr
          -220 hmoveto
          -15 callsubr
          hintmask 00111010
          -84 callsubr
          hintmask 00110101
          30 callsubr
        </CharString>
        <CharString name="quoteleft">
          -393 33 callgsubr
          hintmask 00000000
          hintmask 11010000
          214 534 rmoveto
          24 -10 21 -17 14 vhcurveto
          hintmask 11100000
          -44 callsubr
          hintmask 11010000
          43 34 34 43 hvcurveto
          endchar
        </CharString>
        <CharString name="quoteright">
          -393 -148 -21 308 -20 388 20 267 21 hstemhm
          60 6 callgsubr
          hintmask 11000000
          60 688 rmoveto
          -15 callsubr
          hintmask 00111000
          -84 callsubr
          hintmask 00110100
          30 callsubr
        </CharString>
        <CharString name="quotesinglbase">
          -58 callsubr
        </CharString>
        <CharString name="quotesingle">
          -355 480 -21 290 -20 hstem
          85 142 vstem
          180 475 rmoveto
          -32 callsubr
          endchar
        </CharString>
        <CharString name="r">
          -131 -15 68 331 154 -23 -20 hstemhm
          10 154 109 -33 callsubr
          hintmask 10111000
          -25 callgsubr
          hintmask 11011000
          -86 callsubr
          hintmask 10111000
          35 -6 22 -24 vhcurveto
          endchar
        </CharString>
        <CharString name="racute">
          -131 -15 68 331 154 -23 -10 callsubr
          10 154 109 -33 callsubr
          hintmask 10100110
          -25 callgsubr
          hintmask 11000110
          -86 callsubr
          hintmask 10100110
          35 -6 22 -24 vhcurveto
          hintmask 00011000
          -31 250 -107 callsubr
        </CharString>
        <CharString name="radical">
          -62 24 callsubr
          22 250 rmoveto
          86 50 110 -300 rlineto
          158 hlineto
          191 700 rlineto
          -61 hlineto
          -166 -618 -118 335 -222 -128 rlineto
          endchar
        </CharString>
        <CharString name="rcaron">
          -131 -15 68 331 154 -23 -10 callsubr
          10 154 109 -33 callsubr
          hintmask 10100110
          -25 callgsubr
          hintmask 11000110
          -86 callsubr
          hintmask 10100110
          35 -6 22 -24 vhcurveto
          hintmask 00011000
          -124 155 -102 callgsubr
        </CharString>
        <CharString name="registered">
          145 131 38 89 35 354 36 86 38 hstemhm
          68 38 131 136 -100 100 102 101 130 38 -43 callsubr
          hintmask 1111110110000000
          106 469 -25 callsubr
          131 178 rmoveto
          hintmask 1111101110000000
          36 -354 hlineto
          hintmask 1111110110000000
          -36 -35 136 155 hlineto
          28 -2 10 -7 5 -17 29 -92 rcurveline
          -35 11 24 -11 38 hhcurveto
          39 38 22 27 31 hvcurveto
          -18 23 rlineto
          -14 -16 -12 -6 -10 hhcurveto
          -11 -9 5 18 -5 hvcurveto
          -18 59 -6 21 -11 15 -21 12 rlinecurve
          52 21 35 37 59 vvcurveto
          106 -89 29 -114 vhcurveto
          -136 hlineto
          136 -36 rmoveto
          57 45 -34 -65 -66 -45 -33 -57 hvcurveto
          -305 20 rmoveto
          -26 callgsubr
        </CharString>
        <CharString name="ring">
          -355 553 36 callgsubr
          hstem
          27 84 89 85 vstem
          27 670 -85 callsubr
        </CharString>
        <CharString name="ring.case">
          -355 753 36 callgsubr
          hstem
          27 84 89 85 vstem
          27 870 -85 callsubr
        </CharString>
        <CharString name="ringacute">
          -362 553 13 callgsubr
          670 -43 callgsubr
          hintmask 11110100
          -80 callsubr
        </CharString>
        <CharString name="ringacute.case">
          -362 753 13 callgsubr
          870 -43 callgsubr
          hintmask 11110100
          -80 callsubr
        </CharString>
        <CharString name="s">
          -193 -15 62 511 -13 callgsubr
          hintmask 11010000
          -84 callgsubr
          hintmask 11100000
          -75 callsubr
          endchar
        </CharString>
        <CharString name="sacute">
          -69 callsubr
          259 580 -107 callsubr
        </CharString>
        <CharString name="scaron">
          39 callsubr
          62 -21 206 -13 callgsubr
          hintmask 11000100
          -84 callgsubr
          hintmask 11001000
          -75 callsubr
          hintmask 00110000
          185 505 -102 callgsubr
        </CharString>
        <CharString name="scedilla">
          -193 -31 callsubr
          55 62 -47 -20 578 -20 hstemhm
          123 82 -54 154 -39 87 -64 155 -43 callsubr
          hintmask 1010111001000000
          70 163 rmoveto
          151 189 rlineto
          34 -50 34 -61 -81 vvcurveto
          hintmask 1011011010000000
          -84 -58 -29 -52 -37 -39 15 20 -25 vhcurveto
          -23 -24 30 -38 63 -29 60 -5 rlinecurve
          -37 -79 22 -17 rlineto
          -65 callsubr
          hintmask 0110111010000000
          -78 callgsubr
          hintmask 1011011001000000
          30 62 rlineto
          138 5 69 83 95 vvcurveto
          106 -75 73 -95 69 vhcurveto
          hintmask 1010110100000000
          -75 callsubr
          endchar
        </CharString>
        <CharString name="scircumflex">
          -69 callsubr
          190 469 -106 callgsubr
          endchar
        </CharString>
        <CharString name="section">
          -177 -177 42 808 42 hstemhm
          40 44 -24 74 212 74 -24 44 hintmask 00000000
          hintmask 11010100
          440 253 rmoveto
          72 -56 53 -76 42 vhcurveto
          -108 59 rlineto
          -51 27 -15 36 32 vvcurveto
          60 55 39 60 50 57 -28 -61 42 vhcurveto
          35 26 rlineto
          73 -51 -70 32 -72 hhcurveto
          -117 -63 -72 -84 -61 25 -42 40 -32 hvcurveto
          hintmask 11101000
          -51 -24 -34 -46 -69 vvcurveto
          -72 56 -53 76 -42 vhcurveto
          108 -59 rlineto
          51 -27 15 -36 -32 vvcurveto
          -60 -55 -39 -60 -50 -57 28 61 -42 vhcurveto
          -35 -26 rlineto
          -73 51 70 -32 72 hhcurveto
          117 63 72 84 61 -26 41 -39 32 hvcurveto
          hintmask 11100100
          50 24 35 46 70 vvcurveto
          -260 136 rmoveto
          107 -57 rlineto
          64 -34 45 -31 -50 vvcurveto
          -36 -29 -36 -39 -13 vhcurveto
          -9 6 -9 6 -10 5 -107 57 rcurveline
          -64 34 -45 31 50 vvcurveto
          36 28 35 39 13 vhcurveto
          endchar
        </CharString>
        <CharString name="semicolon">
          -393 -148 -21 308 -20 226 154 hstemhm
          60 6 callgsubr
          hintmask 11010000
          60 62 rmoveto
          -15 callsubr
          hintmask 11001000
          -84 callsubr
          hintmask 11010000
          -3 callsubr
          hintmask 00110000
          5 callsubr
        </CharString>
        <CharString name="seven">
          -149 6 -21 633 82 hstemhm
          163 131 -131 160 hintmask 00000000
          hintmask 11010000
          323 65 rmoveto
          hintmask 11100000
          46 -29 34 80 vvcurveto
          129 66 142 145 164 vhcurveto
          40 -414 vlineto
          -35 -26 0 -42 hvcurveto
          27 -168 rlineto
          39 hlineto
          9 46 rlineto
          62 13 35 20 84 hhcurveto
          185 hlineto
          -31 -34 rlineto
          -191 -209 -37 -223 -65 vvcurveto
          -66 35 -36 45 vhcurveto
          hintmask 11010000
          43 37 35 45 hvcurveto
          endchar
        </CharString>
        <CharString name="seveninferior">
          -276 -158 -21 374 60 hstemhm
          132 88 -88 106 hintmask 00000000
          hintmask 11010000
          238 -126 rmoveto
          14 -3 11 -4 12 vhcurveto
          hintmask 11100000
          -5 14 -6 20 24 vvcurveto
          74 40 84 85 96 vhcurveto
          32 -250 vlineto
          -23 -19 0 -32 hvcurveto
          17 -104 rlineto
          33 hlineto
          6 32 rlineto
          31 6 22 13 44 hhcurveto
          95 hlineto
          -9 -11 rlineto
          -107 -131 -28 -127 -39 vvcurveto
          -42 23 -24 30 vhcurveto
          hintmask 11010000
          28 25 24 29 hvcurveto
          endchar
        </CharString>
        <CharString name="six">
          -67 -15 41 348 51 250 40 hstemhm
          59 137 170 160 -114 135 hintmask 00000000
          hintmask 11111000
          366 564 rmoveto
          -43 36 -37 44 44 36 36 44 65 -64 86 -125 -165 -113 -149 -227 -215 67 -139 178 vhcurveto
          hintmask 11110100
          152 91 102 124 117 -94 97 -116 -61 -49 -19 -48 -31 hvcurveto
          220 2 54 97 86 hhcurveto
          34 29 -10 -24 24 hvcurveto
          hintmask 11111000
          -34 -9 -25 -31 -37 vvcurveto
          -63 -190 rmoveto
          hintmask 11110100
          78 31 -79 -94 -98 -37 -77 -71 -75 -35 84 103 89 37 72 72 hvcurveto
          endchar
        </CharString>
        <CharString name="sixinferior">
          -227 -179 37 192 42 23 149 -36 36 hstemhm
          69 92 89 106 -80 92 hintmask 00000000
          hintmask 11101100
          250 168 rmoveto
          -27 24 -26 29 29 24 25 28 41 -40 55 -78 -101 -68 -90 -139 -130 41 -84 109 vhcurveto
          hintmask 11011010
          94 55 63 77 72 -58 59 -72 -29 -29 -9 -18 -19 hvcurveto
          119 2 30 44 46 hhcurveto
          16 13 -3 -9 11 hvcurveto
          hintmask 11101100
          -18 -8 -11 -17 -23 vvcurveto
          -32 -118 rmoveto
          hintmask 11101010
          43 15 -43 -52 -55 -19 -42 -38 -40 -19 46 58 49 20 39 38 hvcurveto
          endchar
        </CharString>
        <CharString name="slash">
          24 callsubr
          380 700 rmoveto
          -90 hlineto
          -260 -700 rlineto
          90 hlineto
          endchar
        </CharString>
        <CharString name="space">
          -367 endchar
        </CharString>
        <CharString name="sterling">
          -17 0 92 217 45 309 52 hstemhm
          105 145 -84 99 127 160 hintmask 00000000
          hintmask 11101100
          75 309 rmoveto
          86 hlineto
          3 -16 2 -16 -18 vvcurveto
          -54 -10 -82 -81 -83 vhcurveto
          -40 434 -56 callsubr
          -7 -36 rlineto
          -62 -12 -37 -20 -83 hhcurveto
          -185 hlineto
          70 89 14 70 1 58 rrcurveto
          190 45 -191 hlineto
          hintmask 11110100
          -4 59 -10 50 55 vvcurveto
          82 45 63 81 27 24 -5 -8 20 vhcurveto
          -32 -11 -23 -29 -36 vvcurveto
          -52 37 -28 43 45 35 36 44 101 -127 40 -105 -131 -84 -84 -101 -73 27 -47 18 -56 vhcurveto
          -75 hlineto
          endchar
        </CharString>
        <CharString name="summation">
          -112 0 92 568 40 hstem
          354 407 rmoveto
          -169 253 rlineto
          120 hlineto
          84 27 -9 -62 13 hvcurveto
          20 -99 rlineto
          39 hlineto
          27 168 rlineto
          42 -26 0 -35 vhcurveto
          -419 -40 hlineto
          211 -320 -216 -300 rlineto
          -40 424 -56 callsubr
          -7 -36 rlineto
          -62 -13 -35 -20 -84 hhcurveto
          -183 hlineto
          endchar
        </CharString>
        <CharString name="t">
          -243 -15 68 392 41 144 -20 hstem
          121 -8 callgsubr
          -5 callsubr
          -92 38 -55 85 65 50 32 41 45 vhcurveto
          -14 callsubr
          endchar
        </CharString>
        <CharString name="t.corta">
          -243 -15 68 392 41 144 -20 hstem
          121 -8 callgsubr
          -5 callsubr
          -107 callgsubr
          334 82 41 -82 -5 callgsubr
          endchar
        </CharString>
        <CharString name="tbar">
          -243 -15 68 -43 -21 255 -21 50 45 -17 -20 140 79 -55 41 144 -20 22 -20 hstemhm
          121 150 -43 callsubr
          hintmask 0111010011000000
          6 273 rmoveto
          115 -141 hlineto
          hintmask 1010110011000000
          -107 callgsubr
          hintmask 0111010011000000
          162 115 45 -115 vlineto
          hintmask 0110101011000000
          127 113 41 -113 vlineto
          hintmask 0110110101000000
          144 -150 vlineto
          hintmask 0110101011000000
          -144 -82 -41 82 vlineto
          hintmask 0111010011000000
          -127 -115 vlineto
          endchar
        </CharString>
        <CharString name="tcaron">
          -243 -15 68 -43 -21 432 79 -55 41 -29 -21 85 -21 130 -20 22 -20 53 -20 145 -20 hstemhm
          121 150 56 134 -126 127 -84 83 -43 callsubr
          hintmask 0101010111101000
          -5 callsubr
          hintmask 1000110111101000
          -107 callgsubr
          hintmask 0101011011101000
          334 82 41 -82 -5 callgsubr
          hintmask 0100110111110000
          288 237 rmoveto
          hintmask 0100110111100100
          -56 51 -7 -48 vvcurveto
          -29 -14 -26 -30 -35 vhcurveto
          hintmask 0110000111101000
          22 -22 rlineto
          hintmask 0100110111110000
          69 62 36 79 66 vvcurveto
          53 -30 30 -37 -37 -30 -30 -37 vhcurveto
          endchar
        </CharString>
        <CharString name="thin-slash">
          -285 -59 -21 859 -20 hstem
          332 779 rmoveto
          -50 hlineto
          -232 -859 rlineto
          49 hlineto
          endchar
        </CharString>
        <CharString name="thorn">
          42 29 callgsubr
          57 250 -20 hstem
          111 151 227 155 vstem
          261 704 rmoveto
          -97 callsubr
          27 -31 18 22 30 18 36 10 rlinecurve
          -968 151 312 vlineto
          -47 31 46 -30 60 -42 callsubr
        </CharString>
        <CharString name="three">
          -67 -15 52 296 42 288 52 hstem
          56 160 182 145 vstem
          226 574 rmoveto
          32 callgsubr
          101 45 -68 -65 -75 -45 -80 -106 hvcurveto
          -69 -42 54 hlineto
          108 48 -72 -71 -75 -51 -78 -115 -24 -22 4 8 -18 hvcurveto
          1 callsubr
          92 113 71 -56 62 -93 31 vhcurveto
          87 33 52 66 77 vvcurveto
          102 -88 83 -137 -133 -109 -52 -89 -4 callsubr
          37 43 vhcurveto
          endchar
        </CharString>
        <CharString name="threeinferior">
          -227 -179 4 callgsubr
          174 -66 callgsubr
        </CharString>
        <CharString name="threequarters">
          377 0 35 -14 -21 93 42 131 42 -42 143 16 -20 67 36 58 143 -43 43 -9 -20 hstemhm
          94 106 96 97 331 112 -27 101 -43 callsubr
          hintmask 0100000001000000
          742 -46 callsubr
          hintmask 0001001010110000
          -146 619 rmoveto
          19 -9 15 -13 9 vhcurveto
          2 8 11 2 12 hhcurveto
          56 25 -37 -35 -42 -25 -44 -59 hvcurveto
          -46 -36 37 hlineto
          60 27 -40 -39 -41 -29 -44 -64 -6 -8 1 1 -6 hvcurveto
          15 10 8 16 20 vvcurveto
          hintmask 0000101100110000
          27 -24 26 -29 -29 -24 -25 -28 -60 69 -30 68 98 64 57 70 41 -30 37 -48 19 vhcurveto
          44 23 28 37 44 vvcurveto
          62 -54 53 -85 -81 -67 -33 -57 -28 24 -25 29 29 24 26 27 vhcurveto
          hintmask 1010010000001000
          518 -194 12 callsubr
          hintmask 1010010000000100
          -52 callgsubr
          hintmask 1010010000001000
          19 callsubr
        </CharString>
        <CharString name="threesuperior">
          -227 322 4 callgsubr
          675 -66 callgsubr
        </CharString>
        <CharString name="tilde">
          -220 589 20 callgsubr
          609 -87 callgsubr
          hintmask 10110000
          -96 callgsubr
          hintmask 01110000
          -77 callsubr
        </CharString>
        <CharString name="tilde.case">
          -220 789 20 callgsubr
          809 -87 callgsubr
          hintmask 10110000
          -96 callgsubr
          hintmask 01110000
          -77 callsubr
        </CharString>
        <CharString name="trademark">
          330 275 35 254 136 -36 36 hstemhm
          177 100 184 44 284 109 hintmask 00000000
          hintmask 10111100
          432 664 rmoveto
          39 hlineto
          -19 -354 rlineto
          -37 -35 117 35 -34 hlineto
          14 252 88 -287 rlineto
          99 hlineto
          82 287 16 -252 rlineto
          -34 -35 171 35 -36 354 34 36 -160 hlineto
          -96 -337 -103 337 rlineto
          -141 hlineto
          -322 -73 rmoveto
          33 7 13 4 47 hhcurveto
          -354 -59 -35 218 35 -59 354 vlineto
          45 16 -4 -33 6 hvcurveto
          hintmask 11011100
          12 -63 rlineto
          34 hlineto
          17 104 rlineto
          32 -19 0 -24 vhcurveto
          -275 hlineto
          -24 -18 0 -32 hvcurveto
          16 -104 rlineto
          34 hlineto
          endchar
        </CharString>
        <CharString name="two">
          -67 0 92 571 52 hstem
          51 160 169 138 vstem
          454 174 rmoveto
          -62 -13 -35 -20 -84 hhcurveto
          -166 hlineto
          183 176 rlineto
          120 115 59 60 87 vvcurveto
          101 -92 84 -143 -125 -107 -53 -88 -44 35 -36 45 43 37 37 43 32 callgsubr
          83 60 -71 -94 -67 -30 -79 -73 -74 hvcurveto
          -235 -238 rlineto
          -40 424 -56 callsubr
          endchar
        </CharString>
        <CharString name="twoinferior">
          -227 -170 14 callsubr
          -61 -61 callgsubr
        </CharString>
        <CharString name="twosuperior">
          -227 331 14 callsubr
          440 -61 callgsubr
        </CharString>
        <CharString name="u">
          40 -15 17 callsubr
          hintmask 10111000
          -105 callsubr
          hintmask 11011000
          -77 callgsubr
          endchar
        </CharString>
        <CharString name="uacute">
          40 -15 61 454 -20 35 -20 85 -21 206 -63 callsubr
          hintmask 10100110
          -105 callsubr
          hintmask 11000110
          -77 callgsubr
          hintmask 00011000
          186 654 -107 callsubr
        </CharString>
        <CharString name="ubreve">
          -51 callgsubr
          74 101 90 -63 callsubr
          hintmask 10100110
          -105 callsubr
          hintmask 11000110
          -77 callgsubr
          hintmask 00011000
          -87 620 -98 callsubr
        </CharString>
        <CharString name="ucircumflex">
          40 -15 61 454 -20 35 -20 85 -21 206 -63 callsubr
          hintmask 10100110
          -105 callsubr
          hintmask 11000110
          -77 callgsubr
          hintmask 00011000
          83 543 -106 callgsubr
          endchar
        </CharString>
        <CharString name="udieresis">
          -51 callgsubr
          99 152 -46 callgsubr
          -112 3 callsubr
          -100 -33 callsubr
          hintmask 10101001
          -105 callsubr
          hintmask 11001001
          -77 callgsubr
          hintmask 00010110
          -112 559 -104 callsubr
        </CharString>
        <CharString name="ugrave">
          40 -15 61 454 -20 35 -20 85 -21 206 -63 callsubr
          hintmask 10100110
          -105 callsubr
          hintmask 11000110
          -77 callgsubr
          hintmask 00011000
          -10 654 -99 callgsubr
        </CharString>
        <CharString name="uhungarumlaut">
          40 -15 61 454 -20 35 -20 85 -21 206 -63 callsubr
          hintmask 10100110
          -105 callsubr
          hintmask 11000110
          -77 callgsubr
          hintmask 00011000
          -64 471 -91 callgsubr
        </CharString>
        <CharString name="umacron">
          -51 callgsubr
          117 88 -69 callgsubr
          hintmask 10101100
          -105 callsubr
          hintmask 11001100
          -77 callgsubr
          hintmask 00010000
          -68 589 -47 callsubr
        </CharString>
        <CharString name="underscore">
          -73 -60 60 hstem
          75 -60 rmoveto
          444 60 -444 hlineto
          endchar
        </CharString>
        <CharString name="uni0122">
          33 -49 callsubr
          59 27 callsubr
          78 -27 callsubr
          68 150 -106 94 -43 callsubr
          hintmask 0010111001000000
          -79 callsubr
          hintmask 0010111000100000
          -64 callsubr
          -5 -37 36 -12 56 92 -72 callgsubr
          -223 -119 -164 -202 -201 131 -163 174 80 62 24 40 47 vhcurveto
          hintmask 0001111001000000
          36 -49 rlineto
          55 318 -285 hlineto
          hintmask 1100000100000000
          -67 -439 rmoveto
          hintmask 1100000010000000
          -99 callsubr
          hintmask 1100000100000000
          -58 callgsubr
        </CharString>
        <CharString name="uni0123">
          21 callgsubr
          20 20 249 21 hstemhm
          80 75 -75 155 8 83 -83 134 20 148 -68 68 -43 callsubr
          hintmask 1111100100001000
          -100 callsubr
          hintmask 1111100010010000
          -60 callsubr
          hintmask 0000011000100000
          142 344 rmoveto
          hintmask 0000011001000000
          56 -51 7 48 vvcurveto
          29 14 26 30 35 vhcurveto
          -22 22 rlineto
          -69 -62 -36 -79 -66 vvcurveto
          -53 30 -30 37 vhcurveto
          hintmask 0000011000100000
          37 30 30 37 hvcurveto
          endchar
        </CharString>
        <CharString name="uni0136">
          18 -49 callsubr
          59 68 -53 40 263 32 325 8 callsubr
          36 -27 callsubr
          -43 callsubr
          hintmask 0001111000000000
          70 660 rmoveto
          22 callsubr
          263 hlineto
          55 -3 16 -13 11 -36 59 -194 rcurveline
          hintmask 0010111000000000
          -55 callsubr
          hintmask 1100000100000000
          246 -821 rmoveto
          hintmask 1100000010000000
          -99 callsubr
          hintmask 1100000100000000
          -58 callgsubr
        </CharString>
        <CharString name="uni0137">
          -20 -49 callsubr
          59 -12 callgsubr
          61 250 -16 callgsubr
          14 -27 callsubr
          22 140 -43 callsubr
          hintmask 0001111001000000
          261 704 rmoveto
          -106 callsubr
          -717 150 310 vlineto
          90 40 54 63 36 31 -21 -44 -58 -53 -64 -75 -18 vhcurveto
          75 -192 rlineto
          hintmask 0010111001000000
          -63 callgsubr
          -66 -17 -53 -41 vhcurveto
          hintmask 1100000100000000
          14 -566 rmoveto
          hintmask 1100000010000000
          -99 callsubr
          hintmask 1100000100000000
          -58 callgsubr
        </CharString>
        <CharString name="uni013B">
          -97 -49 callsubr
          74 40 620 8 callsubr
          -141 -27 callsubr
          hintmask 00000000
          hintmask 00111000
          -82 callgsubr
          hintmask 11000100
          69 -821 rmoveto
          hintmask 11000010
          -99 callsubr
          hintmask 11000100
          -58 callgsubr
        </CharString>
        <CharString name="uni013C">
          -293 -49 callsubr
          59 68 712 -16 callgsubr
          -143 -27 callsubr
          hintmask 00000000
          hintmask 00111000
          -87 callsubr
          hintmask 11000100
          118 -820 rmoveto
          hintmask 11000010
          -99 callsubr
          hintmask 11000100
          -58 callgsubr
        </CharString>
        <CharString name="uni0145">
          103 -49 callsubr
          74 42 callgsubr
          120 70 128 -27 callsubr
          128 70 hintmask 00000000
          hintmask 00111001
          -82 callsubr
          hintmask 11000100
          258 -161 rmoveto
          hintmask 11000010
          -99 callsubr
          hintmask 11000100
          -58 callgsubr
        </CharString>
        <CharString name="uni0146">
          40 -49 callsubr
          59 -31 callgsubr
          -46 callgsubr
          32 -27 callsubr
          4 150 -43 callsubr
          hintmask 0001011001000000
          -68 callsubr
          56 36 47 -35 callgsubr
          hintmask 0010011001000000
          -90 callgsubr
          -81 -47 -18 -47 -50 vhcurveto
          hintmask 0010101001000000
          -56 callgsubr
          hintmask 1100000100000000
          276 -603 rmoveto
          hintmask 1100000010000000
          -99 callsubr
          hintmask 1100000100000000
          -58 callgsubr
        </CharString>
        <CharString name="uni0156">
          28 -49 callsubr
          59 68 -53 40 223 40 357 8 callsubr
          12 -27 callsubr
          47 150 -43 callsubr
          hintmask 0001111001000000
          -65 callgsubr
          290 40 -80 223 hlineto
          65 -1 17 -13 12 -38 47 -154 rcurveline
          hintmask 0010111001000000
          -89 callsubr
          hintmask 1100000100000000
          12 -781 rmoveto
          hintmask 1100000010000000
          -99 callsubr
          hintmask 1100000100000000
          -58 callgsubr
        </CharString>
        <CharString name="uni0157">
          -131 -49 callsubr
          59 68 331 154 -23 -20 hstemhm
          10 154 -12 -27 callsubr
          -13 150 -43 callsubr
          hintmask 0010110010000000
          -25 callgsubr
          hintmask 0011010010000000
          -86 callsubr
          hintmask 0010110010000000
          35 -6 22 -24 vhcurveto
          hintmask 1100001000000000
          -241 -636 rmoveto
          hintmask 1100000100000000
          -99 callsubr
          hintmask 1100001000000000
          -58 callgsubr
        </CharString>
        <CharString name="uni0162">
          -47 -31 callsubr
          70 42 callgsubr
          195 82 -42 150 -47 87 hintmask 00000000
          hintmask 10111010
          -75 callgsubr
          152 hlineto
          -44 -93 22 -17 rlineto
          hintmask 10111101
          -65 callsubr
          hintmask 01111101
          -78 callgsubr
          38 77 rlineto
          168 40 hlineto
          hintmask 10111010
          -13 callsubr
          endchar
        </CharString>
        <CharString name="uni0163">
          -243 -31 callsubr
          55 68 -53 -20 465 41 144 -20 hstemhm
          97 82 -58 150 -31 87 -43 callsubr
          hintmask 1010111010000000
          -5 callsubr
          -68 21 -48 45 -20 vhcurveto
          -42 -89 22 -17 rlineto
          hintmask 1010111101000000
          -65 callsubr
          hintmask 0110111101000000
          -78 callgsubr
          32 65 rlineto
          hintmask 1011011010000000
          -2 9 11 -1 11 -9 callsubr
          -14 callsubr
          endchar
        </CharString>
        <CharString name="uni0218">
          -97 -49 callsubr
          59 -2 callsubr
          hstemhm
          56 83 -83 123 39 -27 callsubr
          53 120 -100 100 -43 callsubr
          hintmask 0011010001000000
          -95 callgsubr
          hintmask 0011100010000000
          -50 callsubr
          hintmask 1100001000000000
          79 -250 rmoveto
          hintmask 1100000100000000
          -99 callsubr
          hintmask 1100001000000000
          -58 callgsubr
        </CharString>
        <CharString name="uni0219">
          -193 -49 callsubr
          59 62 511 35 callgsubr
          -131 -27 callsubr
          -19 0 callsubr
          hintmask 00110001
          -84 callgsubr
          hintmask 00111000
          -75 callsubr
          hintmask 11000100
          129 -306 rmoveto
          hintmask 11000010
          -99 callsubr
          hintmask 11000100
          -58 callgsubr
        </CharString>
        <CharString name="uni021A">
          -47 -49 callsubr
          74 42 callgsubr
          235 150 -142 -27 callsubr
          hintmask 00000000
          hintmask 00111000
          -75 callgsubr
          350 40 -13 callsubr
          hintmask 11000100
          -276 -710 rmoveto
          hintmask 11000010
          -99 callsubr
          hintmask 11000100
          -58 callgsubr
        </CharString>
        <CharString name="uni021B">
          -243 -49 callsubr
          59 68 392 41 144 -20 hstemhm
          121 150 -138 -27 callsubr
          hintmask 00000000
          hintmask 00111100
          -5 callsubr
          -92 38 -55 85 65 50 32 41 45 vhcurveto
          -14 callsubr
          hintmask 11000010
          94 -607 rmoveto
          hintmask 11000001
          -99 callsubr
          hintmask 11000010
          -58 callgsubr
        </CharString>
        <CharString name="uni0394">
          -32 callgsubr
        </CharString>
        <CharString name="uni03A9">
          -81 callgsubr
        </CharString>
        <CharString name="uni03BC">
          -71 callsubr
        </CharString>
        <CharString name="uogonek">
          40 41 callgsubr
          61 12 -20 462 -20 35 -20 -53 callgsubr
          -86 91 hintmask 00000000
          hintmask 11001110
          -92 callsubr
          -335 vlineto
          -92 59 -55 85 86 48 20 54 52 vhcurveto
          -47 17 36 -27 60 hhcurveto
          9 9 1 1 9 hvcurveto
          -9 -8 rlineto
          hintmask 10101101
          -48 callsubr
          -77 callgsubr
          endchar
        </CharString>
        <CharString name="uring">
          -51 callgsubr
          58 36 callgsubr
          -46 callgsubr
          -50 84 89 85 -38 150 -43 callsubr
          hintmask 1010010010000000
          -105 callsubr
          hintmask 1100010010000000
          -77 callgsubr
          hintmask 0001101100000000
          -50 559 -85 callsubr
        </CharString>
        <CharString name="utilde">
          -51 callgsubr
          94 9 callsubr
          hintmask 1010010100000000
          -105 callsubr
          hintmask 1100010100000000
          -77 callgsubr
          hintmask 0000101010000000
          228 498 -87 callgsubr
          hintmask 0001001010000000
          -96 callgsubr
          hintmask 0000101010000000
          -77 callsubr
        </CharString>
        <CharString name="v">
          -48 -15 71 315 144 10 -20 hstemhm
          131 -34 callgsubr
          hintmask 11011000
          368 448 rmoveto
          -73 callgsubr
          -79 callgsubr
          86 158 78 219 vhcurveto
          hintmask 10111000
          81 -12 162 -102 -19 callsubr
        </CharString>
        <CharString name="w">
          -24 callgsubr
          41 callsubr
          175 -34 callgsubr
          hintmask 11011100
          -97 callgsubr
          hintmask 10111100
          81 -12 162 -102 -30 callsubr
          hintmask 11011100
          -73 callgsubr
          endchar
        </CharString>
        <CharString name="wacute">
          -24 callgsubr
          75 -68 callgsubr
          41 callsubr
          175 -34 callgsubr
          hintmask 11000111
          -97 callgsubr
          hintmask 10100111
          81 -12 162 -102 -30 callsubr
          hintmask 11000111
          -73 callgsubr
          hintmask 00011000
          -35 644 -107 callsubr
        </CharString>
        <CharString name="wcircumflex">
          -24 callgsubr
          75 -68 callgsubr
          41 callsubr
          175 -34 callgsubr
          hintmask 11000111
          -97 callgsubr
          hintmask 10100111
          81 -12 162 -102 -30 callsubr
          hintmask 11000111
          -73 callgsubr
          hintmask 00011000
          -110 533 -106 callgsubr
          endchar
        </CharString>
        <CharString name="wdieresis">
          -24 callgsubr
          89 152 41 callsubr
          30 152 -7 150 -65 152 138 53 -43 callsubr
          hintmask 1100101010000000
          -97 callgsubr
          hintmask 1010101010000000
          81 -12 162 -102 -30 callsubr
          hintmask 1100101010000000
          -73 callgsubr
          hintmask 0001010100000000
          -295 549 -104 callsubr
        </CharString>
        <CharString name="wgrave">
          -24 callgsubr
          75 -68 callgsubr
          41 callsubr
          175 -34 callgsubr
          hintmask 11000111
          -97 callgsubr
          hintmask 10100111
          81 -12 162 -102 -30 callsubr
          hintmask 11000111
          -73 callgsubr
          hintmask 00011000
          -193 644 -99 callgsubr
        </CharString>
        <CharString name="x">
          -18 -15 68 -68 154 222 154 -68 68 hstemhm
          hintmask 00000000
          hintmask 10100000
          53 62 rmoveto
          -43 34 -34 46 74 57 72 89 33 vhcurveto
          43 -89 rlineto
          -53 25 39 -19 58 hhcurveto
          65 49 32 41 43 hvcurveto
          -19 24 rlineto
          -20 -23 -20 callsubr
          -9 12 33 -16 hvcurveto
          -97 202 14 45 22 43 32 31 rlinecurve
          -34 8 30 -24 37 hhcurveto
          -62 callsubr
          -78 -57 -74 -89 -33 hvcurveto
          -43 91 rlineto
          53 -25 -39 19 -58 hhcurveto
          -65 -49 -32 -41 -43 hvcurveto
          19 -24 rlineto
          hintmask 01010000
          20 23 26 9 18 hhcurveto
          24 9 -12 -33 16 hvcurveto
          97 -204 -14 -44 -22 -43 -31 -30 rlinecurve
          33 -9 -30 25 -36 hhcurveto
          30 callsubr
        </CharString>
        <CharString name="y">
          25 callsubr
          hstemhm
          124 -34 callgsubr
          hintmask 11101100
          -98 callgsubr
          hintmask 11011100
          -97 callsubr
          endchar
        </CharString>
        <CharString name="yacute">
          25 callsubr
          85 -68 callgsubr
          hstemhm
          124 -34 callgsubr
          hintmask 11100011
          -98 callgsubr
          hintmask 11010011
          -97 callsubr
          hintmask 00001100
          388 316 -107 callsubr
        </CharString>
        <CharString name="ycircumflex">
          25 callsubr
          85 -68 callgsubr
          hstemhm
          124 -34 callgsubr
          hintmask 11100011
          -98 callgsubr
          hintmask 11010011
          -97 callsubr
          hintmask 00001100
          294 205 -106 callgsubr
          endchar
        </CharString>
        <CharString name="ydieresis">
          25 callsubr
          99 152 hstemhm
          121 152 -149 150 77 152 -4 53 -43 callsubr
          hintmask 1110001010000000
          -98 callgsubr
          hintmask 1101001010000000
          -97 callsubr
          hintmask 0000110100000000
          108 221 -104 callsubr
        </CharString>
        <CharString name="yen">
          -17 0 40 159 45 95 45 316 -20 35 -20 hstemhm
          252 150 22 160 hintmask 00000000
          hintmask 11101110
          92 199 rmoveto
          160 -159 -100 -40 350 40 -100 159 160 45 -162 hlineto
          47 95 rlineto
          115 45 -93 hlineto
          89 179 rlineto
          22 45 4 12 15 vvcurveto
          44 -37 36 -43 -45 -35 -35 -45 -40 31 -34 38 -6 vhcurveto
          -115 -245 rlineto
          hintmask 11110110
          -158 390 rlineto
          -200 -40 50 hlineto
          122 -276 rlineto
          -100 -45 120 hlineto
          40 -89 rlineto
          -6 -160 vlineto
          endchar
        </CharString>
        <CharString name="ygrave">
          25 callsubr
          85 -68 callgsubr
          hstemhm
          124 -34 callgsubr
          hintmask 11100011
          -98 callgsubr
          hintmask 11010011
          -97 callsubr
          hintmask 00001100
          221 316 -99 callgsubr
        </CharString>
        <CharString name="z">
          -47 0 40 420 40 hstem
          -85 callgsubr
          endchar
        </CharString>
        <CharString name="zacute">
          -47 0 40 420 -15 callgsubr
          hstem
          -85 callgsubr
          -55 555 -107 callsubr
        </CharString>
        <CharString name="zcaron">
          -47 0 40 420 -15 callgsubr
          hstem
          -85 callgsubr
          -168 460 -102 callgsubr
        </CharString>
        <CharString name="zdotaccent">
          -47 0 40 420 40 90 160 hstem
          250 160 vstem
          -85 callgsubr
          -234 460 rmoveto
          -90 callsubr
          endchar
        </CharString>
        <CharString name="zero">
          -67 -15 41 648 41 hstem
          36 145 238 145 vstem
          299 715 rmoveto
          -160 -103 -164 -202 -201 103 -163 160 162 103 163 201 202 -103 164 -162 hvcurveto
          1 -41 rmoveto
          81 38 -146 -179 -178 -38 -145 -81 -81 -38 145 178 179 38 146 81 hvcurveto
          endchar
        </CharString>
        <CharString name="zeroinferior">
          -227 -179 37 369 37 hstem
          57 98 127 98 vstem
          217 264 -37 callgsubr
        </CharString>
      <CharString index="0">
        -48 callgsubr
        65 50 32 41 45 vhcurveto
        -61 callsubr
        -28 -19 22 36 hvcurveto
        return
      </CharString>
      <CharString index="1">
        rmoveto
        141 -95 21 24 -108 144 rlineto
        27 -20 -14 11 -24 -10 callgsubr
        -11 -27 -20 hvcurveto
        -108 -144 21 -24 141 95 rlineto
        return
      </CharString>
      <CharString index="2">
        274 231 rmoveto
        2 -24 rlineto
        -5 21 20 -2 19 hhcurveto
        128 74 91 84 72 -65 68 -123 -186 -99 -119 -146 -136 96 -129 165 20 callsubr
        -88 -43 91 112 144 66 67 47 54 23 -39 -46 -62 -43 -75 -93 -8 hvcurveto
        return
      </CharString>
      <CharString index="3">
        383 715 rmoveto
        -222 -111 -164 -202 -201 111 -163 222 224 111 163 201 202 -111 164 -224 hvcurveto
        1 -47 rmoveto
        121 58 -152 -167 -165 -58 -152 -121 -122 -57 152 165 167 57 152 122 hvcurveto
        return
      </CharString>
      <CharString index="4">
        494 2 callgsubr
        -90 233 230 45 -230 342 70 hlineto
        84 27 -9 -62 13 hvcurveto
        20 -99 rlineto
        39 hlineto
        27 168 rlineto
        42 -26 0 -35 vhcurveto
        -429 -33 callgsubr
        449 hlineto
        -78 callsubr
        return
      </CharString>
      <CharString index="5">
        rmoveto
        -141 95 -21 -24 108 -144 rlineto
        -27 20 14 -11 24 hhcurveto
        24 14 11 27 20 hvcurveto
        108 144 -21 24 -141 -95 rlineto
        endchar
      </CharString>
      <CharString index="6">
        44 -30 -45 27 -62 hhcurveto
        -161 -84 -49 callgsubr
        74 -119 161 70 51 34 55 32 hvcurveto
        -57 14 37 -32 66 -9 callsubr
        -61 callsubr
        -28 -19 22 36 hvcurveto
        return
      </CharString>
      <CharString index="7">
        -64 callgsubr
        -335 vlineto
        -107 callgsubr
        323 vlineto
        65 -45 16 -93 callsubr
        return
      </CharString>
      <CharString index="8">
        rmoveto
        -33 -24 -23 -27 -34 22 -19 61 -30 hvcurveto
        148 -73 21 24 -119 132 rlineto
        30 -27 -18 20 -31 hhcurveto
        endchar
      </CharString>
      <CharString index="9">
        40 418 -64 callgsubr
        -295 vlineto
        -112 74 -55 79 86 91 31 141 51 vhcurveto
        -217 -55 -94 -85 -146 hhcurveto
        -26 -28 3 5 -30 hvcurveto
        -26 -27 52 -72 rlineto
        -37 26 16 -12 33 hhcurveto
        138 187 202 345 81 -12 162 -102 -43 -34 -34 -43 -41 callsubr
        15 15 4 8 12 hvcurveto
        13 -36 6 -34 -31 vvcurveto
        -117 -72 -79 -83 -38 -32 21 44 vhcurveto
        303 vlineto
        return
      </CharString>
      <CharString index="10">
        606 -96 callsubr
        -315 vlineto
        -10 0 -10 1 -9 vhcurveto
        -42 -24 -40 -25 -42 hhcurveto
        -38 -32 21 44 hvcurveto
        -79 callgsubr
        46 68 23 55 47 vhcurveto
        -52 30 58 -26 76 hhcurveto
        86 158 78 219 hvcurveto
        return
      </CharString>
      <CharString index="11">
        -5 -8 -7 -2 -8 hhcurveto
        -19 -9 15 24 hvcurveto
        15 -36 vlineto
        -5 -20 -3 -21 -20 vvcurveto
        -56 37 -36 37 17 20 6 13 22 vhcurveto
        85 48 rlineto
        return
      </CharString>
      <CharString index="12">
        139 213 rmoveto
        -35 11 -48 -92 29 callsubr
        131 -46 100 134 115 58 132 88 -57 66 -88 46 vhcurveto
        -127 67 rlineto
        -55 29 -19 49 43 vvcurveto
        47 31 58 85 62 68 -33 -64 vhcurveto
        -84 vlineto
        35 -11 48 92 rlineto
        7 14 4 13 12 vvcurveto
        62 -124 46 -100 -171 -68 -102 -98 -79 35 -68 93 -50 vhcurveto
        148 -79 rlineto
        return
      </CharString>
      <CharString index="13">
        382 668 rmoveto
        -64 callsubr
        -9 -62 36 -11 60 116 -72 callgsubr
        -216 -116 -164 -202 -201 127 -163 188 136 70 78 86 54 vhcurveto
        -35 25 rlineto
        -55 -38 -56 -68 -107 hhcurveto
        -123 -61 134 169 168 55 146 122 hvcurveto
        return
      </CharString>
      <CharString index="14">
        -377 139 -92 callgsubr
        return
      </CharString>
      <CharString index="15">
        rmoveto
        123 35 85 78 79 40 -85 -123 -123 -40 -85 -79 -78 -35 85 123 vhcurveto
        return
      </CharString>
      <CharString index="16">
        rmoveto
        24 -23 125 91 rlineto
        33 24 15 19 26 vvcurveto
        28 -22 18 -28 -31 -19 -14 -41 -24 vhcurveto
        117 -128 rmoveto
        24 -23 125 91 rlineto
        33 24 15 19 26 vvcurveto
        28 -22 18 -28 -31 -19 -14 -41 -24 vhcurveto
        endchar
      </CharString>
      <CharString index="17">
        -107 callgsubr
        257 vlineto
        92 -59 55 -85 return
      </CharString>
      <CharString index="18">
        -35 -26 0 -42 hvcurveto
        27 -168 rlineto
        39 hlineto
        20 99 rlineto
        62 13 27 9 84 hhcurveto
        return
      </CharString>
      <CharString index="19">
        -87 callgsubr
        hintmask 00100110
        -96 callgsubr
        hintmask 00010110
        -77 callsubr
      </CharString>
      <CharString index="20">
        rmoveto
        5 20 3 21 20 vvcurveto
        56 -37 36 -37 -17 -20 -6 -13 -22 vhcurveto
        -85 -48 rlineto
        return
      </CharString>
      <CharString index="21">
        474 2 callgsubr
        -151 hlineto
        356 620 rlineto
        40 -444 -74 callgsubr
        133 hlineto
        -363 -620 rlineto
        -40 469 vlineto
        -78 callsubr
        return
      </CharString>
      <CharString index="22">
        464 111 rmoveto
        -62 -13 -27 -9 -84 hhcurveto
        -96 hlineto
        301 420 rlineto
        40 -394 -74 callgsubr
        83 hlineto
        -308 -420 rlineto
        -40 414 -56 callsubr
        return
      </CharString>
      <CharString index="23">
        70 163 rmoveto
        151 189 rlineto
        34 -50 34 -61 -81 vvcurveto
        -84 -58 -29 -52 -37 -39 15 20 -25 vhcurveto
        -23 -24 rlineto
        -41 33 72 -32 65 hhcurveto
        146 73 85 98 106 -75 73 -95 69 hvcurveto
        return
      </CharString>
      <CharString index="24">
        rrcurveto
        -585 vlineto
        -107 callgsubr
        593 vlineto
        35 -45 26 -49 return
      </CharString>
      <CharString index="25">
        -65 callgsubr
        429 hlineto
        -71 callgsubr
        -20 -99 rlineto
        -62 -13 -27 -9 -84 hhcurveto
        -70 620 60 40 -270 hlineto
        return
      </CharString>
      <CharString index="26">
        139 0 72 -72 160 508 47 hstemhm
        70 145 56 35 194 35 56 145 hintmask 00000000
        hintmask 10111110
        500 215 rmoveto
        -215 164 vlineto
        35 26 0 42 hvcurveto
        hintmask 01111110
        -22 118 rlineto
        -40 hlineto
        -7 -36 rlineto
        hintmask 10111110
        -44 -8 -31 -8 -82 hhcurveto
        102 vlineto
        133 40 68 101 114 vvcurveto
        157 -111 129 -222 -222 -111 -129 -157 -114 67 -101 134 -40 vhcurveto
        -102 vlineto
        -82 -31 8 44 -8 hvcurveto
        hintmask 01111110
        -7 36 rlineto
        -40 hlineto
        -22 -118 rlineto
        -42 26 0 35 vhcurveto
        164 215 hlineto
        -62 44 -29 82 88 vvcurveto
        127 61 112 127 129 59 -112 -127 -88 -29 -82 -62 -44 vhcurveto
        endchar
      </CharString>
      <CharString index="27">
        643 180 rmoveto
        128 74 96 89 77 -65 73 -123 -70 -57 -18 -31 -43 hvcurveto
        31 -32 -49 18 -68 hhcurveto
        -93 -60 -21 -64 -80 hvcurveto
        20 -32 rlineto
        36 60 51 17 48 hhcurveto
        96 10 -88 -89 hvcurveto
        18 -40 -49 13 -48 hhcurveto
        -120 -78 -63 -102 -85 61 -70 112 103 59 61 71 23 hvcurveto
        -76 40 75 -56 105 hhcurveto
        20 callsubr
        -73 -42 61 84 -12 hvcurveto
        -7 33 37 -5 42 hhcurveto
        -116 70 rmoveto
        144 57 67 56 54 23 -44 -51 -67 -39 -80 -97 -17 -18 3 4 -19 vhcurveto
        -249 -174 rmoveto
        -49 -29 40 58 60 29 48 64 39 28 -8 -11 30 hvcurveto
        -122 -38 -65 -74 vhcurveto
        return
      </CharString>
      <CharString index="28">
        333 vlineto
        -106 callsubr
        -315 vlineto
        -112 74 -55 110 return
      </CharString>
      <CharString index="29">
        21 -19 20 -22 -23 -18 -19 -22 -46 53 -23 52 76 49 46 56 51 -40 42 -65 -11 -18 -2 -5 -12 vhcurveto
        return
      </CharString>
      <CharString index="30">
        389 -150 -353 vlineto
        -64 -55 -37 -48 -36 -31 21 44 vhcurveto
        return
      </CharString>
      <CharString index="31">
        -20 hstem
        -39 callgsubr
        vstem
        525 779 rmoveto
        -50 hlineto
        -19 -71 rlineto
        4 -23 -24 3 -26 hhcurveto
        -222 -111 -164 -202 -162 72 -137 143 -47 hvcurveto
        -22 -83 rlineto
        49 hlineto
        19 72 rlineto
        -4 23 23 -3 26 hhcurveto
        224 111 163 201 162 -72 138 -144 48 hvcurveto
        61 -348 rmoveto
        -165 -58 -152 -121 -22 -19 4 9 -17 vhcurveto
        156 579 rlineto
        54 -57 27 -106 -112 vvcurveto
        -179 319 rmoveto
        21 19 -5 -8 17 hvcurveto
        -156 -579 rlineto
        -54 57 -26 105 111 vvcurveto
        167 57 152 122 vhcurveto
        return
      </CharString>
      <CharString index="32">
        539 490 rmoveto
        -70 callsubr
        -620 -100 -40 return
      </CharString>
      <CharString index="33">
        vlineto
        -89 callgsubr
        return
      </CharString>
      <CharString index="34">
        -41 callsubr
        15 15 4 8 12 vhcurveto
        13 -36 6 -34 -31 vvcurveto
        -129 -72 -97 -83 -38 -32 21 44 vhcurveto
        return
      </CharString>
      <CharString index="35">
        rlineto
        7 14 4 13 12 vvcurveto
        62 -131 46 -100 return
      </CharString>
      <CharString index="36">
        35 26 0 42 hvcurveto
        -27 168 rlineto
        -39 hlineto
        return
      </CharString>
      <CharString index="37">
        597 704 rmoveto
        -106 callsubr
        -273 vlineto
        44 -30 -45 27 -62 hhcurveto
        -161 -84 -49 callgsubr
        74 -119 161 70 51 34 55 32 hvcurveto
        -57 14 37 -32 66 -9 callsubr
        -23 -14 callgsubr
        -21 -60 callgsubr
        -28 -19 22 36 hvcurveto
        -93 callgsubr
        return
      </CharString>
      <CharString index="38">
        -53 callgsubr
        hintmask 00000000
        return
      </CharString>
      <CharString index="39">
        -21 206 -20 return
      </CharString>
      <CharString index="40">
        -20 hmoveto
        169 40 -57 hlineto
        80 233 rlineto
        240 -233 -60 -40 449 hlineto
        -78 callsubr
        -20 -89 rlineto
        -62 -14 -26 -9 -84 hhcurveto
        -90 233 230 45 -230 342 70 hlineto
        84 27 -9 -62 13 hvcurveto
        20 -99 rlineto
        39 hlineto
        27 168 rlineto
        42 -26 0 -35 vhcurveto
        -603 -40 67 hlineto
        -213 -620 rlineto
        -52 hlineto
        323 620 rmoveto
        109 -342 -225 hlineto
        return
      </CharString>
      <CharString index="41">
        rmoveto
        19 -9 15 -13 9 vhcurveto
        2 8 11 2 12 hhcurveto
        56 25 -37 -35 -42 -25 -44 -59 hvcurveto
        -46 -36 37 hlineto
        60 27 -40 -39 -41 -29 -44 -64 -6 -8 1 1 -6 hvcurveto
        15 10 8 16 20 vvcurveto
        hintmask 01110110
        27 -24 26 -29 -29 -24 -25 -28 -60 69 -30 68 98 64 57 70 41 -30 37 -48 19 vhcurveto
        44 23 28 37 44 vvcurveto
        62 -54 53 -85 -81 -67 -33 -57 -28 24 -25 29 29 24 26 27 vhcurveto
        endchar
      </CharString>
      <CharString index="42">
        70 660 rmoveto
        -54 callsubr
        return
      </CharString>
      <CharString index="43">
        rmoveto
        -62 callgsubr
        rrcurveto
        return
      </CharString>
      <CharString index="44">
        -54 21 40 -18 58 -9 callsubr
        -61 callsubr
        -24 -11 11 34 -13 hvcurveto
        -60 156 rlineto
        65 31 43 53 60 vvcurveto
        72 -59 45 -85 -59 return
      </CharString>
      <CharString index="45">
        18 22 30 18 36 9 return
      </CharString>
      <CharString index="46">
        rmoveto
        -32 -7 -19 -11 -46 hhcurveto
        -82 hlineto
        96 94 rlineto
        46 45 62 59 55 vvcurveto
        62 -56 53 -88 -77 -66 -34 -56 -28 24 -25 29 28 25 26 27 19 -9 15 -13 9 vhcurveto
        hintmask 10111000
        2 8 11 2 12 hhcurveto
        46 33 -39 -52 -38 -17 -46 -42 -42 hvcurveto
        -141 -143 rlineto
        -31 257 vlineto
        23 18 0 31 hvcurveto
        -17 105 rlineto
        -32 hlineto
        endchar
      </CharString>
      <CharString index="47">
        -9 -18 hhcurveto
        return
      </CharString>
      <CharString index="48">
        rmoveto
        -42 -35 -67 -30 -77 hhcurveto
        -35 vlineto
        43 39 7 12 31 hvcurveto
        -302 -88 -35 265 35 -76 390 vlineto
        return
      </CharString>
      <CharString index="49">
        -37 -30 -30 -37 hvcurveto
        endchar
      </CharString>
      <CharString index="50">
        rmoveto
        -95 -171 24 -21 144 138 rlineto
        18 17 10 17 24 vvcurveto
        24 -10 17 -18 17 vhcurveto
        -144 138 -24 -21 95 -171 rlineto
        return
      </CharString>
      <CharString index="51">
        31 -41 -39 19 -68 hhcurveto
        -30 -33 -5 -13 -31 hvcurveto
        return
      </CharString>
      <CharString index="52">
        65 -68 callgsubr
        hstemhm
        return
      </CharString>
      <CharString index="53">
        0 -42 callgsubr
        return
      </CharString>
      <CharString index="54">
        -45 callgsubr
        150 return
      </CharString>
      <CharString index="55">
        181 -58 -76 -35 247 35 -70 58 35 42 -35 181 -37 hlineto
        -8 -29 -21 -22 -35 -13 rrcurveto
        -117 -120 vlineto
        return
      </CharString>
      <CharString index="56">
        40 -15 -24 callsubr
        return
      </CharString>
      <CharString index="57">
        660 rmoveto
        return
      </CharString>
      <CharString index="58">
        -119 -146 -146 return
      </CharString>
      <CharString index="59">
        -92 38 -55 85 return
      </CharString>
      <CharString index="60">
        62 -2 callgsubr
        -62 callsubr
        -30 callsubr
        return
      </CharString>
      <CharString index="61">
        hstemhm
        124 150 return
      </CharString>
      <CharString index="62">
        -46 callgsubr
        170 return
      </CharString>
      <CharString index="63">
        70 700 rmoveto
        -40 80 -620 -80 -40 270 vlineto
        242 160 146 204 205 -160 145 -242 hvcurveto
        -40 vmoveto
        -36 callgsubr
        620 hlineto
        return
      </CharString>
      <CharString index="64">
        rmoveto
        -72 57 -45 72 71 58 45 72 24 -7 22 -12 18 vhcurveto
        39 25 rlineto
        return
      </CharString>
      <CharString index="65">
        40 620 40 return
      </CharString>
      <CharString index="66">
        82 34 28 50 36 37 -17 -20 23 vhcurveto
        27 31 rlineto
        38 -37 -62 28 -68 hhcurveto
        -142 -48 -82 -96 hvcurveto
        return
      </CharString>
      <CharString index="67">
        -11 callgsubr
        -60 return
      </CharString>
      <CharString index="68">
        -11 callsubr
        358 155 return
      </CharString>
      <CharString index="69">
        -47 -244 -21 133 132 95 42 336 42 return
      </CharString>
      <CharString index="70">
        -88 callsubr
        endchar
      </CharString>
      <CharString index="71">
        155 92 -120 -190 -190 -92 -120 -155 hvcurveto
        -40 return
      </CharString>
      <CharString index="72">
        36 31 -22 callgsubr
        return
      </CharString>
      <CharString index="73">
        150 225 53 hintmask 00000000
        return
      </CharString>
      <CharString index="74">
        -40 -54 callsubr
        return
      </CharString>
      <CharString index="75">
        -11 0 92 608 -20 hstem
        249 700 rmoveto
        -211 -700 rlineto
        580 hlineto
        -211 700 rlineto
        -125 -83 rmoveto
        158 -525 rlineto
        -314 hlineto
        endchar
      </CharString>
      <CharString index="76">
        -12 callgsubr
        46 -46 61 return
      </CharString>
      <CharString index="77">
        57 416 42 -42 57 return
      </CharString>
      <CharString index="78">
        -90 callgsubr
        -76 -52 -15 -53 -48 vhcurveto
        return
      </CharString>
      <CharString index="79">
        -21 160 60 160 -20 hstem
        250 60 vstem
        90 320 rmoveto
        160 -160 60 160 160 60 -160 160 -60 -160 -160 hlineto
        return
      </CharString>
      <CharString index="80">
        73 74 38 74 hhcurveto
        27 26 -5 -14 27 hvcurveto
        60 vlineto
        12 -27 -26 5 -27 hhcurveto
        return
      </CharString>
      <CharString index="81">
        -186 152 -152 186 186 152 152 186 186 -152 152 -186 -186 -152 -152 -186 vhcurveto
        endchar
      </CharString>
      <CharString index="82">
        393 515 rmoveto
        -36 -60 -59 -114 hhcurveto
        -19 hlineto
        return
      </CharString>
      <CharString index="83">
        277 -15 71 315 144 10 -20 return
      </CharString>
      <CharString index="84">
        -7 -15 42 446 42 return
      </CharString>
      <CharString index="85">
        -21 -44 vhcurveto
        -257 vlineto
        return
      </CharString>
      <CharString index="86">
        -4 callsubr
        36 44 return
      </CharString>
      <CharString index="87">
        -56 -32 30 72 -5 return
      </CharString>
      <CharString index="88">
        130 150 return
      </CharString>
      <CharString index="89">
        -20 hstemhm
        80 75 -75 155 162 148 -68 68 -43 callsubr
        return
      </CharString>
      <CharString index="90">
        -35 callsubr
        hstem
        return
      </CharString>
      <CharString index="91">
        -20 hstemhm
        111 150 return
      </CharString>
      <CharString index="92">
        40 80 -68 callgsubr
        return
      </CharString>
      <CharString index="93">
        24 rlineto
        -20 -24 return
      </CharString>
      <CharString index="94">
        35 callgsubr
        -16 0 callsubr
        return
      </CharString>
      <CharString index="95">
        68 -32 -21 454 return
      </CharString>
      <CharString index="96">
        60 -620 return
      </CharString>
      <CharString index="97">
        hhcurveto
        -24 -14 return
      </CharString>
      <CharString index="98">
        -15 callgsubr
        hstemhm
        return
      </CharString>
      <CharString index="99">
        150 vstem
        return
      </CharString>
      <CharString index="100">
        -47 17 36 -27 60 -9 callsubr
        -61 callsubr
        -28 -19 22 36 hvcurveto
        return
      </CharString>
      <CharString index="101">
        30 callgsubr
        hintmask 00000000
        return
      </CharString>
      <CharString index="102">
        144 -150 -144 -82 vlineto
        return
      </CharString>
      <CharString index="103">
        -51 callsubr
        222 153 return
      </CharString>
      <CharString index="104">
        -60 -40 270 40 -60 return
      </CharString>
      <CharString index="105">
        rmoveto
        -41 callsubr
        return
      </CharString>
      <CharString index="106">
        -26 -60 callgsubr
        return
      </CharString>
      <CharString index="107">
        -107 0 60 121 -21 380 -20 hstemhm
        hintmask 00000000
        hintmask 10000000
        90 hmoveto
        7 callsubr
        hintmask 01100000
        return
      </CharString>
      <CharString index="108">
        -50 callgsubr
        60 return
      </CharString>
      <CharString index="109">
        111 rmoveto
        -62 -14 -26 -9 -84 hhcurveto
        return
      </CharString>
      <CharString index="110">
        -68 callgsubr
        hstem
        return
      </CharString>
      <CharString index="111">
        42 -42 143 63 36 58 143 -43 43 hstemhm
        69 106 96 97 hintmask 00000000
        hintmask 10101110
        181 return
      </CharString>
      <CharString index="112">
        -287 -2 callgsubr
        -62 callsubr
        -19 callsubr
      </CharString>
      <CharString index="113">
        154 -103 103 hintmask 00000000
        return
      </CharString>
      <CharString index="114">
        25 -50 callgsubr
        62 hlineto
        return
      </CharString>
      <CharString index="115">
        33 -15 63 612 40 return
      </CharString>
      <CharString index="116">
        0 40 233 45 342 26 callsubr
        return
      </CharString>
      <CharString index="117">
        670 rmoveto
        -90 callsubr
        return
      </CharString>
      <CharString index="118" raw="1">
        810af710 f72a0b  
      </CharString>
      <CharString index="119">
        -73 -75 -35 -72 hhcurveto
        -27 -27 5 13 -26 hvcurveto
        return
      </CharString>
      <CharString index="120">
        40 callsubr
        27 84 89 85 -85 165 hintmask 00000000
        hintmask 11111000
        27 return
      </CharString>
      <CharString index="121">
        266 529 rmoveto
        17 -66 -64 30 -39 hhcurveto
        -32 -35 -25 -46 -46 35 -25 32 return
      </CharString>
      <CharString index="122">
        -79 -21 900 -20 hstem
        150 110 vstem
        260 800 rmoveto
        -110 return
      </CharString>
      <CharString index="123">
        83 -59 41 -93 -40 -43 -10 -17 -39 vhcurveto
        6 -23 rlineto
        85 38 -23 -73 hvcurveto
        return
      </CharString>
      <CharString index="124">
        -20 callgsubr
        vhcurveto
        return
      </CharString>
      <CharString index="125">
        -35 27 -27 35 34 27 27 35 34 -27 27 -34 -35 -27 -27 -34 vhcurveto
        return
      </CharString>
      <CharString index="126">
        -20 36 callsubr
        -1 84 197 150 -106 94 -43 callsubr
        return
      </CharString>
      <CharString index="127">
        99 -25 99 hstemhm
        67 44 225 44 hintmask 00000000
        hintmask 01110000
        372 return
      </CharString>
      <CharString index="128">
        -38 callgsubr
        67 -20 return
      </CharString>
      <CharString index="129">
        -55 callgsubr
        65 155 return
      </CharString>
      <CharString index="130">
        hhcurveto
        32 35 25 46 46 -35 25 -32 return
      </CharString>
      <CharString index="131">
        -54 callgsubr
        80 -21 return
      </CharString>
      <CharString index="132">
        -17 -15 66 617 47 return
      </CharString>
</ttFont>
